/* XPM */
static char *b58e839aedc143c4b8a96c6da38f14e8vY5ZRlgoPBvYPtgF[] = {
/* columns rows colors chars-per-pixel */
"64 64 253 2 ",
"   c #3A3A36",
".  c #4A3D3C",
"X  c #7D3F34",
"o  c #3F433B",
"O  c #4E453D",
"+  c #58443C",
"@  c #6B493A",
"#  c #764836",
"$  c #794838",
"%  c #7C4C3C",
"&  c #7B543A",
"*  c #4C3C40",
"=  c #3D4750",
"-  c #4A4647",
";  c #4D4B4B",
":  c #564445",
">  c #554A43",
",  c #5C4C45",
"<  c #524B4A",
"1  c #5B4C4A",
"2  c #5C524A",
"3  c #4D4D56",
"4  c #584C54",
"5  c #5C5453",
"6  c #585658",
"7  c #654C47",
"8  c #6C4B43",
"9  c #744D43",
"0  c #7A4D44",
"q  c #6D5444",
"w  c #64534B",
"e  c #67574A",
"r  c #6A564C",
"t  c #745244",
"y  c #7C5344",
"u  c #75534B",
"i  c #7C544C",
"p  c #765A48",
"a  c #7C5C4B",
"s  c #654E52",
"d  c #655755",
"f  c #6C5453",
"g  c #6B5C53",
"h  c #645B59",
"j  c #735C52",
"k  c #775956",
"l  c #7C5B53",
"z  c #79624D",
"x  c #6A6159",
"c  c #746256",
"v  c #7C6452",
"b  c #786657",
"n  c #7B665B",
"m  c #74695C",
"M  c #7D6B5D",
"N  c #7C7056",
"B  c #575A62",
"V  c #665A61",
"C  c #7E5C62",
"Z  c #796A62",
"A  c #726D6F",
"S  c #7B7367",
"D  c #873E29",
"F  c #88452C",
"G  c #94472C",
"H  c #945329",
"J  c #874634",
"K  c #834B34",
"L  c #8C4C33",
"P  c #834C3B",
"I  c #8B4C3B",
"U  c #924C34",
"Y  c #974B38",
"T  c #85543D",
"R  c #89573B",
"E  c #8B533C",
"W  c #93533C",
"Q  c #985738",
"!  c #9B553B",
"~  c #945A3B",
"^  c #A65C2C",
"/  c #A3593A",
"(  c #B35E35",
")  c #8D613D",
"_  c #BC6228",
"`  c #AB623C",
"'  c #B7663A",
"]  c #C06931",
"[  c #844E42",
"{  c #8A4D41",
"}  c #934E42",
"|  c #835344",
" . c #8B5344",
".. c #855C43",
"X. c #8C5B44",
"o. c #84544B",
"O. c #8C564B",
"+. c #845B4C",
"@. c #8C5B4B",
"#. c #925443",
"$. c #9A5544",
"%. c #945B44",
"&. c #9C5C44",
"*. c #92554A",
"=. c #9D5648",
"-. c #935B4B",
";. c #9B5C4B",
":. c #825651",
">. c #845C53",
",. c #8B5C54",
"<. c #885C58",
"1. c #955650",
"2. c #945C52",
"3. c #9B5D52",
"4. c #A15C44",
"5. c #A55B49",
"6. c #A45F53",
"7. c #84634C",
"8. c #89654A",
"9. c #8B634C",
"0. c #966646",
"q. c #93634C",
"w. c #9C634D",
"e. c #9B6B4E",
"r. c #836353",
"t. c #8B6353",
"y. c #846A55",
"u. c #8C6B55",
"i. c #84645A",
"p. c #8B645A",
"a. c #846C5B",
"s. c #8C6C5B",
"d. c #946353",
"f. c #9B6354",
"g. c #946C55",
"h. c #9B6C55",
"j. c #93645A",
"k. c #9C655B",
"l. c #936C5B",
"z. c #9B6C5B",
"x. c #8C7157",
"c. c #85735D",
"v. c #8C735C",
"b. c #8C795C",
"n. c #937354",
"m. c #9B7355",
"M. c #94735C",
"N. c #9B735C",
"B. c #957A5E",
"V. c #9B7A5D",
"C. c #A86647",
"Z. c #A4624C",
"A. c #B36743",
"S. c #A7714E",
"D. c #A36353",
"F. c #A36A54",
"G. c #A56459",
"H. c #A8695A",
"J. c #A2735B",
"K. c #A8785B",
"L. c #B47355",
"P. c #866962",
"I. c #8D6D62",
"U. c #946C62",
"Y. c #976864",
"T. c #9B6D62",
"R. c #847363",
"E. c #8C7363",
"W. c #8D7A64",
"Q. c #8C7569",
"!. c #847869",
"~. c #8C7B6B",
"^. c #947463",
"/. c #9B7563",
"(. c #947B64",
"). c #9B7B64",
"_. c #94766A",
"`. c #9C746B",
"'. c #937C6A",
"]. c #9C7D6A",
"[. c #877A72",
"{. c #987D72",
"}. c #A76A62",
"|. c #A37364",
" X c #A87366",
".X c #A37A65",
"XX c #AB7C64",
"oX c #AF776C",
"OX c #A27D6A",
"+X c #AC7D6C",
"@X c #B5766A",
"#X c #7F857F",
"$X c #AE815B",
"%X c #8D826D",
"&X c #958165",
"*X c #9C8365",
"=X c #95826C",
"-X c #9C836B",
";X c #9D8A6D",
":X c #8C8373",
">X c #898679",
",X c #948473",
"<X c #9C8472",
"1X c #9D8A74",
"2X c #978978",
"3X c #9D8A79",
"4X c #9C9076",
"5X c #A38366",
"6X c #A88766",
"7X c #A3846C",
"8X c #AB846C",
"9X c #A48A6D",
"0X c #AB8B6D",
"qX c #B48668",
"wX c #AC926D",
"eX c #A38572",
"rX c #A98474",
"tX c #A38B73",
"yX c #AB8C74",
"uX c #A38C7A",
"iX c #AB8C7A",
"pX c #B68877",
"aX c #B28C75",
"sX c #A59274",
"dX c #AB9274",
"fX c #A5937B",
"gX c #AB937B",
"hX c #AC997C",
"jX c #B39474",
"kX c #B2947B",
"lX c #B39A7C",
"zX c #B9987A",
"xX c #B3A47F",
"cX c #C1957D",
"vX c #7F8A86",
"bX c #8A8C8D",
"nX c #9A9284",
"mX c #A78D84",
"MX c #A39482",
"NX c #AB9581",
"BX c #AD9B83",
"VX c #AC9B89",
"CX c #B39C83",
"ZX c #B69885",
"AX c #BB9C84",
"SX c #ADA288",
"DX c #BAA284",
"FX c #B7A48A",
"GX c #BBA38A",
"HX c #8998A3",
"JX c #C09D88",
"KX c #C3A68A",
"LX c #C3AD93",
/* pixels */
"+X|.|.rXFXW.l.a.NXLXe.X...7.s.l.).gXSX:X:X:XhXx.M.y.Q.(.v.v R.fX5Xg.h.g.&X7.r.s.-XrX.X/.-X).f.9.z./.J.0.e.q.7Xd.-. .p u.@.+.@.X.",
"yXiXLXzXpXqXqXqXXX.Xu.3XbXnX>XMX2X2X<XuXuX].{.[.!.%XA S S W.u.r.r.a t.+.+.g.).;.-.-.q.d.f.w.e.).J.K.h.*X8Xz.^.l.t.t.s.^./.ZXOXN.",
"F. XkXC.A.A.A.' ' Z.+.MXbXHXHXnXmXbX XC.5.Z.k.T.`.,XA A 6 3X[ $ $ % $ $ [ l.m.W W I E P =./ $.XXH.L.H.yXg. .2.d.o.O.O.@.| 8X .I ",
"F. XgXh.F.F.F.e.z.t.v SXA vX#XS uXMX^.m.g.h.q.M.-XMXx Z n CXy y y % $ %  .g.l.9.d.g.d.+.X.%.X.n.e.h.q.7Xf. .P +.@.d.-.-. .OX .[ ",
"dXkX1XM.c.1X).-X1XgX3X-X<XtXiXOXzX7XfXBX1XB.&X;XtX7XrX8X-X-XOX-X7XeX~.gX].].a.v.-Xq.f.g..X.XXXV.|.N.g.M.x.s.M.M.u.u.-X/.x.-X=X<X",
"/ 5.;.=.t.yX+.i l -Xj.D.Z.4./ / / ;.lX.Xh.X.M./.w.! 4.;.3.5.5.M.).@.+./.} } { 7..XY Y W d.I U J L F K P  .+Xf.*.*.X.8X..0 0 % % ",
"w.d.,.q.t CX@.+.a gXu.d.w.w.#.-.w.d.NXs.d.-.s.].X.-.X.t d.-.;.7.V.#. .7X .I O.t.8X5.-.h.^.q.E E I K P  .;.7Xw.=.Y O..Xq.| | % y ",
";XW.c.uX1XCXgXGXhXCXgXgXuXsXhXhXhXtXhX1X&X*X&X;Xb.B.&X,XW.^.^.<XtX9XyXhXiXfXCXyXsXgX).5X&XJ.(.-XyXeXrX7X8XsXrXOX.X].eXM.s.u.v.M.",
"s.I.'.Q.7X.X).v.7.9.T lXs.U.p.1XR.~.'.<XR.Z I.R.=XZ V h c (.X. .| W./.| | =Xg.$.q.d.W / ! 4.@.7X$.-.;.l.rXv.p.r.s.@.X.@.r.eXc.(.",
"u.p.^.s.l.l.s.P.i.>.7 3Xu.p.l uXp.p.p._.P.P.p.Q.{.h V V Z a.>.| u E.N.I I <X7.E *.#.W ! $.$.q.0XY Y Y q./.P.U.,.O. .*.J | 7X`.d.",
"=XuXBXx.x.c.c.a.q N z 9X*X=X1XFX(.c.&XfX3XtXb.c.;X-XuXBXdXtXuXsXgXBX<XE.a.=Xa.M.a.y.u.x.a.y.M.sX7X).N.^.^.^._.a.7.a.u.| y M.i.7.",
"3X'.-X'.hX-XR.Q.M =X^.|.XXz.|.T.z.s.gXu.u.u.&X~.Q.s.p.r.+.p.p.gXy T | y y T  . .+.| W #.u.g.;.w.z.t.l.M.b.W./.z.l.b.M.d.d.N.`.^.",
"+.d.F.u.gXuX^.f.p.uX/. XJ.J.|.^.g.9.uXu.l.N.^.I.d.-.d.j.t.j.t.=X% J J #.} I J D +. .Y $.M.3.$.-.w.I E w.g.M.$.Y Y u.N.#.#.%.;.O.",
"Q.a E.y.eX<X^._.c 1Xs.s./.M.l.M.V.7.(.y.y.z E.y.s.l a +.M.l.c.-X+.y 7.7.t p p +.s.I.z.g.8X/.l.^.3X{._.s.Q.~.l.j.+.y.(.t.>.,.,.q.",
"-XgXSX2X2X,X-XuXb.-XtXtXuX=XfXsX-X<X-X*X*Xv.(.u.eXu.9.v.=X1X(..X7X(.(.u.^.'.~.[.:X_./.).].,X~.sX3X-X).&X_.<X].(.(.=X<XuX<X-X7X=X",
">.<X:X3 3 4 <Xt.2.d.J.z.U.T.tXfX{.i.i.s.M.l.r.p tX| t.k R.uXrXXX@XrX/.U.'.eXU.7.9.q.~ ~ 0...n V.,.z.F.0XU.d.U.>.,.,.p.>.r.5X>.+.",
"b 1X:X6 6 4 eX..X.+.d.d.g.q.^.hXv.^.^.v.c.a.v q tXu.a q y.<X<X]._.'.(.I.!.MXQ.a.n a.r.v 7.a R.(.Y.`.U.uX{.a i.U.j.-.P  .+.8X+.o.",
"W.gXsXb.b.(.eXB.x.=XtXuX(.1X;XtX1X9XdXlXgXsX;XdX*X5X*X5X5X5XB.6Xx.(.^.(.].&X~.'.&X;X-X<X(.(.7X).-X-X].eXs.v.^.W.E.v.y.B.(.jXeXb.",
"K.L.' A.` A.S.C.).b.s.l.e.9.d.9.l (.=Xv q l.).K.e.9.%.S.e.) ~ 5X_.v.^./.}.j.j.T.eXuX^.l.a.uXd.z.d.j.z.@.O.^.yX(.t.t.^.V.z u.+.| ",
"' _ ] _ ' ^ ( ^ V.a.a d.C.;.+.| | (.2Xc j y.-X0.& @ & R R R R n.v.E.{.`.,.s.`.p./.tXl.t./.yX*.@.*.*.O.$.=.@.fX^.k.f.^.eXo.-.%. .",
"L.A.S.$XwX6X6XK.iX9X(.E.u.v v y.v.GXgXW.b.y.&XB.u.b.=X;XB.n.M.B.=XuXuX-XiXfXNXNXBXlX9XfX-XlX).V.].].(.8.u.x.hXV.g.n.x.5X+.+.a.a.",
"S.K.sXM.t.t.dXe.m.S.0.9.x.^.(.jXqXXXm.M./.N.m.7.7X,Xm x S *Xu.X.d.-Xs.y t.-XrXU.a.i.r.p.j.z.^.;XE.s.v.;X-X5XN.N.z.m.m.q.x.OXN.l.",
"~ K.kX5.=.&.zX` ^ ' ^ ^ ! H ~ AX%.%.~ C.C.0.~ K ].m = 6 S eXz.3.-.(.s.{ *.^.s.,.*.{ K E W  .].-Xl.%...E.r.%.0.~ W L F F 9.+X;.$.",
"n.FXGX.X).eX*Xe.0.e.V.5X/.V.m.lX7.a x.7.7.u./.u.gX!.nX2X&XhXuXeX_.-X7X/.^.W.uX^.^.^.s.^.l.l.I.~.Z a p W.s. .| @ $ K K K X.s.y T ",
"jXaXJ.5X5X8X8XiXtX].uXuXCXzXXXpX.X8XrX].].lX~.~.mXfXsXQ.^.P.-X;X{.]._.).<X'.-XuXBX9X^.7XiXsX<X-XeXyX].].rXOX7X=X~.r.z '.u.].-XeX",
"$XL.C.` ` ' L.yXtXk.2.l.DXF.6.6.H.}.}.}.j.ZXh f d ~.-Xp.d.d.s.-X,.O.;.-.,.<.,.P.1Xs.X.3.z.-X,.E #. .I #.#.d.dX^.>.P +.8XK | P K ",
"qXn.f.Z.Z.C.A.7X7XU.I.P.kX;.=. .;.D.-.G.2.hXs 1 7 <XeXn v j ~.=Xr.t.t.+.n a.s.I.sXa.i l 2X-X2.;.f.p.>.d.;.f.9X^.*.W X.XX# { { X ",
"KX).-X5XN.K.6X(.tXuX1X9XdX5Xs.yX5X/.7X8XuXVXVX3XNXiXaXiXrXkXZXJXJXGXZXAXZXGXKXAXAXAXZXAXAXaXqX0XyXiXiXgXaX].sX7X].7XrXgX(.N.M.s.",
"6.;.Z.H.D.e.zXr.,.Z a..XK. XH.H.H.}. XaXl.<.k j ).f.f.f.f.f.f.k.f.).F.D.f.+XqXG.D.f.6.6.D.D.|.2X[.R.M ).}.d.d.j. . .*. .u.{.@. .",
"z.f.*.;.Z.F.CXZ i.k <Xl.H.H.}.H.}.@X@X8X/.j.j.<.|.G.j.,.,.,.O.O.o./.z.*.1.|.@XH.6.G.G.3.;.=.d.,Xj.#.o.l.}.O.O.O.I D L F d.8XI J ",
"ZXtXdXKXJXjXKXBXgX7XhXzXcX8XN.@.2.3.|.iXeXeX{.i.<X].^.(.].].-X5XeXkX7X7X+X9X8X+XrX+XpXrX.Xl./.NX7Xl.a.(.h.X.X.@.|  .E P /.kXq.E ",
"AXp.T.`.kX.X+XuXi.I._.'.uXsXhX'.'.<XeX(./.l.l.+.9.q.z.iXy.t.s.uXs.^.l.l.U.E.E.'.uXM.N.M.x.<X/.(.]..X.XE.].<XeX^.s.^./.tX7XrXOX^.",
"uXk C k _.|.d.l <.p.p.p.P.R.'.p z r iXj.1.-.} $.W J I eX@ X y OX,.2.1.-.O.| o.f _.R G U K 5X! W E K P #.! ! V.l u i 9 eX>.,.% F ",
"dX/.U.p gX.XM.s.p.l.l l l s.Q.n c j ZXj.1.| o.O.P K  .-X+ @ p (.j.j.,.u 9 u u u 1X& U L & 5X| %.K L L L K L V.a o.:.u 0X:.i [ $ ",
").<X^./.7X8XfX_.W.-XdXlXuXCXCXCXAXDXCXsX7X-X).B.;X0XyX5XyX7X6XaXaXkXyXeX<X*XuXuXVXMXeXeXCXeX]./.v E.W.y.b.l.5XeX<X'._.gX<X(.].].",
"O.,.o.{ O./.~.k g g CXz.*.*.-.f.-.+.+.V.g.@.p.z eX~ ! ! Q Q ! Q &.g.R ~ %.0./.i o.| [ | | O.+.s. .F J R 8X3.2.O.K K P I I aX% $ ",
"2.Y.Y.O.2.OX'.k j j FX^.*.*.*.O.,.,.,.v.u.T  .@ 7X/ U ! ! ! G L K V.R ! %.9./.,.@.O.I } #.I O.M.%.G G E rX2.2.| J F F F F 5XI L ",
"-XE./..XOXkXlXAXlXCXGX).7X].B.g.N..X).5XhXtXdXdXxXAXhXfX(.9X*X*X;XdXsXsXeX9XuXuXmXNX7XOXOX/.].1X9X8X8X0XDXOX^.M.OX/.-XtXuXsX8X.X",
"d h fXf f j l U.r.l k CXM Z Z -XCX(.(./.l.i.E.b.fX<Xj g w tXr.>.j.j.U.`.E.7XCX:X!.[.FXAX.XF.d.OX7XeX/.AXb n M sX&Xb c R.rX;.;.h.",
"7 5 3Xf s f <.>.a 9.>.eXk f f eX_.l >.j.,.:.i i ].n + 2 > iX,.O.| o.o.i :.p.fX- ; 5 ;XZ.4.5.C.+.-.*.o.hX1 1 7 <Xv . + y.z.I I $.",
"(.'.dXy.b.s.s.8.n.M.M.jXa.y.y.*Xa.u r.t.y 9 y +.M.a.w e n iXj.t.7.r.a +.y ).fX> w %XGXe.~ 4.%.y T X.9.uX'.M a.hXv.j M hX0Xe.q.X.",
"z.|.).eX'._.a.hX^.E.^.v.R.s.E.-XfX(.c.(.&X*X0X].0XeX7X0XyX0XCX-XtXtXtXzXaXyX8XyXiXyXtX8XCXCX1XtXsXkXaX0XyXrX7X).y.5XdX/.].6X6Xx.",
"f.k..X,X5 s w fXP.l l r j f s 2 uX- d d a.S.' A.Z.=./ ` &...fXp t 8 -XXXG.;.F.Z.4.$.-.t.'.: < : dX9.d...X.X.X.+.u (.(.t | & gXr ",
"J.h.z.'.r r g dXi.j f j 7 j r w dXO + w ~.S.` ` ` / / ` C.q.AXt t q tXJ.D.D.C.&.#.D.2.s.sXr 7 , NXi.8 t +.i.r.a q =X'.y P $ tX+ ",
"fXdXv.^.(.&Xa.*X^.-XtX-X-XfX<XsXzXfX9X-XtXjX8X0XwXlXsXuXjXzXAX8XyXaXzXjX0XdX9X-XtXdX0XV.zXAXkXlXzXkX-XlXBX;X,XfXlXDXzX6X6X5XGXCX",
"= <Xq.| R  .X.R X.X.9.CX5 6 h gXw.X.%.%.%.;.-.X.9XZ B B ,Xh.U L I  . .P +./.Z < ; < 5X~ ~ W ~ ! ! ! U 5Xj w 6 Z B.i o.|  .o.| *.",
"= Q.0.~ ! ! &.%.E E X.fX; 6 [.kX%.%.&.0.4.;.O.+.9X6 6 ; M 0.G Y U U J F J N.R.; o O 9XK L L U L L G F 7Xj O - m M.2.J W J L G G ",
"GXKXyX8X.X5XgXdXNX5Xn.GXSXVXMXdXn.n.n.V.M.V.).).LXDXuXuXfXdXm.q.R R X.X.E g.W.w S ~.jXn.T & & & 7.R g.9XW.:X>X!.9X7XOX/.9.0.0.9.",
"@X@X@XoXpX'.x m S GXCXuXiX^.eX'.E.^.9XhX3XDXDX8XJ.g.h.m..X8X8XzXW.R.W.=XtX-X(.-X-X7X7X^.x.9X9X=X=X).0Xq.7.7.8.h.z.8.g.V.-X~.R.R.",
"@X@X X@X XR.= - 2 CX/.+.o.+.o.y ,.3./.NX6 ~.dXE =.=.$.G.G.;.k.jXx 3 B d kXO.-.-.;.Z.-.@.& uXw 6 h y.6XD F G G G D G G q.M - 3 ; ",
" XG.k.G.^.,X5 < < ;XN.q.t...y +.-.@.s.2Xh g tX& R E I %.P E | eXg < ; d kX@.+.+.| i y [ | iX2 x d a.0XD J U L & K F G q.~.5 V < ",
"-X-X7X-X].<X<XuX1XCXCXAXFXCXfXfXlX0XAXlX-X(.kX0X0XzXCXsXdXjXjXKXBX<XuXBXBXuXuX1XsXhXNXkXAXfXa.R.R.W.lX8XyX9XVXuX].7X0XlXGXDXlXsX",
"g g r tX<.<.>.:.u i l >.;XR.p.r.(.jXq.%.X.t.t.>.a *Xm 5 5 g uX^.t.o.u t y y 9 ].uXc c ~.uXM.l.z.h.@.| +.r.gXd 1 > c.rX+.|  . . .",
"< 1 7 7X,.2.,.+.+.>.:.i 5Xl j >.R.AX~ 4.@.r.+.t.y yXZ 5 6 , 9X@.+. .| 9 +.y @ 0Xv.+ : g -X@.@.d.9.+. .X.i NXs 1 w W.R.$ [ % P 2.",
"1XeXdXdX^.s.7.u.x.M.u.u.dXc b v N sXy.n.B.).7X-X].CX~.m A !.CXx.u.u.s.s.x.r.-XGX'.R.R.,XuXy.u.t.7.u.8.7.y.<Xn n b uX9XM.p.u.u.M.",
"pXpXrXpXpXaXuX[.[.R.tX7X+X/.M.N.m.M./.6X0XtX;X-XsX9X(.<XuXgXfX=XW.-XtX-X(.9XtX-XuX3X1X<X=X=XR.W.Q.Q.Q.(.9Xs.u.a.E.].^.E.^.(.R.W.",
"G.H.G.}.}.}.'.- ; < (.k.k.1.1.f.k.d.o.).V.7.a 7.9Xr.i i 9 u 8 8 q <Xq q q (.E.>.p.>.i i.l k w <Xb j l p ).P [ 0 o.| |  .%.t.> . ",
"k.G.G.G.k.z.=X; ; O &Xz.,.d.k.f.2.d.,.s.B.y +.@ 7Xa y y u 9 9 8 8 <X, w @ ^.a.+.>.u y u q 7 @ W.c w 7 v OX[ y u 9 0 8 @ # l >   ",
"uXhX-XuX3XeXhXnXfXCXgX/.(.]./.&XtX<X;XwXdX(.x.b.*X'.,XW.b.R.'.=X(.-X(.W.=X=Xc.a.v.b R.Q.R.c.1X<X,X,X~.1X'.a.R.n y.v.~.W.b.E.3X%X",
"l R.n j , gXi.k >.<.>.u ,.y '.E.a c b CXE.^././.l.p.d.7.-X~.x Z g tXl.U.T.|.|.OX+X/.MX!.:X%XVXw , : 1 : : > 2 w ~.r d d !.. < ; ",
"t.b.k +.u.iXi.u >.j.,.o.| | ].P.k f , jXt.:.<.Y.p.:.,.:.<Xm ; ; : iXU.j.T.k.j.t.k.,.'.c c g BX7 w , , + + : > , :Xg 5 > S < ; - ",
"l.5X^.(.b.BXeX^.^.OXOXeX].).NX1XM ~.~.lXeX-X=Xb.(.<X].'.hX4X1X%X%XkX].'.].^.^.^.].-XfX~.,X1XCXc w g g c r r w w 2XQ.R.R.,X2 1 * ",
"U.T.s.iX7X-X(._.uX'.n a.y.i.R.R.'.3X1XhX[.Z !.NX<XR.R.n Z n R.Z M sX~.%XR.uX-X].-X=X(.'.(.Q.(.uXs.(.(.b.=X^.^.I._.^.l.M.N.-XS n ",
"T.T.d.,.-X7 : 7 R.^.l l >.l l k l l a.1X4 d V [.c.q 7 w r r j s w ,X1 , h -Xi i | y y i >.>.p.^.% y +.r.M.[  . .| 0 o.$ $ _.w : "
};
