/* XPM */
static char *fc157b16397a409aaf594bbcfff863dfmVydynnMMFC6i9T7[] = {
/* columns rows colors chars-per-pixel */
"64 64 37 1 ",
"  c gray17",
". c #2F2F2F",
"X c #313131",
"o c gray21",
"O c #3A3A3A",
"+ c gray24",
"@ c gray26",
"# c gray27",
"$ c gray29",
"% c #4C4C4C",
"& c gray32",
"* c gray34",
"= c #5A5A5A",
"- c #5D5D5D",
"; c gray38",
": c #656565",
"> c #6A6A6A",
", c #6D6D6D",
"< c gray44",
"1 c gray46",
"2 c #7B7B7B",
"3 c #7C7C7C",
"4 c #808080",
"5 c gray52",
"6 c gray54",
"7 c #8D8D8D",
"8 c #929292",
"9 c gray59",
"0 c gray60",
"q c #9F9F9F",
"w c gray64",
"e c #A7A7A7",
"r c #AAAAAA",
"t c #ACACAC",
"y c gray69",
"u c #B7B7B7",
"i c #B9B9B9",
/* pixels */
"%:%*,$::>,=<;&Oo;1><-<5:=<#o+#@@&+&>==-=&oo@#+OO@O.X##@@@%#++@%#",
"*=<:=o*==-:-%oXO=%%#@#><>%@$%#+o#*:;;%%ooo+%%$&:*=#OO+##:3=@+-2*",
"%%%=*X$$$@XOOX$%#Oo+@%$:-@@#%%@$,3,4122:=@@$*,<586*#+@#>41-O@,,<",
"+@+@OX.X....XO$#@#$@@##+@$$$$;$%$&:,12961#@>788<>:82-+$3><>@;:<-",
"oOX..oOoOOo@*->-#$$%##@@*531::;=@+1-52844%$=071723<,<+<2332@:,;@",
"....o@@*;><43,<22=$#-1398463-<8:=*,;;:54>>$4077534=2*O-543:O&=$#",
"OXXoo#;:%%:--:241<$500963<42367>$->5,09,,<*,64678w9<*+:1,<2O+;&#",
"*XoO$,:=@#%#%O-<>@,2141,1:1,<1<;&>=0q06<6<%;8874764,2$<141<#O$$+",
",@O$3;>:;=&$&;81=#;>;,211,431>--:,282>3674%;7,8223<1;@,415<$X=%@",
">-X*:-*>1:;1,963:#;:>3>:=><22<:<:,3<<43;4>$>15712571<#1412,O.%o ",
"2;+:>>:;<8785q445$:>3;<:-,<3,>3*%:#*><2111=&1942<1612*,542;@ ...",
"--O-::=;>:2,<>>;,-423233>65,-1,&%>;%;11,54%;226266352**642<X..  ",
">-o==*%@%;;-,1:14;:<2%:,1;;,3$#oXo@O<<2242+>1<3805971$%<43,XXXoo",
">#O%**%#=#%1,<;-=@&;*><1;=*O+o+OXoo=:,=,2,+%*;:13;22%oO,61;XXX++",
"$%o;&$$@&*:-=#*>-O#-$+@oXX ..X+++@@&%oOo=$@ooOO+X+O+.XO&2:-OOOOO",
"OOO#&*=&-;-;>=--@.X..X. . Xo+&>>$#>*oOoooO+%;;%OXX.XO@@Oooooo+@o",
".o++#=;=,#;=&O$@+O$#+oOOO+@$#:23<13,,,:$#@O9q8&#@O+@#@%#-;;&$%<-",
"@##$@-%$*+#@Oo@%$%&#@@@@+@$%%68q6q825q691@=81,1&$#%:33-51>:>12-*",
"=#-:<,>*=*+%#>9761*>>-%%$$+@7633>209072:&O*81125-$-4>;:&$*=>=:=&",
":=3;&4234,@#O,22=:=,<632,$#O876-7<145686%+:3,>42>+>11:::&$*--;%$",
"-=,-%2<,15<@#78,&;:2<>211<O@>,$%21>;3,372#*6,133>#&>2>-*-&%=*&*#",
"#%,;*,<21:;+*3<6;>64<5er5-+O<1+o3,,1*:;<4$$8167::%=:2--;:-=$*#%#",
"@;-*&;2-@><O38773,9380q8;&o$2,$$814>16:,53*4,12;:#&:>=-*@%:%%@#@",
"==133;#+#;*@2<748w05r8878>%-82147>1,2;2>33#4>513<Oo==;@&%-;*&&#+",
">%64w4>$o@@o>690qeq997593<@50w67,,-&;:>5<=@3271<;%o+;-$Oo#%*#$*&",
"3=68266=@@+O199063893563<*#6934<:1;;4332,3$041&&;+oX;&@%@%=%%;;$",
",3096341@#%X367677w8754,;$+>43221113345qq7#42*-**#o$;*-$&;>%$--=",
"223;,<>=&*#+1511508443<41:+<72112464240667#521<2,%o1<-&;<:>#+=--",
"11,183,>@:#&;847073482893=+35:,1432,>55634$43,>:=%o%;*&><-=oO@%%",
">,2>2<*==*@&31,50<594,73<&o<3,;@,;;:>2>>2>o721:=$+o@::%,>-%X#%##",
"+-,*#;#*;ooo<,38:,253:13:oO-,;;*$o:22,=55&o42-%o@Xo*&#;-&#$@$&@o",
"O@+*2-&%#OXo,<<3<8323131=+O%==>6,,;8735q>:O*=oo@$+O$=$-:$%#o#=$&",
"@&%;::=-*%OO>,;,:53452>7-@+$4356484r0489,-O-1@$;@#@+*:-&$:-+$%oO",
"+$$%Oo%*$+#+%;<:>2=,>=14,#$#300490tq6>1<=++11,1,#&@o$=&$$:$Xoo.o",
"oO+o..X.O###+X.X@%*&-&%;;#*$&65>12q,:;31$+O;:*=#O+$$+$%$%%++OX.X",
":%@X.XO%+-&%@+@@OXXX.oOO$#&%%$$:&26;23*++#@#$$$.O+##$$+oo..X.Xo+",
"<>:+@O@<2q51248q:@o+#%13<242%$##+$$&**=*-=%#@Oo#@@&*&$$#+++++O$$",
"o&:,$o;8wiw63yw05:@##7w000495,%$$-<>098968>%#+&=&=064141,*o@@+<<",
"&&%<o#:req69ur789,##%732326315#$,58w55975544,*@%#3r468q32,,+@&:;",
">=>*o,598680897>52%+;645<1212:+-3154743321<-1,$*=qw8,w992,;@#>-:",
";;1&X17,47q96<7955%@:2<22,2<2,%<<*3<2,1,,;@%,2*@5r96*04>1;:X**=*",
"<:-o.>6;8994690q7>@+33>43,122,=*@%,,55<--O;866%#q0q,27346,=X$->#",
"=OO+X;;267<25784:#o=7<3,542<->O@@354<1>:*%23>2%&129,48339;&oO@#o",
"&$#O.-O>7<$*<767>&O-4,5255271%@#:276<1>=&<<1:1+%6e984r858,%.@+OO",
"#=*+X+$*,:2>5e59>+o236:87325==$&,37>=3;;><>><=@=98r07e882$*XOoOo",
"&:,@XX%-*;3<2,47,@o#,1784312*=O&;<2>;<=;2=<,=4*5r4,213>-&OXX...X",
"O##XoO#=&Oo+&#-%OXOO$2244434:>$%=,;,:32,,52138=,3163*O+&++OooX..",
"#o.Xo+OO+o.+#%&+Xo@@O--6222<$=@%=;>>3,-=:21<43%#:<1#&@%$XoO++Ooo",
"XXXO+O+++OoO##@ooO$$@,=,,,%=-%O+>,3722>:3<<316$o*%$ooO$o+#@@OooO",
"XOOO+#**,,&+O++#$%%&%#$$++@Oooo+-%&&%&--;,,,&%oXXXo.OO@%%%++@ooO",
"oO:1333<5w1@+#&%$-=$%%#Oo..oo++@OOOooo+**=&%@+XOXo++@#<12<>;*#&@",
"O-201,&336,-X#&<99796225<#O++@$%=:&@#@OoXoXX.OO++#%$@$1*-;;*=$O#",
"o%,3&,,:><=-o&24,3<12443<2&O+$386,36657<oO#@:262:####>,:,;;*;-:>",
"o=;1:1=;=131#&,:5>2,2,<63&,O&853:w253396$+=52;>,4;;#$3132-,**@;-",
"=&$%-&X.::*#$;,3:&,1,222,%=O13367642411,:o*,,,634,=#:<,4<-;&--:&",
";&#@OO.o=;%=o->->-,,*-38>>;O53rw775<:3773o=43w07<<,@--&>;;-;:--&",
"*O#+$+.O**+$.-:-<,21,1381>=@5097,,<43833;X:498564,<#o+@%$$**&++#",
"%+ooOX.o$;#Oo%$:12>*3887,=#@5847=*<27531*X:85877<63#O+X#&#;*=+Xo",
"$OOXooX@&=$OX$:-3,163704=&@#2365762536>,#X&111<;22:#O$$%=:=&o..X",
"@OoOX.XOO@&&+&,:5013<235:OoO2433447631<:=o-2622:9,*XoooXOXXX....",
"X+o@O..Xo&+@+%4>:763172-O#+o:;:*--+*-%<=OX,0522,1<1XOOOooX..O+XX",
"+$XXo.XX+$+#+@1:*<:>>;<&&@X#;;=*%%+#->*<#o5e2260251+oo+*=@o@*==$",
"O+.XXoo++&#=Oo=#*>=#=%*#@++O&$+-,+#-6<<6;O>1<49,10>@o;33=@+*-;-&",
"oO+@@ooOX@@#XX++$@O@**;##&X.;>$-OO=52*3:#O,0q51352;X@442*%;>,;=*"
};
