/* XPM */
static char *e8c4817496e34ff193b50d9f71410812kwPIEq65qUOwg8yZ[] = {
/* columns rows colors chars-per-pixel */
"64 64 130 2 ",
"   c #575858",
".  c #615F5C",
"X  c #5F605F",
"o  c #65615E",
"O  c #646362",
"+  c #696666",
"@  c #6B6966",
"#  c #666668",
"$  c #686569",
"%  c #66686A",
"&  c #6D6C6A",
"*  c #726C65",
"=  c #726E6B",
"-  c #74726D",
";  c #7B756B",
":  c #6D6F70",
">  c #726F70",
",  c #747473",
"<  c #797674",
"1  c #767977",
"2  c #7B7A75",
"3  c #767679",
"4  c #797779",
"5  c #777879",
"6  c #7C7C7B",
"7  c #817D76",
"8  c #817E7C",
"9  c #7F807F",
"0  c #828075",
"q  c #84827D",
"w  c #8A857E",
"e  c #8C8A7F",
"r  c #7F7E81",
"t  c #817F81",
"y  c #7E8282",
"u  c #858483",
"i  c #898683",
"p  c #868985",
"a  c #8C8985",
"s  c #868788",
"d  c #86898A",
"f  c #8C8C8B",
"g  c #928783",
"h  c #928C86",
"j  c #918E8B",
"k  c #8E908E",
"l  c #949186",
"z  c #94928D",
"x  c #99948D",
"c  c #9F988F",
"v  c #8E8F91",
"b  c #958E91",
"n  c #8E9191",
"m  c #949492",
"M  c #999692",
"N  c #969896",
"B  c #9B9A95",
"V  c #979598",
"C  c #9A9799",
"Z  c #979999",
"A  c #9C9C9A",
"S  c #A19D96",
"D  c #A19E9A",
"F  c #9EA09D",
"G  c #A3A096",
"H  c #A3A29D",
"J  c #A9A59E",
"K  c #ABA99E",
"L  c #9FA2A1",
"P  c #A5A5A2",
"I  c #A9A7A3",
"U  c #A7A9A6",
"Y  c #ABAAA5",
"T  c #A9A7AA",
"R  c #A7A9A9",
"E  c #ADACAA",
"W  c #B1ADA6",
"Q  c #B1AEAA",
"!  c #AEB0AD",
"~  c #B5B0A6",
"^  c #B3B1AD",
"/  c #B8B4AD",
"(  c #AFAFB0",
")  c #B1AFB3",
"_  c #AFB0B0",
"`  c #B4B4B2",
"'  c #B8B6B3",
"]  c #B7B9B6",
"[  c #BBBAB6",
"{  c #B6B7B8",
"}  c #B8B6B8",
"|  c #B7B9B9",
" . c #BCBCBB",
".. c #C1BEB7",
"X. c #C0BFBC",
"o. c #BEC0BE",
"O. c #C3C2BE",
"+. c #BFBFC0",
"@. c #BFC1C0",
"#. c #C4C4C2",
"$. c #C8C7C3",
"%. c #C6C8C6",
"&. c #C7C9CA",
"*. c #C9C9C9",
"=. c #C9CACA",
"-. c #CCCAC8",
";. c #CACCCB",
":. c #CDCCC8",
">. c #CDCECB",
",. c #CDCECD",
"<. c #D0CEC9",
"1. c #D2CFCC",
"2. c #CFD0CE",
"3. c #CED0CF",
"4. c #D1D1CF",
"5. c #D4D2CE",
"6. c #CFD1D0",
"7. c #D0D3D2",
"8. c #D3D4D3",
"9. c #D5D5D3",
"0. c #D5D6D5",
"q. c #D8D7D4",
"w. c #D6D8D7",
"e. c #D8D9D7",
"r. c #D7DBD9",
"t. c #D9DADA",
"y. c #DBDCDA",
"u. c #DCDCD9",
"i. c gainsboro",
"p. c #DDE0DE",
/* pixels */
"A A 8 D A m C A A m M C C V b E Q ^ Q Q ` X.' ^ X.#.B  . .' }  .}  .*.#.$.,.Q X.#.-.1.4.4.$.$.#.#.#.W 7.%.-.*.#.#. .X.#.} #.N ` ",
"` P P `  .} }  .X. .#. .#.%.Q #. .*.>.,.>.8.>.3.0.7.G $.#.,.3.>.>.$.>.0.9.e.^ ,.4.4.1.,.7.4.4.4.,.4.` *.%.#.#.X.#. .} ' [ #.V ` ",
"` T T #.#.+. .#.*.*.*.*.*.7. .,.&.#.,.7.,.7.0.0.w.9.A %.,.$.$.$.>.<.<.>.4.9.^ 4.4.-.7.>.7.9.>.>.,.*./ O.$.O.X.#.#.#.[  . .o.V ` ",
"` P P  .#.#. .#.#.#.&.&.*.#.` *.%.,.6.*.7.e.0.0.p.u.m >.%.>.#.*.$.4.<.4.7.5.E 4.4.7.4.3.%.4.>.>.>.,.[ $.O.#...#.X. . .{  . .C E ",
"` F T  .@. . .#.#.*.#.#.*. .` ;.*.7.,.>.7.w.4.e.t.y.A #.#.#.$.#.$.$.$.<.4.>.Y ,.>.$.$.7.,.>.*.#.#.*.H #.#.#.#.X. .X.` '  . .m E ",
"( N )  . . . .#.#.*.*.*.*.| E #.#.*.*.>.,.4.7.0.e.i.A #.$.#.$.O.O.O.%.>.>.$.E *.$.7.>.4.4.4.,.-.#.#.H *.%.#.O.[  . .{ [ { { V P ",
"T m ` +. . . .O.#.&.&.*.#.` ` *.4.>.7.,.8.w.9.4.0.r.C #.#.O... .#.$.>.>.#.$.E ;.4.;.3.9.$.O.*.#.,.#.P #.#.O.#.#.#.} [ ` ` } A I ",
"^ m } | {  . .#.#.#.X.#.*.| ` ,.;.*.,.7.e.7.9.8.9.e.P 4...$.$.$.*.$.#.O.$.<.Y >.w.q.4.,.*.%.$.3.$.>.H >.$.O. ...O...O. .[  .H ^ ",
"- O @ & & O = & + , , 2 w t & 1 8 i m q 1 - & % , , u k H G D Y z z B H B z 6 m m C A H f S G G x B D z i w a a 8 m m f N m m f ",
"Y Q I Y I Y E f ` ^ ` ^ } ' E ` `  . .Y [ #.#.#.*.#.*.,.;.;.>.3.A #.O.#.$.#.O.#.$.$.9.8.I { [ ` ` [ '  . .^ ^ ` D [ ] { } [ { E ",
"Y E ` Q E ` ` j  .}  . . . . . . .#.#.! o.#.#.*.,.*.3.*.,.>.,.3.B O.#.#.#.O.O.#.$.$.7.3.` $.#.[  .$.#.O. . .[  .I ` [ { ` ` ` E ",
"^ ` ` ^ E ` ` m {  . .[ O. .}  . . .#.Y  .#.*.#.$.>.*.,.$.>.3.>.N O.O.' O.$.O.$.$.>.$.>.Y *.*.O.#.$.*.O. .#. .} I ~ { ` ` ' ` E ",
"E ` Y ` E ` ` f  . . . . .o. .o. .} o.A ] ,.>.3.#.*.#.#.#.%.;.,.A $. . .O.#.O.O.$.O.>.$.E O.#.O.#.#.#.#.#. .#.[ P Y ` ` ` Y ` E ",
"^ ` E ^ E ` ` i ` { X. .} { }  .O.{  .A ` %.#.$.%.>.%.#.*.#.*.$.m #. .O.#.O.O.O.O.O.O.$.G #.#.#.#.#.O.#.*.O.#. .P E ` ` Q E ` E ",
"E Y Y Q E ^ E i ` ^ ` { ] } [ [ ] | ] m E #.%.#.*.,.&.o.#.O.#.$.B [  .O. .'  .O.X.o.O.O.H O.#. .O. .#.#. .O. .` H P { ` ` W ` P ",
"Y Y I E Y E E u T ` ` ] ` ^ { [  . .@.k ^ o.#. .O.o.O.#.[ o.#. .z [ ......O. .O.O. .O.O.H O.#.#. . .#.#.$.@.#.} P H ` { E E E I ",
"I T E W ` ^ E 6 ` T _ { ` { [ [ } `  .H Y O.o.#.%.#. .O.#.#. .O.z ..' #...O.O.....[  .$.B Y P E H ^ I F F N N f u u z z j j j i ",
"< * & & & & , & 1 , & & O   O O O = > 6 u z m m B m q m z H H B i f a i a a 2 j f x x f a j i M f z 7 a m M j f z j z f f f v j ",
"A 6 H A P P P P Y Y T ^ ! H T E E W W T E E ! E ` ^ B I ` ! E Y ^ ^ E E ^ [ N E E W Y Y ^ ^ ~  .` ^ P A ^ E P E R P P E T P C i ",
"P u P P P P P U P T Y ^ E B E E E P E E E ` ^ ` [ I C ! ] ^ ' [  .O.} O.[ [ m E W ^ E W ^ ^ Y W W ` P Y E { I P Y T T R P R P z ",
"P p P P D H P T P I P Y E N ^ U E T ^ E ^ ` ^ ` ^ P P ] } ' `  . . .o... .O.f ^ E ^ E ^ ^ / ' / W E C B E Y Y W Q E _ E P R P w ",
"P p H A H P P P H D Y E E z E Y Y E E E E E E ^ ` H U  .} [  .o.o.O.} #.O. .z E E ^ ^ W W ^ W ^ W W M A E Y I E ^ ` E P E H P q ",
"A 1 B A H P G P H I P P E f Y Y F E E E E E E E ` H Y ` {  . .}  .o.#.O. .[ a Y E Y Y W W ~ W Y Y E B j E E Y E ` E R R P P P , ",
"B 3 B H C A H P D Y W P P p P E ^ U E P Y ^ ^ / ` B H ]  .`  .O.O.#.O. .[ O.i Y Y Y Y ^ Y Y Q W I Y m m Q ` ^ Y E Y T T P R Y 6 ",
"A 3 H A B B A P H P Y Y Y u E Y T Y Y ^ / ^ Y Y U z H ] [  .` } #.o.#.o. .[ f ^ W ^ W ^ ^ ^ ^ ^ ^ Q A A ^ ` E E ^ E R Y P P P 5 ",
"D 8 P P P Y I Y E W ` [ ' f Y ^ W E ^ ' ' ^ / ' ' Y m E E E I Y E E ^ Y E E m K W W I W ~ ~ ~ ~ ~ ~ J h J I G G J A B z j z m O ",
": , u i u u i , j j q u u i f z m D M h j G B B B z f i i f f f - p u i f i a a z i i p o q 5 q w q 6 6 i z f z m w f p p u u f ",
"H N A P P T T f Y H Y P W E Y E Y E ^ H D Y E E E E E W W ^ W W z _ U Y ^ E I H H Y Y P u G P H P H H M H A D I D 6 m C Z C m f ",
"A F P P P P P f I H H H I I Y E ^ Y E A A H Y Y E E ^ ^ Y E E K z ^ P E E I Y P Y P E Y i H H B D H P M G H P B M , N A C B N m ",
"A A N J A C P i A D P H P Y Y P E W E B B P Y I Y Y Y E E E W H q E Y Y U E E P Y Y Y E u G H A A D S A B B B D A , m m C m z v ",
"N A A B N C F w A A P P Y I W H Y Y Y a B Y P Y Y ^ ^ E E Y Y E p P Y Y E Y E E Y H P P u B I D G A B B D B M M D , n n m n f m ",
"k m N A A A A 5 C H H P J I Y P H Y H q B P Y I Y Y H W W E J c p Y P R E E Y H E Y H H q M B D B m z x B M B M x , v B m N m f ",
"m P N N C N P 3 m H A H I I H H Y H P p B P Y Y I E Y I Y P G G 6 P Y E P E E E H D H P 6 x B H H G A M M M S M z , f n C A f m ",
"B B C C A F A 5 A H H H D P P P Y Y Y f D I P J I I Y Y W Y E J u U Y I E Y E Y H D P P 6 j F B B z z m m M B B M - A m N C m j ",
"A A P M P U I u S J G H J J Y J H W W z Y W E Y J ^ ~ / ~ ~ / ^ p ^ E E ^ ` ^ ^ / E E ^ k B M B G B B B M B M S M * z N m B m j ",
"z < i 6 u u p 6 u f z z i - f j a a j f i z z x M j i x M x j z z B B B z S q q u q u u i q z z z z f 6 f f f j i f f p u u p < ",
"A 3 m Z Z L P Z C C F P P - A P L H F F F P F P G A B H H B H H Y I G H Y H j A z H A B A J P A D M M i A C N A m N m m j z m 5 ",
"m 1 A F N C A A A A A A A 6 P P C A P L A P P H P m B I U U Y Y Y P I Y E Y m P z M M B B m B A A C m 8 m m N f m m z f f M m 5 ",
"f 3 L A A m Z N N k n P G - L A A F P H P P H H C j S P A J E ^ Y E Y P Y E z B m B D m B H A A A D M q f f j m j j j f m f m u ",
"p 3 C Z m m C C N m n n B & D A H H F B B A B A A f B H P P W ^ Y Y P P T A z B B B M B M S A H A A S 7 B z j f z j f f a u u 7 ",
"f 6 N C n A n N m m m n m - A m B m C C B N A B B z z P H P Y E E E Y U P P z B M m B z A B M M N z j 2 a u u f f f f i f i u 1 ",
"y < f f C C N m f N n f m - m N f m B N N A C A B j z C P A T Y E P I P I H x B B B m B M x z z z j j 0 a j a f u i f f i p f < ",
"y 5 f f f m z p p B B G j & k z z f N C N Z B A N z k P A G E Y Y P P P P P j z M B m A B S B D D x f 7 i m m j f i i i i 6 f - ",
"u 8 f f f k k j p m S D M 7 Z m F A H A H A Y P P j m H Y I A P H I H P E Y j S I G A G I G c S S D B - M z j f j j i f h p i & ",
"6 q u f a B z 7 7 5 q u u q , m M m B f B x x x a e g w a w w i < q u i q q h z z x x j w q q a i a i q q z i a h 7 i z a z i j ",
"f j f S m z m l a a i f f f w M j a h < z z z z z z z f c B z B i z j z M S B S J D B A z i z z N m m z m B z f j 6 C C N m C C ",
"f z z k m f f - i i u i p a u a m z z 2 M B B B B B m A G G H P 7 B B x x S S S B B G H m q z m m m f f m z m m M 6 N V m m m A ",
"f m f m f d m - u i i f i j z M j z z - B N m B B m m N B N D M 6 m B B S B B M D M M M a q M f m m f i j j f z p 8 Z m j m m M ",
"j m z M p i f - i 6 6 f f f z z z i j & j m m f B B H A H N N N < B z j x B M B M B z z a 1 f f f z j f j f f f f u m v N f p m ",
"p p a f f s z , 6 u i i p i a h u i i = z z m f k m f z A A m k - m z x j x j B B B M j f 1 z f j i f z z i i i y 5 d s f d f f ",
"i f f f p f f , 5 u 6 p u p i a i w 5 @ a f B N B f C A m A k m , j i j z j S B x z x j f 6 f f i f j j u f p a u 6 f f f f f z ",
"f p p f p i u , 6 5 a p a u f a q q q @ z f m m B N N A B m m f - f h a a x j z a j h x p 6 f f j u i j u j u u 5 , f f u f p j ",
"p p f i f i f 1 z u a p m f f z f z a - i B m m C A A N z f A k - m z z j x z c h a j j f = f f i u i a i h u u u 2 m f f p f p ",
"6 1 6 6 q 9 6 1 q i i f z q i q q q 7 2 7 , , < 6 & - 6 2 - , , 2 7 6 6 1 2 - ; 2 2 q 7 1 - 1 5 5 5 6 < , 5 , 1 < 0 w i a 8 w 8 ",
"w i f f f j a f 9 i u i f 1 M m B m B m m Z A H M j 7 f j j z m z M h z M j , B B B m m B N N G S m z 2 z h j i h w i i w 8 8 6 ",
"- 2 3 6 u u i u i q i i u , u u u f h a a a f i f i ; i i a z a i i a j x h ; p p 6 h i p u j p u 6 f * u i u i 8 8 8 h t u q u ",
"= 6 u 6 6 6 u q 6 5 j f d & p 6 q i a M u i a q i a 7 u u a j z 6 h h 8 i i @ f i u p a u f f u q u 8 * i f i p 8 u i 8 4 6 4 4 ",
"@ 4 5 6 6 i y f 5 8 q i 6 , u 6 i u a q a z a q w u - i a w w h a z q q q 8 * 6 i q 8 i i p u u i u u * 1 q i u u u u 6 a u 3 1 ",
"O 3 5 5 1 5 6 u 1 6 i i y # 9 1 i q a 6 u q q i q 2 2 6 h j i q 6 a q 6 i u O i 6 a u u u u u i 6 8 5 o 7 4 6 6 6 t u 6 a 6 4 4 ",
"X 6 q 5 5 6 6 u u 6 u 5 6 , 6 u z q w i i q q 6 8 , - 8 8 f i a w u 7 i 7 8 O i 6 q u p j f a 6 p 6 8 . 1 6 5 q u f t t 4 3 3 4 ",
"o 5 u 6 6 q d f u y u 6 u - i z q q q q i 6 a i z w 7 q u i i 6 i q 4 6 6 5 . a 6 w z i i i 6 u u q 8 O 1 8 6 6 t a u i 6 3 3 5 ",
"@ 6 u u u p u u u p d d y , p z f x f i z j p f z 6 w i i i f i 7 i i j z i q u i 7 i i i f i q u 6 8 o 4 8 6 6 r r 7 u 6 6 , 6 ",
"o , , 1 f f p i f f f b B * q i q q a i i j a x h e ; - 7 q a h q i u x c M - q 8 7 h g g g h h j j f . - & , = < > $ & 3 , + $ ",
"h i i i a a w , y i p f u B A m m B m u f i k f f f B m B K G B ; z l q l q w 0 1 q a i w z f a f z l z B B D S B a f f f f f f "
};
