/* XPM */
static char *_10c18d4ed56448ec92551c6fd28cc879MiPAf6vObonQvcJ[] = {
/* columns rows colors chars-per-pixel */
"64 64 256 2 ",
"   c #333634",
".  c #43393C",
"X  c #643928",
"o  c #57463B",
"O  c #6B4B39",
"+  c #784C35",
"@  c #7A4A38",
"#  c #3B3A44",
"$  c #463A47",
"%  c #503C49",
"&  c #484549",
"*  c #574947",
"=  c #5C4C4C",
"-  c #5B524A",
";  c #4A4453",
":  c #584C53",
">  c #4E5457",
",  c #5C5453",
"<  c #59565B",
"1  c #664B46",
"2  c #794C44",
"3  c #68554B",
"4  c #775749",
"5  c #7B544B",
"6  c #634D50",
"7  c #685957",
"8  c #775A55",
"9  c #7A614C",
"0  c #6A635B",
"q  c #7C6354",
"w  c #766559",
"e  c #7B645A",
"r  c #595A64",
"t  c #695D63",
"y  c #7A5D60",
"u  c #596364",
"i  c #696565",
"p  c #766967",
"a  c #7C746C",
"s  c #6F6E73",
"d  c #7C7576",
"f  c #8F4C2C",
"g  c #894C37",
"h  c #954C38",
"j  c #88553A",
"k  c #98563A",
"l  c #AB5232",
"z  c #A4553B",
"x  c #A85939",
"c  c #9F613E",
"v  c #A8623B",
"b  c #BA673B",
"n  c #C76B3F",
"m  c #884E46",
"M  c #954E41",
"N  c #8B5444",
"B  c #875844",
"V  c #83534B",
"C  c #8A564B",
"Z  c #845C4B",
"A  c #8C5B4C",
"S  c #955547",
"D  c #945B45",
"F  c #9C5C44",
"G  c #945C4B",
"H  c #9B5C4B",
"J  c #845C53",
"K  c #875855",
"L  c #8C5C54",
"P  c #945D53",
"I  c #975D55",
"U  c #A35B44",
"Y  c #A75B48",
"T  c #B35E47",
"R  c #A55E54",
"E  c #87634A",
"W  c #8C634D",
"Q  c #93624D",
"!  c #996648",
"~  c #9C644C",
"^  c #826354",
"/  c #8C6354",
"(  c #8B6A54",
")  c #85645B",
"_  c #8B655B",
"`  c #846C5D",
"'  c #8C6A5C",
"]  c #936354",
"[  c #9C6453",
"{  c #936B54",
"}  c #9C6B54",
"|  c #93635B",
" . c #9B655B",
".. c #946C5C",
"X. c #9C6C5C",
"o. c #8B725A",
"O. c #977459",
"+. c #9C725D",
"@. c #A76749",
"#. c #A3634D",
"$. c #AC644B",
"%. c #B46848",
"&. c #AA714D",
"*. c #B6724C",
"=. c #A46453",
"-. c #AB6452",
";. c #A36A54",
":. c #AC6B54",
">. c #A3655B",
",. c #AC665A",
"<. c #A46C5C",
"1. c #AC6B5B",
"2. c #B36C53",
"3. c #B56A57",
"4. c #A87556",
"5. c #A4735C",
"6. c #AB735C",
"7. c #B87657",
"8. c #B3735B",
"9. c #835F60",
"0. c #866864",
"q. c #8C6B62",
"w. c #976765",
"e. c #936B63",
"r. c #9C6C63",
"t. c #857364",
"y. c #8C7363",
"u. c #89786B",
"i. c #947363",
"p. c #977767",
"a. c #9C7464",
"s. c #937A6C",
"d. c #9B7C6B",
"f. c #837B76",
"g. c #8A7C72",
"h. c #977C73",
"j. c #A36E62",
"k. c #AC6B63",
"l. c #B76E65",
"z. c #A27363",
"x. c #AC7564",
"c. c #A37B64",
"v. c #AB7A65",
"b. c #A47C6A",
"n. c #A8796A",
"m. c #B77866",
"M. c #A57D73",
"N. c #C5714F",
"B. c #C5744D",
"V. c #C87A68",
"C. c #7A847C",
"Z. c #B5825D",
"A. c #97836A",
"S. c #9D816C",
"D. c #8B8377",
"F. c #8C8974",
"G. c #938274",
"H. c #9C8374",
"J. c #9C857B",
"K. c #98897A",
"L. c #9C937B",
"P. c #A4826D",
"I. c #AA846B",
"U. c #B68569",
"Y. c #A3906F",
"T. c #A38373",
"R. c #A78776",
"E. c #AC8B73",
"W. c #A48B7C",
"Q. c #AB8C7B",
"!. c #B58A77",
"~. c #A9957A",
"^. c #AB937D",
"/. c #B4937D",
"(. c #B9977A",
"). c #BB937D",
"_. c #B5A07E",
"`. c #C5825F",
"'. c #C28E78",
"]. c #797C86",
"[. c #827B80",
"{. c #888888",
"}. c #998B85",
"|. c #9C9485",
" X c #9B958B",
".X c #838B92",
"XX c #999993",
"oX c #979F9E",
"OX c #A78D83",
"+X c #B38D82",
"@X c #A49383",
"#X c #AB9483",
"$X c #AC9A84",
"%X c #A89688",
"&X c #A49A8C",
"*X c #AC9B8C",
"=X c #B39483",
"-X c #B49B84",
";X c #BA9A84",
":X c #B89588",
">X c #B39C8B",
",X c #BA9D8B",
"<X c #A69B93",
"1X c #B59E93",
"2X c #BC9E92",
"3X c #A9A28B",
"4X c #B4A38C",
"5X c #B9A68A",
"6X c #BCA48C",
"7X c #ACA294",
"8X c #AAA799",
"9X c #B4A393",
"0X c #BCA493",
"qX c #BBAA94",
"wX c #B7A799",
"eX c #B5AB9D",
"rX c #BCAB9B",
"tX c #BBB39C",
"yX c #AAACA4",
"uX c #B9ACA3",
"iX c #BCB3A3",
"pX c #BAB4A7",
"aX c #C49984",
"sX c #C39D8B",
"dX c #C89E93",
"fX c #C2A38C",
"gX c #C8A98D",
"hX c #C3A593",
"jX c #C5A596",
"kX c #C3AB94",
"lX c #CAAC95",
"zX c #C3AC9B",
"xX c #CBAC9C",
"cX c #D2AD97",
"vX c #C4B29D",
"bX c #CBB49D",
"nX c #CAB99C",
"mX c #C7ADA2",
"MX c #C4B3A4",
"NX c #CBB3A4",
"BX c #C5B5AB",
"VX c #C8B9A8",
"CX c #CBBCAC",
"ZX c #D5B8A5",
"AX c #D3BCAB",
"SX c #C6BAB3",
"DX c #D3BDB4",
"FX c #E3BCAE",
"GX c #CBC2AB",
"HX c #D5C4AB",
"JX c #CBC5B6",
"KX c #D5C3B4",
"LX c #D8C7B8",
"PX c #D8D0BC",
"IX c #E0C1B0",
"UX c #D7CFC3",
/* pixels */
"+XR.I.+.+.i.K.w g.g.G.#X/.R.;X,X6XzXpXuXzXlX6X@XA.G.5XL.A.p.H.g.L.^.-X$XK.$XAX7X<X|.L.&XzX#XQ.E.R.#XW.OX=X0X4X@XOX<X7X%X#X>X*XG.",
":.k k F @.S.y.7 p [.f.}.R.Z z.I.I.a.!./.!.I.-X#X4XD.&X|.|.L.&X@XQ./.-X&XCX4X,X:X:X/.bXeXeXuX1XMXK.f.}. XtXqXs.) q.) e 0.' i.8 w ",
"x l k z k I.` w t p i <X=XP x.x.z.z.m.[ G D ' OXtXs t r s &X>Xz.:.7.6.i.,Xz.I.m.m.!.mXa [.s d XX{.s s p 3XtXs.' e.e.q.' _ e.) q ",
"z z z k x c.t.8 7 3 7 9XW. .j.r...i.z.] [ H J s.9X& < > i 7X$X6.7.B.7.d.:X<.=.7.k.n.%Xt < < 7 D.d d s 7 K.vXy.q.p.q.) ^ _ / / ' ",
"k z x x k R.e 3 4 4 8 wXH.J ) q.e.d.X. . .>.4 s.$X< r < 0 |.Y.4.%.b $.d.=X;.7.7.m.n.0X7 i , - K.p p p t a 9Xq.e.0.e.q.' q._ ) e ",
"o.! } m.!.9Xt.t.` 9 3 7XL.>XW.OXs.i.{ z.n.X.t.G.wXs i i , }.J.z.:.*.~ t.W.v.7.m.U.I.0Xi i 7 0 |.D.0 7 0 , rX4 4 q 2 q q e p.e w ",
"_.(.4XQ.:XhX>X$X4X@X*XqXqX4X4X0XJXJXzXwX*X>X*XVXUX}. X X X<XBXOXb.R.>X|.rXE.!.aX/.P.KX8XuXeX&X9XG.u.G.K.|.rX0X-XP.,X6X4X9XQ.$XW.",
"g I 0X..H k #.] E a.z.5.W / d.9X<XyXSXSXSXqX%X*X7XSXCXiXeXiXVXAXzXW.9XBXzXhXZX=XQ.>XuXeXrXjXmXrX9XrX4X$X%X*XK.$X/.U.!.!.Q.E.6Xy.",
"k Q -X! Y x $.$.U -.#.-.:.G Q.>X{.oXXX{.7X~.' ` g.s.p.` u.t.u.H.kX$Xe.e.a.y.LXi.| a._ J _ ..q.t.a K.4X3 w 8 0 #XI.1.-.Y A i.^.^ ",
"$.U !.#.T @.k @.$.$.:.k #.Q W.K.a .X.X.XeXI.L ' ` ' / ' i.0.0.0.xX#X' X...e NXz.]  .j.I | L L a p g.&Xw 0 p p %Xa.#.$.:.N ^ ^.4 ",
"k F /.A Y #.G #.2.$.@.@.@.;.s.K.{..X].C.|.+.Z J ) ' P _ e 8 0.) wX:X{ e.) t.rXz.k.H R I K | K 8 e G.J.w 7 p u.OXr.} F H m G.@X2 ",
"g A 6XS.g B Z <.;.4.Q 4.6.5.4X XC..X}.{.wXQ._ | / / L J ' ) e._ 9XR...q.q.s.rXr.k.[  .] | L / 8 t.G.9X3 3 7 p *XT._ B + 2 W.*X2 ",
"+X@XiXrXhXS.0X,X=XxX0X^.(./.hXqX&X&XeX8XJXpXp.y.' ' s.h.H.y.^ ' *XmXqX>X*X9XKXH.T.=X;X;X;X(.E.R.s.*XMX*XK.J.}.rX9X%XH.d.^ ^.9Xh.",
"J.g.D.|.u.*X|.G.u.g.&XvXkX).).)./.).aX;XxXZXNXVXvXVXKXPXKXVXqX^.HXZXHXHXHXLXHXvXvXlXzXAXZXzXbXkXjXMXNXAXjXjXmXNXbXmX,X,X@X%X7X1X",
"= 0 7 7 i wXg.7 3 7 D.tX/.v.l.m.m.7.N.V.V.l.'./.VX*X+XQ.W.9X6X/.(.U.6.Z.U.U.5./.E./.6X@Xt.D.t.bXW.' p.L X.A / / | a...W.7 : , 1 ",
"8 7 7 i 0 &Xt.7 7 7 f.MX/.;.k.x.m.V.7.7.m.U.3.aXZXe.V.R w.:X=X#.`.N.N.B.B.N.*.k ;.v.kX7 7 t p VXT.e. .I S S P [ m G B h.7 ; # = ",
"B 8 6 7 7 @X8 8 7 6 a BXH. .j.>.k.m.1.3.3.P 7.xXDX| R =.1.#X>Xv B.%.v %.%.*.B.v @.5.bXw t 7 p eX+X>.<.=.I I N H D B B s., : 6 = ",
"D Z 8 8 w 1Xw 3 * * a PX@Xi.x.>.-.=.1.Y $.m.V.dXBXL k.k.m.+X:X$.%.B.b b b b b %.*.5.ZXw 8 8 w 9X+X[ 8.,.=.;.} Q G  . .+X7 * 6 = ",
"E o.q e u.9XL.}.1XeXVXJXCXW.d...] { | X.v.U.U.0XCX0.I e.w.G.mX} @.c 7.c v @.v ! z./.HXw w G.t.MX>X5.6.6.x.c.+.c..._ ..>XK.G.g.0 ",
"K.K.4X@X%XW.s.p.OXJ.s.W.h.OX#X>X*XJ.h.J.zX!./.lXbXkXxXbXxXiXVXkX6XlXAXLXZXZXZXFXFXAXlXqXNXVXVXbXbX6X~.^.>X6X,X,X>X0XkXgXkX,XkX6X",
"p w 4XY.z.r.| | _ a.e.a.r.e.s.rXu.p 6 = >X!.{ v.6.U.!.I.!.T.O.Q.zXG.0 p p K.hXX.x.x.z.n.v.5.z.X.] R.vX@Xg.G.u.*XVX=X6.@.@.U F D ",
"7 w 0XS.L w.P m A | ] r.K 9.H.wX* 6 7 : 1XaXx.l.7.*.8.~ 6.5.x.n.mXe 1 7 i F.(.;.5.8.j.;.#.D =.1.>.z.qXe 1 3 7 |.GXb.#.T Y x x F ",
"7 7 $X^ L w. .P [ ] C C P J K.BX. % & : 8X!.2.3.2.%.#.~ #.;.! O.VX3 q 7 0 |.).1.x.2.[ ,.=.#.#.=.,.6.>X7 3 1 7 t.MX6.2.T x v x h ",
"7 6 1X5 I w.| | | z.z.x.X.X.@XBX= % . . 8XfX%.2.%.%.~ D $.8.~ 5.lXq 9 q p 7X).l.m.%.F =.I [ ~ @.8.6.-X1 1 1 6 p jX6.$.T x x l k ",
"* * rXW.Q.>X>XR.S.S.T.T.Y.~.4XwX@X*X<X<XSXAX4.} 4.} Y.S.W { r.d.NXJ.0 p p pX#X<.v.4.;.X.z.e.' 4 ] z.0X8 1 o * g.MXW B G S g D D ",
"9X6XgXfX;XvXW.(.(.,X;XlXvX4X-X>X>X>XwXBXpXAXkX5XVXCXVXMXbXAXHXGXPXJXDXCXKXLX4XE.d.A.E.,XQ.Q.T.u.s.E.kX;X-X$X9XwX5XsX,X2X2XQ.-X^.",
"x.:.7.:.[ fXE.Q ;.;.} sX#X0.0.) 0.q.q.' G.u.u.VX&Xp a u.G.qXI.E.!.!.!.v.U.'.).'.!.HXIXlX!.m.).qXQ.E.i.M.-XlXa.b.E.U.;X-XK.@X%XH.",
"z U #.S <.(.5.H D N ] qXK...) q ' X.X...' e.| wXG.5 5 ^ K.wXG #.-.[ =.3.T Y #.,.z.nXU.8.6.3.'.,Xa.v.:.8.sX6Xx.H ~ 1.I.S.| 4 1 4 ",
"z U g G ] ~.i.Q ] { [ aXQ.| L L X.>.] P P  .| >XG.3 ) ` G.mXQ k ~ ;.#.$.:.8.F :.<.;X~ =.:.3.!.sXx.m.V.m.!.kX>.~ ! F P.o./ ) q 4 ",
"k -.:.Y >.dXz.H M I [ R.R.^ / Z _ L Z / V L W $Xg.1 p a u.rX#.$.$.k Y T -.@.:.:.=.!.,.m.[ m.U.).m.m.8.m.=X6X>.D ~ Y I.y.) ) ) 4 ",
"@ !.(.P.^.NXs.o.d.( 4 d.H.` q q ` ) ' i.` ) ^ zXt.3 w u.w rXR 3.2.Y R $.-.F ! ;.z.-Xj.x.X.5.P.Q.v.v.6.v.Q.0XX.{ G G !.A.` ) ^ q ",
"0XvXVX$X4X9X$X4X4X>X/.,XjXjX;X-X0XjXZXZXZXwX%XVX%Xs.G.G.t.1X..5.v.aXcXgXaX).6X;XsX4Xe.M.#XQ.9X0X#X$X-XlXCXzX;XY.} +.=XH.^ ^ ` ^.",
"g.D.0XA N g G I R >. .X.r.n.x.lXhXa.>.>.a.bXzX>X=X=X^.^.W.>X0X-XlXlX~.s.s.hX/./.Q.W.+XR.W.T.s.J.W.3X4X@XK.t.=X9XI.U.b.Q.:X:X=XR.",
"* 3 4XB g j k h f k G M S [ F 0X2X~ P 1.>.fX6.Q Q ] ] 2 Z Z Z qX=X+.} ] ..0X..X.......r.L r.| ] ..^.G.p p 0.8 3XP.j F G / 4 W W ",
"o = $XB h g k h F g g H H #.#.hXR.G B j @ fX} ~ ~ G B Z E Z W kXT.Q Q Q { -XW =.G S H H C P S H I -Xt.7 7 7 3 9Xc.g h F D N k f ",
"* = *XB g g M M h M g h $.Y H jX_ @ @ G X.fX[ G #.H G G D N B xX( Q Q B ( -XQ H S U U R  . .S h S ^.e 8 8 0 0.^.I.g h k x k h f ",
"3 1 K.B g j N H M g g k H =.X.kXT.' ..| Z sX..A G [ =.G D Q / ZXi.A @ @ 9 5XW G A S S G ] / ] N C H.3 4 e 0 q ~.c.+ + h k j g f ",
"e G.L.' Z o.d.i.T.o.o.^ o.S.=XwXhX>XrXrXDXNXNX,X;Xb.P.O.O.O.E.AXS.W E o.^.qX^ ] ' / / / 5 3 ^ ' ^ %X` 8 q u.R.$XlXaXn.X.O.o.a.I.",
"W.^.$X/.+.~.$X#X0X1X9X9X4X*X=X=XQ.>X#X>X=X>XhXxXCXcXgXgXnXkX6X9XqX>X1XW.K.G.T.!.=XrXvX0X1X>X>X9XkXsX6X;X0X,XaX'.;X!.U.!.hX(.E.;X",
"O O O O j 6XW.i.h.h.h.#XkXd.a.a.a.a.r.z.a.n.n.c.NXU.&.U.5.P.kXo.Z |  .I I  .z.j.z.d.vXy.y.` s.@X(.8.U -.-.=.2.%.2.@.2.~ 6Xa.[ <.",
"X j j j ! sX+Xr.p.e.r.:XhXr.j.X.X.z.z.z.n.j.x.z.LXU.B.7.&.Z.lX} 1.:.#.Q G >.1.3.1.z.xXi.a.o.4 R.U.v v k x f k x v %.%.k lXX.[ ,.",
"+ j g g k sXT...a.w.| R.hXz.j.z.X.a.j.j.j.z.x.n.NX6.*.*.7.7.(.=.2.$.@.~ X.<.8.3.1.<.sX..{ O.4 p.6.x v v v k x %.x l l k fX5.,.R ",
"j j + k j ;X#X5 e.e.L ,X>X+.z...] / ] z.+.n.n.a.KX4.4.&.7.4./.=.:.2.T -.>.C A >.>.a.2Xi.{ ( Z H.O.k z l l l z z l x x j kXa.-.-.",
"O + W j ! 6XjX,Xh.h.R.NX9XO.d.=X=X=XI.b.E...W P.VXE.{ W } } lX>.=.} ..Q.G.9XbX/.=X0X1Xt.o.i.' W.(.a.+.c.! +.(.(.} k f B 5XE S Y ",
"~.4X~.=X;XQ.;XjXzXLXAXAXCXCXCXJXpXtXnXxXMXjXlXAXKXHXZXHXVXCXKXVXAXCXBXJXJXJXUXUXDXLXKXLXKXLXNXCXBXSXSXJXVXJXSXBXrX6X=XfX/.d.P.T.",
"7 p wXP./ ] G F ;.I.).dXhXjXAXSXi d f.<XyXuXI.M.R.I.U.'.cXgXsXjXKXNXa.' ` >XLX0X!.!.!.).!.!.sXsXhXxXUX<Xf.a d f.VXT.b.n.E.b.a.a.",
"s > iXp.>.>.,.1.S g =.,.:.m.kX8X< < r t yXhXx.m.1.8.2.2.8.m.7.2.sX2XW W ' y.CX-X1.=.1.:.8.2.:.:.:.I.KX{.7 r & & iXp.A C A C C V ",
"u > tXa.>.k.k.>.[ >.1.-.Y 3.S.D.& ; : 6 qXU.x.3.3.2.2.2.6.6.T %.).1XE E 9 3 VXL.~ #.#.:.:.2.%.2.$.m.mX[.< ; $ & <X' C P C m L K ",
"> < 3X..R k.x.=.H #.S R R U ,Xg.& < 7 7 VX8.x.2.T 2.2.:.#.;.$.%.'.Q.] { ..^ 8XOX;.;.3.-.$.z T %.2.8.xXd & . $ * <X' | A V m C K ",
"< > &X..N @ G G [ z.b.V G [ jXt.7 : < i JX/.X.:.2.&.F ~ ;.<.#.@.).=X .[ ]  .DX2X>.Y T $.Y $.Y F F @.xX0 * * 7 7 }.) | I I [ | J ",
"{.p XX0X=X#XfX0XzX0X9X>X~.fXtXK.D.XX<X7XPXLXmXjXxXhXbXbXZXjXgXcXAXeXd.a...' JXUXKX6XbXVXvXzX-XvX6X(.AX7X}. X<X&XiXH.y.T.M.p.p.W.",
"*XrXuXzX0X7XD.f.D.D.8XeXY.E.b.)././.lX4X^.#X0XBXpXXX8XyXyXpX8X7X&X&X@X9XjXNX9XiXrXJXSX<X<XpXiXrXcXgXkX^.=XmXNXjXlX;X5XiXyX X X&X",
".._ J | y.&X= , 3 4 %XSX!.~ $.T %.$.@.;.+.....wX X> > & # pXi * = 6 1 0.e. . .>.j.LX0.0.w.K uXcXV.7.U.'.:.:.:.&.*.&.,X X, r i a ",
"@ X + m M.J.1 1 1 8 %XSXU.N.@.k k f k U H H [ 4Xa & r # $ 7Xi < 7 * 8 8 A A { [ i.pX3 w p p F.6X7.@.m.3.%.$.%.B.n b sX X= < : 7 ",
"N 2 4 g e.u.1 1 1 * K.GXZ.b *.f z Y h j } ~ | BXd #   # . 8Xi u & - 3 O Z B E H a.*XJ 0.p y D.sX8.U.8.-.2.4.-.Y l l :X}.o : , - ",
"5 4 4 @ i.K.1 * = = |.HX4.B.b l k h h z F D S 0Xp $ # # : pXu u : = - 4 A ] ] ;.n.ZX8 8 8 8 g.xX6.5.X.~ &.@.@.Y l x +X<X* * 6 = ",
"1 1 3 V i.t.3 3 * 7 a tXgX&.l %.h h j B E 4 4 iX0 & & . , eX7 7 - e f.*X#Xd.d.d.T.tXt.J.BXBX8XCXd.S.i.a.a.{ ( ..[ } zXyX- & - - ",
" X}.@XT.#XwXmXwX9XwXBXKXAXzX0XhX-X~.^.kX>X9XzXGXGX@X3XBXDXUXMX8XiXpXJXJXJXHXNXzX0XwX@X%XNX*XeXKXKXVXLXDXKXSXCXHXlXZXVXuX*X1X*X9X",
"{.<X9X' ) w h.u.3 3 4 ) h.H.BXH.i.o.a.b...a.T.R.a.P.GX%X8 3 f.oXs s : i pX%XK _ J J L V V L q.q.}.uXp i i i BX%Xr.j.M.T...a.r.z.",
"& a @XK K e 0.8 J J ^ _ | p.,X>.,.:.@.;.~ H G ;.;.6.vX8 8 o D.XX> r < >  Xp.P K V K K m m C L L e.pX0 < i i pX^.=.=.<.<.z.=.H >.",
"& f.%XK L 8 5 1 2 J ' _ Z P./.;.:.;.7.7.@.U D :.! Q 0X8 2 O g.&X: ; & r <Xh.K K K V V @ @ m V C ..pXp i i s  X^.=.=.~ [ D D ~ G ",
", 8Xh.8 4 1 1 4 1 1 O O 5 s.c.=.#.#.2.2.2.$.&.@.k ! vX4 8 o p  X, , = , %Xh.K L K 2 5 5 m m 2 m V uXp a p , |.=X=. .G S m D G G ",
" XpXg.4 4 1 u.e *X1Xt.q 4 *X!.<.1.;.4.~ 4.8.#.c @.Q GXw 3 o 7  X- 7 - - }.OX5 4 8 5 1 5 5 2 5 4 ) rXf.p 0 f.uXT.G P P G m N G P ",
"uXiX%Xs.g.*XVXrXiXMXrXzXMXiXR.X.I.!.c.(.(.(.aX'.(.gXtX&X|.@X@XL.F.K.7XtXtXrX1X0XmXNXMX0X0XjX0XNXCXJXpXiXSXJXJX%XL V A L C A C A "
};
