/* XPM */
static char *_cfe30e613dc40eef434e22574e73155f3fJZnJNboigL2sV[] = {
/* columns rows colors chars-per-pixel */
"64 64 136 2 ",
"   c #CA8F4E",
".  c #C99052",
"X  c #CE985C",
"o  c #DA9F58",
"O  c #E1A35D",
"+  c #C69663",
"@  c #CC9B65",
"#  c #CA9E6C",
"$  c #D49F66",
"%  c #D19D68",
"&  c #CA9F71",
"*  c #CEA26E",
"=  c #D6A564",
"-  c #D8A460",
";  c #D3A16D",
":  c #D8A86B",
">  c #CDA574",
",  c #CFA87A",
"<  c #D3A674",
"1  c #DAA772",
"2  c #D3AA76",
"3  c #DBAC74",
"4  c #D4AC7C",
"5  c #DBAE7B",
"6  c #D6B17E",
"7  c #DCB17E",
"8  c #E5A663",
"9  c #E9A766",
"0  c #E6A966",
"q  c #E8AA65",
"w  c #E5AC6B",
"e  c #E9AD6C",
"r  c #EAB06F",
"t  c #E5AE72",
"y  c #EAAF71",
"u  c #E5B275",
"i  c #ECB374",
"p  c #E4B47B",
"a  c #ECB67A",
"s  c #EDB97D",
"d  c #F0B577",
"f  c #F1B77A",
"g  c #F1BA7E",
"h  c #D9AF80",
"j  c #D8AF89",
"k  c #D5B385",
"l  c #DAB484",
"z  c #D9B887",
"x  c #D6B58A",
"c  c #DAB68A",
"v  c #D6B88D",
"b  c #DBB98D",
"n  c #D7B790",
"m  c #D6BA90",
"M  c #DCBD93",
"N  c #DDBE99",
"B  c #E1B683",
"V  c #E5BA84",
"C  c #EEBD82",
"Z  c #E2BB8B",
"A  c #EDBF8A",
"S  c #F2BE83",
"D  c #F2BF88",
"F  c #E0BE91",
"G  c #DDC096",
"H  c #DDC29B",
"J  c #EEC087",
"K  c #E7C18B",
"L  c #EEC28B",
"P  c #F2C186",
"I  c #F3C48C",
"U  c #F8C38D",
"Y  c #F4C88F",
"T  c #E4C295",
"R  c #EDC493",
"E  c #EECA95",
"W  c #E2C59B",
"Q  c #EBC69A",
"!  c #E3C99E",
"~  c #ECCB9C",
"^  c #F3C791",
"/  c #F8C690",
"(  c #F4CA94",
")  c #F8CA95",
"_  c #F5CD99",
"`  c #F6CD99",
"'  c #F4CD9A",
"]  c #F5CF9D",
"[  c #F7CF9D",
"{  c #F9CE9B",
"}  c #F5D09B",
"|  c #F5D19E",
" . c #F7D29F",
".. c #F9D19F",
"X. c #DEC6A1",
"o. c #DEC8A3",
"O. c #E0C7A5",
"+. c #E3CAA3",
"@. c #ECCCA1",
"#. c #F4CFA1",
"$. c #EFD1A2",
"%. c #F5D2A0",
"&. c #F6D2A2",
"*. c #F6D3A3",
"=. c #F1D3A4",
"-. c #F7D4A4",
";. c #F4D5A7",
":. c #F9D1A1",
">. c #F8D3A2",
",. c #F8D4A3",
"<. c #F9D4A4",
"1. c #FAD5A6",
"2. c #F8D6A6",
"3. c #F7D8A7",
"4. c #F9D9A7",
"5. c #F6D6A8",
"6. c #F9D7A9",
"7. c #FAD7A8",
"8. c #F7D9A9",
"9. c #F8D8A8",
"0. c #FAD9AB",
"q. c #F9DAAD",
"w. c #FADBAE",
"e. c #FCDBAD",
"r. c #FBDDAF",
"t. c #FCDCAF",
"y. c #FADBB1",
"u. c #F9DCB1",
"i. c #FBDDB2",
"p. c #FCDCB0",
"a. c #FCE0B5",
"s. c #FCE3B9",
"d. c #FCE3BA",
"f. c #FBE7C1",
"g. c #FDE9C4",
"h. c #FDEBC8",
/* pixels */
"C C L ( I w 2.M I I ) 5.>.f g I M &.&.u.M a I P T 9.9.2.K >.y.u.M w.w.9.c ( ..] M 2.I P l 5.) ) M ` ( ^ c &.I 8.c s a ` l ( ( L ",
"C C I ( I e ,.b I I ) 5.2.g g I M >.&.w.M d I I ! 9.9. .V ` 2.w.M w.w.-.k ] ] ` M -.I P l  .I ` M ` ( ( x 9.L 8.k s u ( l ` ( I ",
"s C ^ ` I e 2.b I I ) -.2.g g I M >. .w.M a I I ! r.9.` V `  .-.M w.w.9.c ` &.` M 9.I P l ` ( 5.M  .( ` c -.I 5.z J C  .l ( ` I ",
"u a I ` I e 6.b ( ( ( =.6.g g I b ) ..e.M i I I ! t.9.` J ( &.w.M w.w.w.k ] &...M 9.I P b 2.] a.b ] ( ( k &.L 8.b J I 2.l ( } I ",
"i a I  .p 0 2.b ) ( I $.6.g f ^ b ` 2.p.M a I I ! 6.9. .A ( ` 9.M r.6.9.c ] ,.] M 2.I P M &.-.s.k ] ^ L b 2.L 8.b C ( &.l I &.( ",
"s C I  .s e 2.M ) ) I @.2.g g ( M >.>.9.M a I I ! 6.9...( ( ] 9.M t.w.9.c &.&.] c ~ I P M &.2.d.M ] ) I M 2.L 9.b C ( &.7 I  .) ",
"C P I  .I e 2.M ` ( I ~ 2.S g ) b >.&.9.N a I I +.w.9. .( I ` w.M w.p.w.c  .>...v ` I I M @.2.a.b ] ) ( c 9.L 9.b C ` -.B I ( ( ",
"C C L ] I i 9.b ( ( I ~ 6.s S / b >.&.2.M a S I +.9.9.,.` I ` w.G w.p.u.M ] >.2.k ` I I b -.9.d.M ] ` ( c w.L 9.b s ` 8.V ( ` ( ",
"s C I ` I i 6.b ( I ( ~ 2.f S I c ..,.&.N a I I ! w.9.>.` / ` e.M w.p.u.M  ...] b >.^ / b 9.5.d.b ]  .( c w.R 9.b s L 8.V ( ) ( ",
"s C I ` I r 2.c ^ s I @.6.g S I c ..2.2.N u I S X.9.9.,.` ( ` 9.H w.p.u.M >.{ ) c ,.( I M w.5.d.M  . .` b 9.( 8.b a C 2.V ( ( ( ",
"s s P ( I i >.c I a P @.6.S I P c ..2.9.N t I S X.e.w.2.] ( { 9.M p.t.w.b ] { / c ,.( I M 9.w.d.M  .] ) b 9.( 9.b w u &.B ( ) ( ",
"C C C ( I a &.M s y I ~ 6.S I I b ..2.6.M p I C H t.w.,.` I ) 2.M p.w.-.l ` ..) c ,.( I b -.r.d.c ` ` I b 5.( 5.l - u  .B ( I L ",
"S C S ` L i 2.l s f I ` 6.C I ( M >.#.6.N I I D H u.t.2.` I I 2.M w.6.] c ` { / c >.( I b -.u.d.c ` ` ^ b 5.` 9.b s C  .B ) I I ",
"S S S ] C e -.l S g ( ~ -.g P ) b ..&.>.H ( I C H 9.t.` I I ( { b &.e.6.b ) { I c 2.` S l 8.p.d.c ) ` I b E ` 9.T C I ` l ( I I ",
"I P S ` C e 2.b S S ) Q { i S ( c ] 2.` N I I C H >.e.&.( I ) I b 6.w.6.M ^ ) I x { ) a b w.r.s.M (  .` b &.` 2.! L L ` l I I ^ ",
"I I I ] C r 2.b S I ) Q >.e S ) M >.2.w.H ( P L H 9.6.6.] I ( ..M p.e.p.M ` { I b >.( s b p.u.s.M ` &.` M 6...6.! ^ ( ` l ( ` ( ",
"I I P  .C a ,.b P I ) T 6.w S ) M 2.6.p.H ( P C H w.w.2.` I ) ..M p.w.r.M ` { S M 2./ S z a.a.s.H ` &.` M -. .2.H ( ( ( Z ^ ` ( ",
"I P S ` C a 2.b S S ) Z 2.e I { M ,.9.w.H ^ I C H w.w.9.] / ( ..M p.p.p.M ` { I M 2.I I c s.u.g.H ` &.` M &.>.9.H ^ C ` Z ( ( ( ",
"g S I  .C a >.b a a I Z >.e I { M &.e.w.H ^ I S H u.r.9.] / ) >.F w.e.u.G ( ) I M >.P P c s.u.h.H ` 2...b &.>.w.G I a >.Z ( ` ) ",
"C s I &.C i 2.c g i I Z ] w I ] M ` 9.w.H / I C H p.t.-.] ( ) >.T p.>.u.T ` ] / M ` s I b u.u.g.H `  .] M ] ,.9.H I I 9.b ` ` ( ",
"s s I  .C d 2.M S i S l ] y ) ] M ..9.u.H I I C H p.e.-.] ( / >.T e.) s.H ` >.) b ] C L c w.r.f.H ` ` ` G -.2.9.H I ) 9.b `  .) ",
"a a P ` C f 2.l S e g 7 ` i ) ..M  .9.u.W I I P o.a.w.9.] / ) 2.T 2.) a.M ( ..` M &.( I c w.w.g.H ..] ` M -.9.-.H I ( 2.b ` &.) ",
"s s S ) C i 2.l g i S 5 ) d U ..M 2.6.a.H I P I X.a.r.2.] I ) 2.W { I u.M ( ] ) M 6.) / 6 5.r.h.H ` ] ` M 5.9.-.H I ) &.Z ` -.` ",
"i a S ` I y 2.c g a S p I i P ] M >.2.u.H I I I X.s.u.&.#.I ) 2.! >.( u.b ) { ^ M 6.) I k &.8.h.H .. .I M 8.9.-.H P ` &.l ` 6.` ",
"i a P ( I i 2.c g a S B S i D ] b -.2.u.H I I I H s.u.5.#.I ) 2.@.e.9.s.b ` { / M 2.) I l  .5.g.H  . .` M 8.9.-.H C ( &.b  .5. .",
"a a P E I i 6.c S g S 7 S y I ` b 2.&.u.H S I s H a.u.-.&./ ) >.+.p.p.s.b ^ ] ) c 6.) I l ..-.g.H &.] ] M 8.9.-.c s J ] b &.5. .",
"a a I E I i 2.c S S S 5 g i I  .M 9.2.u.H C P C H a.u.=.&.( ) ..@.w.p.d.M R ` ) b 6.( I l ..8.f.H &.&.] M 5.8.5.c ( ( ] M &.5. .",
"i a S  ./ e 6.c S P g 7 g a U >.M w.2.w.M a S s H a.u.=.] ( ) { ~ u.p.s.M ^ ) ) x 2.^ I l 2.8.h.H >. .` M &.9.5.M / `  .F &.-. .",
"s s C  .I e 6.b S I g 5 g g / >.M w.2.w.k a I I H p.p.&.] / ( ` ~ p.t.s.G ( ) ` c 2.( I c 2.-.h.H >.] ` b &.6.8.M I ` &.M  .&. .",
"a s C  .I w 2.b g P f 3 S S ) >.M w.2.9.k S I ) N u.w.2.] / ) { @.t.u.s.M ( ) ` x 2.( I b 2.] h.H >.] { c  .6.9.M I ` -.b  .&. .",
"S s S ` I e 9.b g S g 3 S S { &.M 9.2.9.4 C I ( M u.p.6.] I ) ..@.w.e.s.M ) ) ` M ,.( ( b 2.` h.H { ] ` c &.-.2.H L  .9.F  .]  .",
"s g P ( I 0 6.M S g g 3 S I { &.M w.2.9.> I I I M a.w.w.] I { >.@.w.p.s.H ( ` ` M >.) ( b 2.&.g.H ( ` ` c &.-.-.H ) &.w.M ] ( ] ",
"C S I ` I r 6.c S S S 5 d S ..-.M 6.2.w.> I I D N u.w.9.] I { >.@.e.p.u.H ) ( ) v &.( ) c 9.2.a.H ( ..` c  .-.&.H ) &.9.b ` ) ` ",
"S S I  .I e 6.k S S g 3 g S ..&.M 2.2.9.2 I I I M u.w.9.] I { >.@.e.p.s.H ^ ` ( b ..I ) l 9.9.u.H ^  .` l ] -.&.H ) &.5.b  .) ] ",
"C S I >.I i 6.c S S S 5 P S { ] b 2.2.w.4 I I ^ H p.w.9.` I ) ] @.e.t.s.N I ` ) c  .I I < >.&.s.X.L ] ` l ` -.-.H ` ` -.b &.(  .",
"C S S  .( i 2.b S S s 5 a S ..` F { 2.6.; I S ) H p.w.9.` I ) ` ~ e.t.s.H C ..( x ..I I > ` u.s.X.I ] ` 6 ` &.-.H ( ( &.b &.) &.",
"s S i  .I i 2.b S S S 5 i S ( ` Z ..6.2.< I P ( G p.w.2.R P ) ` ~ w.e.s.G a ] I x  .I / 2  .s.s.o.S ` ` 6 ` -.9.H ) ` ` b  .( &.",
"C S i >.A i ,.l g s C h i S { { c >.6.] < I I ) G y.w.2.( S ) ` Q w.e.a.M i >.( b >./ ( 2 ` s.s.o.I ` ) 6 ` &.-.H `  .>.c (  .&.",
"P S y &.a g { l a a a 5 e w ) ( l 2.w.) l I I I G 9.w...R S ` ) T w.w.w.H i >.S b ../ I k &.` ] M I ` ^ 6 ( ] ~ H ` ] 4.l I ) -.",
"C S 8 ` i a E l i f s 5 8 8 ( I 4 2.w.^ c I I I M 6.w. .L P { ) Q 9.e.-.& i S ) b ) I I v p.>.>.H I ) ) b ` -.2.H ` ` 8.c I ) 9.",
"S S e ` u f ` c f g S 5 0 9 { S b 6.w.>.b S I I T 9.w.] R I { ) Q e.e.w.4 S I ) x ) / I M u.&.] H ) ) ( b )  .-.X.) ) w.c ( ( &.",
"S C a ` a g ` b g f I 7 w f ) s F 6.r.2.j J I I W w.e.&.L P { ( Q w.e.8.4 I ( ` x / ) I b r.,. .H ` ` ^ c (  .-.O.) ) 8.l ( ( ] ",
"i S i ] C S ` b g g U p e S / i T 9.u.6.x P I C ! w.w.2.R P ) I T w.w.w.c S ( ) x I ) ^ v u.2.&.M ( ` I b ) ) -.O.( ( -.b ( ( ] ",
"a C e ` C g ] b g S I 3 e S I s T 2.p.6.M I I C W u.r.9.E I ) C Z 9.9.u.c S I I x A ( ) c a.2.,.M (  .^ c ( ( -.X.I ( &.b ( ) &.",
"S C e ` A S ` b f g S 3 w I ( S M 9.u.6.M S s I H u.w.2.R I ( C T 9.9.9.l P I I c L ( ) c a.&.,.m )  .( b ( ) -.H C I  .c ( ( ~ ",
"C C i ( L s ] M a g S 3 e I ) S G w.p.w.N s a I H u.w.-.R P ) ) T >.9.w.l S I I b ( ) ( c u.,.>.b ( ` ) b ) ) &.! L I ] b ( (  .",
"C s i ( L s { b g P S u y I ) I H w.p.p.N s P I H p.r.9.^ I ` ) Q ..6.9.4 C I I b ` ( ( b r.] &.M ( ` ( b ` ) E X.` (  .l ( ( ] ",
"S s a Y ) g ) b g I S p y I { ( N 9.t.p.H S P I H a.u.t.R I ( ` Q >.9.2.> s I ( M ] ( I b t.)  .M (  .( b ` ( ) H ] ( -.l ( ( ] ",
"S C a V ) g I l S I S u y I >.` H 9.e.t.H S S C H u.u.w.L / / { Q >.9.&.* g I I M ) ^ I x w.) &.k ^ ` ) b ) ) ` G ` ( 2.c ( ( ] ",
"a C a V ^ f D 4 S P P p i I >.( H 9.9.t.H S S C ! u.u.y.I I ( ] R >.9.&.< s I ( M ( ^ ^ x w.) ] l ^ ` ) b ) ) ` M ) ^ ` b ( ` &.",
"a s r u ) a S * g S S p a / ..] H 9.w.w.H I P S ! u.u.a.I I ( ] Q >.6.2.< s I ( M ( ( I n p.`  .l C ` ( b ` ( ` M I ( ` Z ( ( &.",
"s s O : ( a e @ g g S V a I { >.H w.w.u.H P I s ! u.u.a.^ I ( ..E 2.2.9.4 S I ^ M ` ( L M p...-.k s ` ( K ` ( ` T I I ( V ` ) &.",
"s s O = ( i e @ g S S V t i ) } H w.w.w.M P P C T p.u.u.( I ( ] E 9.2.w.4 P I ( M ` ^ L M u.` >.2 L ` ^ T ( ( ` b I I L Z ` (  .",
"a S e 3 ` i i ; g g g C i S )  .H e.w.t.x S S S W p.t.y.( I I ` Q e.6.9.4 I I ( M ` L L M u.` &.2 I ~ ^ E ` ( ` b I L ( T } ( ` ",
"a S f 3 ` a q ; f g s C t S ) ] H w.6.w.4 f S C W u.w.y.R I I ` ~ w.2.9.1 S I ( M ) L I N u. .] , I  .( ( ` ( ) Z I I ( ~ ` ( ( ",
"i s a 1 ^ r e l f S S s t S ) ` H w./ w.1 y S P W u.w.u.E I I ) R w.] -.< P I ) M ) I I H w. .>.< ( ` I ( ( ` ) T I I ( R ( ( ( ",
"i a a 1 R e S c g S S a w C I ` H w.( >.X w g I T p.w.p.T I I ` ^ >.{ 2.; S I ( b ( I I N 9.2.-.> I ` I ) ` ] ` Z L ^ ` R ( ( ` ",
"i a i 3 ` y s b g S S i w S I ) H &.I `   8 i I @.p.6.p.T S I ) R ) ) >.1 S I I M ) I ( H 6.&.5.> ^ ` I / ( ) ` V C ( } ( ( ( ` ",
"r a r 5 ` i I b s g P a t C I ( H ] I ) . e e P Q &.&.w.T C I ) I ) I >.5 s P I b ) I ( M ] &.2.> ^ ( I I ( ` ( p s ( -.} ( ( ` ",
"0 a e 1 ` e I b g s S a y S I ( M e.) {   9 i S Q ) ..w.T a I / I { I ] l S P I b ( I ) N >. .` # I ) I ^ ) ] ( p C ( 3.} ( ( ` ",
"0 e e ; ) 0 ^ b f g S s t S P ( M e.( -.$ e f g Q  .>.9.b a I I I >.) ) 2 P P I b ( I ( M  .] ( + S I ( ` ` ] ( t s I 2.` ( ( ` ",
"q 8 q @ ) e ) b a a S C e S P I H -.I 2.% 8 d g T >.>.e.b s I I / 6.` ) 4 S C I b ( I ( M ] &.L + i P ( I ` ` ` u L L &.( ( ` ] ",
"w w w @ ) 0 I M a a S P e S S ) M 2.S >.; 0 i a R >.` w.b I ( I ^ 6.( ) l S P I b L I I c ,. .) # e u I I ) ^ ] C Y ( ] ( ( ` ] ",
"8 8 o @ ( O C b a a S S e S S ) H ` S 2.1 i i g E ,.` r.c I / I ^ 6.` ) c C S I c L I L c &. .( > P s I I ^ E -.^ ( I ] ( ( `  ."
};
