/* XPM */
static char *_37bd96b232f45cad51b150b104d1be53HWmamKQQCxGOpy8[] = {
/* columns rows colors chars-per-pixel */
"64 64 207 2 ",
"   c #5C341F",
".  c #64381F",
"X  c #5E3421",
"o  c #5A3625",
"O  c #623621",
"+  c #653A23",
"@  c #6B3D23",
"#  c #643E2B",
"$  c #693F2B",
"%  c #703F24",
"&  c #6E4125",
"*  c #65402E",
"=  c #6B432D",
"-  c #714125",
";  c #7F4827",
":  c #76432A",
">  c #7A462D",
",  c #7D492E",
"<  c #674231",
"1  c #6C4433",
"2  c #6F4935",
"3  c #6F493B",
"4  c #724633",
"5  c #724934",
"6  c #7C4B33",
"7  c #754B3A",
"8  c #7A4D3B",
"9  c #76503D",
"0  c #7E513D",
"q  c #744C40",
"w  c #745647",
"e  c #7B5343",
"r  c #755C52",
"t  c #796055",
"y  c #7B645A",
"u  c #834C2C",
"i  c #894E2C",
"p  c #89502F",
"a  c #834D32",
"s  c #8B4E35",
"d  c #814F3C",
"f  c #884F38",
"g  c #865133",
"h  c #8E5137",
"j  c #83533D",
"k  c #8C543B",
"l  c #8C593E",
"z  c #925236",
"x  c #9C5436",
"c  c #975C37",
"v  c #9D5D36",
"b  c #94563B",
"n  c #9A573B",
"m  c #945A3D",
"M  c #9C5B3C",
"N  c #AC542D",
"B  c #B5592E",
"V  c #BB5D2F",
"C  c #A35734",
"Z  c #AC5731",
"A  c #A55A35",
"S  c #AA5B35",
"D  c #A25D3C",
"F  c #AB5E3B",
"G  c #B35B33",
"H  c #BC5E32",
"J  c #B25F38",
"K  c #97603F",
"L  c #A56336",
"P  c #A96337",
"I  c #A4633C",
"U  c #AB643B",
"Y  c #A7693F",
"T  c #AC693C",
"R  c #B46037",
"E  c #BB6136",
"W  c #B3643C",
"Q  c #BA663C",
"!  c #B36A3D",
"~  c #BB6B3E",
"^  c #C26436",
"/  c #C66638",
"(  c #C36C3C",
")  c #CB6D3C",
"_  c #C5703E",
"`  c #D3723F",
"'  c #855642",
"]  c #8A5642",
"[  c #875A44",
"{  c #8C5A43",
"}  c #84594A",
"|  c #8D5D49",
" . c #915743",
".. c #985740",
"X. c #925C44",
"o. c #9B5D43",
"O. c #945E4A",
"+. c #9C5F49",
"@. c #A15E42",
"#. c #A15F48",
"$. c #8E6047",
"%. c #956246",
"&. c #9C6245",
"*. c #9D6947",
"=. c #95614B",
"-. c #9C644B",
";. c #9E6A4B",
":. c #826A5E",
">. c #9D6552",
",. c #9E6953",
"<. c #98685D",
"1. c #A36444",
"2. c #AB6543",
"3. c #A56946",
"4. c #AB6945",
"5. c #A3664A",
"6. c #AB6649",
"7. c #A36B4C",
"8. c #AC6C4B",
"9. c #B36643",
"0. c #BA6742",
"q. c #B46C43",
"w. c #BB6C43",
"e. c #B0674A",
"r. c #B36D4B",
"t. c #BB6E4A",
"y. c #A5704E",
"u. c #AE714C",
"i. c #B67145",
"p. c #BC7344",
"a. c #BE7847",
"s. c #B4724C",
"d. c #BB734C",
"f. c #BD794C",
"g. c #A06751",
"h. c #A46B52",
"j. c #AC6D52",
"k. c #A36E5B",
"l. c #A96E58",
"z. c #B26E51",
"x. c #A37151",
"c. c #AD7154",
"v. c #AD725A",
"b. c #B47353",
"n. c #BA7652",
"m. c #B77957",
"M. c #BD7A54",
"N. c #B37459",
"B. c #BA7659",
"V. c #B7785B",
"C. c #BD7B59",
"Z. c #826C61",
"A. c #B57861",
"S. c #C26E43",
"D. c #CA6E41",
"F. c #C06F49",
"G. c #C47344",
"H. c #CB7444",
"J. c #C47946",
"K. c #CB7A46",
"L. c #C2744B",
"P. c #CB7648",
"I. c #C57A4D",
"U. c #C9794B",
"Y. c #CB7C4C",
"T. c #CD7D4E",
"R. c #D37543",
"E. c #D87747",
"W. c #D47B47",
"Q. c #D27D4A",
"!. c #DA7C4B",
"~. c #C37651",
"^. c #C37C53",
"/. c #CA7E52",
"(. c #C27E5A",
"). c #D17F50",
"_. c #BF805C",
"`. c #CD814D",
"'. c #D3834D",
"]. c #D9864D",
"[. c #D7894F",
"{. c #DB894E",
"}. c #C48156",
"|. c #CC8254",
" X c #CC8956",
".X c #C5825A",
"XX c #CB835A",
"oX c #CD8C5C",
"OX c #D38452",
"+X c #D58551",
"@X c #D98652",
"#X c #D58A54",
"$X c #DB8B54",
"%X c #D1865C",
"&X c #D48D5C",
"*X c #DA8E5A",
"=X c #D6915B",
"-X c #DC915C",
";X c #E08D56",
":X c #E18D58",
">X c #E09056",
",X c #E19159",
"<X c #D68E62",
"1X c #CE9062",
"2X c #D59465",
"3X c #DC9362",
"4X c #E09764",
/* pixels */
"# 1 e } -.o.3.q.o.N.h.b.(.C.<Xb.k.|.T.U.z.5.M 6.o.-.o.i.s.3.m k [ [ =.,.,.h.7.r.5.v.V.b.(.XX|.b.<.u.U.OX8.5.2.6.5.X. .6.I 6 a + ",
"* 2 e } ;.&.5.8.o.v.5.b.M.m.&XV.k.^.T.U.8.r.U t.1.5.b p.i.&.m l [ j =.k.,.l.7.r.4.N.m.b.n.(.&Xb.<.8.U.OX5.r.9.9.9.o.o.Y T 6 u O ",
"< 7 e ' -.&.&.8.o.j.5.j.n.n.&Xb.h.^.T.U.j.r.U G.1.+...p.i.&.h l | [ =.k.-.j.5.r.5.j.n.8.b.M.<Xb.>.u.U.OX5.e.q.w.q.+.o.Y Y 6 > @ ",
"< 7 7 ' 7.-.&.e.o.8.7.b.n.s.%Xj.g.^.T.Y.8.8.D U.6.#...i.i.o.M l { ' =.k.7.v.5.r.3.c.s.j.m.C.}.8.>.u.U.OX7.r.w.G.q.-...Y T 6 a @ ",
"1 9 7 ' ;.-.o.e.&.b.8.b.M.6.^.j.h.^./.U.b.8.I L.4.5.b q.q.m h m O.' =.g.h.l.5.r.6.n.n.b.m.b.C.8.>.s.U.OX4.o.w.L.q.5.b M Y , > @ ",
"3 7 7 ' ;.-.o.q.o.n.7.m.n.5.r.l.h.^./.U.b.r.2.d.2.e.k i.q.M M m O.' >.>.h.7.3.q.4.n.M.B.C.N.8.5.>.s.^.OX8.b.q.w.q.#.b c T , a & ",
"1 5 7 ] 7.-.o.q.o.M.7.(.(.z.|.j.l.^.|.J.b.(.6.L.2.6.b i.p.M I m | j >.>.7.j.8.q.4.M.n.C.(.C.|.6.>.s./.#Xr.n.w.L.w.6...I T , a & ",
"1 5 7 ' ;.5.m 2.&.}.1.C.M.m.&Xb.h.^.|.U.M.M.2.S.2.e.b p.a.M M k { ' -.>.7.j.8.2.5..Xn.C.C.C.&X5.>.s./.OXr.M.w.w.d.6.o.Y T , u @ ",
"< 5 7 [ 7.7.o.6.&.oX3.B.(.M.&XV.l.^.|.J.n.n.2.S.2.t.@.a.a.I z k %.' -.h.7.v.7.6.4.oXn.C.C.M.3X5.l.s.Y.OXs.n.w.0.t.2.o.P T , > @ ",
"1 2 7 ' ;.5.&.8.&.oX7.m..XM.<XV.v.^.|.U.M.M.U S.2.r.@.a.p.M h l { ' -.g.;.c.7.8.8.oXn.b.C.M.3X5.l.s.|.OXs.(.w.S.w.6.@.I T u : @ ",
"1 2 5 ' 7.-.&.8.5.2X7.m.^.(.&XB.v.(.T.U.d.^.9.P.D t.1.q.p.M z m { ' ,.>.;.b.5.z.c.oXb.b.^.M.&X5.l.b.Y.OXr.^.w.H.9.6.@.P ! u > @ ",
"< 5 7 j ;.3.&.j.-.2X7.C.^.(.&XB.l.^.OXT.d.d.9.H.D r.@.q.p.I m l X.' >.>.;.m.7.j.N.oXn.b.^.C.3X8.v.c.U.`.r.~.G.H.w.9.@.T T , , - ",
"1 2 5 j *.3.&.7.7.1X8.m.^.(.3XV.v.^.OX|.d.I.! H.D t.o.q.p.2.k [ O.[ -.g.;.B.7.b.N.&Xn.b.^.C.3X8.A.u.U.T.4.I.G.H.0.r.2.T T , , + ",
"1 5 8 j *.5.=.h.h.oX4.(.(..X3XN.N.^.OX`.d.U.W P.x t.@.q.a.2.m j %.' -.-.;.C.g.b.b.oXn.C.(.C.2X8.v.u.|.U.r.Y.w.P.9.9.1.Y T u > + ",
"5 2 7 d ;.7.=.l.x.oX4.C.(.C.<XV.j.^.OX`.d.G.A W.x t.M q.p.2.X.j &.' -.-.7.C.g.b.b. Xn.(.(.C.<Xj.N.8.OXY.e.I.Q P.9.9.@.M T , > + ",
"5 5 7 d ;.7.=.h.h..X8..X(.(.3XB.h.^.#XT.d.G.F D.D t.o.q.i.3.f 8 %.' -.-.h.C.h.j.b.}.n..XXXC.3X8.j.8.OXT.r.L.W D.F t.@.I T , > + ",
"5 5 7 j ;.8.=.v.5.}.8.(.^.(.3XN.h.|.*XU.L.J.U H.D ~.b q.i.o.b 8 ;.{ -.-.x.C.h.j.b.oXr.C.|.(.3Xj.N.u.OXOXr.L.W D.9.9.@.D U > : O ",
"5 7 7 d ;.8.O.h.-.^.b.C.^.^.3XB.h.XX-XU.L.'.S W.F L...q.f.&.h j *.[ -.-.h.C.j.b.b.oXb.m.}.^.3Xb.V.s.$XOXs.T.w.!.w.q.o.M U , > + ",
"5 7 5 d 7.7.>.5.7.M.b.b.^.^.-XB.8.XX#XU.I.'.W !.F t.n p.a.1.b j ;.[ -.-.x.C.l.N.b.}.n.b.^.(.4Xb.C.d.*X#Xt.Y.S.!.w.2.o.M T , > @ ",
"5 5 4 8 ;.h.-.-.7.M.s.m.^./.-Xb.m.%X$XY./.T.W E.F ~.M p.a.I M l 7.{ O.-.h.b.l.j.b.M.^.B./.(.3Xb.C.d.*XOXw.Q.W E.w.9.M M T u u % ",
"5 5 4 8 ;.c.O.&.7.^.r.n./.|.3Xm.C.|.$XQ.L.T.W E.U L.b i.a.U M m ;.[ O.O.h.m.g.h.n.^..Xm.}.^.4Xb.C.s.OXT.p.'.Q R.Q q.M I T g , - ",
"1 4 1 7 ;.c.{ 5.*.}.8.M.|.|.-XC.(.OX$XQ.P.'.W E.W L.o.s.a.U M l ;.l O.O.7.b.>.h.s.^.^.n.|.^.-Xs.m.s.$XY.G.@Xw.E.Q d.M I T u > - ",
"1 = 2 8 x.8.] 1.3.^.s.^.OX|.*X(.n.|.$XY.P.@XW E.F L.z s.p.U v k ;.j X.O.7.C.,.4.8.^.M.n.|.I.*Xs.M.s.$XK.L.@XS.R.R L.D M i.u u @ ",
"1 = 1 7 x.7.' &.3.M.d.^.|.|.*XM.M.T.{.H.Y.@XW D.S L.m i.p.P M 0 &.l { O.7.m.>.5.8.^.f.~.|.I.$Xs.C.r.$XK.G.'.J.R.J t.M I T u u X ",
"5 < < 7 x.8.k o.&.d.s.^./.`.*Xd.d.U.].G.Y.@Xw.` S t.o.q.p.U M 7 %.l ' | 7..X-.-.4.d.I.^.|.U.$Xq.(.r.@XH.G.'.G.R.R w.M I T u p   ",
"= # # q ;.8.k o.X.d.r.I.Y.`.*XL.L.U.].~ Y.].Q ) A r.M w.p.U I 8 %.j j ] ;.}.&.&.3.d.^.I./.Y.$Xs.(.U ].G.G.].K.) R 2.M I U ; u   ",
"= o $ 3 ;.8.l o.m d.4.I.Y.|.-XI.I.Y.].( P.Q.Q ^ A r.b p.w.U I 6 %.0 d ' ;.M.o.1.3.s.^.I./.U.$Xs.^.4.].G.G.'.H.^ G 9.b I L u u O ",
"= # # 1 ;.8.l .. .s.q.I.I.|.*XU.I.J.]._ P.Q.Q H A r.s q.p.U D 6 X.l d ' x.M.&.1.&.r.I.I.T.Y.*Xs.d.U ]._ G.].H.V Z U h c L u u O ",
"= = # 1 ;.u.l o.l r.q.Y./.|.$XY.L.U.]._ K.'.W H A 9.s q.p.U v j [ l j | ;.M.-.1.&.s.I.I.Y.`.-Xs.p.! ].( G.'.H.B Z D h c P u u . ",
"# # 4 1 *.u. .o.m d.s.Y.|.OX$XU.p.Y.'._ H.].W B S 2.s p.a.U A j { l ] | ;.M.-.@.&.s.I.I.L.Y.*Xq.L.! {.( w.W.H.G J 2.h v U u u + ",
"# + 4 1 *.s. .1.m s.s.I.^.`.$XU.p.Y.].( K.$XS B C 9.a p.p.P v a [ k X.' ;.M.&.1.1.r.|.I.U.'.$Xw.L.q.$X( ~ Q.G.N S 2.s v U u u . ",
"# # 6 1 *.s.m M m q.i.|.I.`.$XY.L.T.{.( Y.:XW G Z w.s p.p.P v k { j &.' 7.M.&.1.&.r.Y.I.U.'.$Xw.p.q.].( ~ Q.G.N W 2.h v P u i . ",
"* # 6 1 *.s.m D b r.s.^.U.`.$XY.p.Y.{.( Q.$XR B S 9.b p.p.I v k ] [ -.{ 7.^.-.2.&.e.I./.U.'.$Xp.L.q.].( w.'.S.G W 9.z v U u u + ",
"# # 6 < *.s.o.1.l r.r.^.J.`.$XY.w.`.{.( Q.;XW G Z 9.b q.p.P A k ' $.X.{ 7.^.5.6.&.r.I./.Y.'.>Xd.U.q.].( ~ '.G.N Q q.z U T u u @ ",
"# # 4 2 ;.s.-.@.l r.q.Y.U.`.$XY.p.T.{.( Q.$XQ E S t.s p.p.U I k ] [  .] x.}.5.8.X.s.I./.U.'.;Xa.I.p.$XH.G.@XJ.G R w.z T ! u u @ ",
"# # 4 4 7.8.5.5. .d.s./.U.Y.$XU.L.T.].( Y.@XQ H S L.z a.a.U I { { [ { X.7..X7.8.&.r./.U.I.'.;Xw.L.p.$XH.G.$XH.Q Q t.z T ! u u @ ",
"* * 4 8 7.8.-.6.&.M.d./.^.`.$X/./.T.$XS.T.'.~ ^ Q t.b U.G.! D X.=.[ ] O.;..X7.r.h.d.^.|.^.OX,Xp.q.s.$XH.L.;XH.( ( q.M 4.U u p : ",
"= # 1 7 7.4.&.6.&.r.s.|.^.Y.,XU./.U.$XH.).OX( H R F.b p.G.U D l X.j ' { ;..X7.r.4.d.^./.^.#X,Xp.t.s.].( G.$XH.^ G 9.M Y P u i - ",
"1 # 1 4 7.6.-.5.&.s.s.|./.`.,XI./.U.$XH.T.OXS./ S w.z p.p.U I j X.j ' { ;.}.5.r.8.r.^.|.I.OX$Xd.d.p.].( p.'.G.^ G 9.v T P i i + ",
"= # 2 4 7.3.5.5.3.n.8././.I.,Xd.d.T.$XG.OX+X~ ) S 9.b p.q.U I j &.j ' { ;.^.-.8.8.r..X^./.OX$Xd.L.i.{.( w.Q.H.) E 9.D ! A u u + ",
"5 = < 7 7.6.o.5.3.d.r./.I.U.-Xt.r.T.].w.Q.].G.` S w.n q.p.I M 0 *.%.] { 7.M.-.5.8.n.^.^./.OX$Xd.d.q.'.G.w.Q.H.R.Q F v T U u u o ",
"5 4 < 7 ;.3. .5.3.d.r.^.I.I.$Xe.e.U.'.p.U.OX~ R.A L.b q.p.M m 8 -.%.] O.;.n.-.5.8.M.M.^./.`.#Xt.d.q.].H.w.U.p.R.Q 9.M T T u p o ",
"5 1 1 8 ;.5.] 7.3.d.s.^.U.L.$Xr.r.Y.+XL.J.'.Q ( C L.h q.p.I m j *.{ X.O.;.b.O.6.b.^.d.M./.T.'.r.s.i.].K.w.Y.w.H.W w.M T U u a # ",
"1 1 4 8 *.7.X.-.3.f.8.d./.I.$Xe.r.Y.#XJ.G.T.U H.F L.z q.p.2.M [ ;.l X.O.7.b.X.8.c.M.d.s.Y.U.#Xr.s.q.].J.w.'.W H.W w.M P L u a $ ",
"5 4 1 7 *.&.=.5.3.I.6.M./.I.$X8.n.I.'.H.G.Y.U R.F L.b q.p.2.m l ;.l O.O.7.b.X.8.b.d.^.n.^./.$Xr.s.q.#XG.! U.U H.R 9.b I L u 6 & ",
"5 5 1 8 *.-.-.o.3.f.2.n.I.I.$X8.n.I.].U.L.J.F R.F L.s w.a.I M l ;.{ O.O.7.b.X.5.b.f.^.s.I./.$Xr.s.q.OXU.9.L.S ) W 2.b I L g g @ ",
"5 4 4 8 ;.;.&.o.8.f.3.s.L.d.$X6.n.|.].U.L.J.W R.D t.h i.a.v M k ;.{ O.O.7.n.5.h.8.f.^.n.^./.$Xr.s.i.+XU.W J.Z H.W 2.b D L g , + ",
"w 5 5 0 ;.7.-.1.3.f.6.s.d.s.*X8.j.I.].J.G.U.W E.x q.k s.f.v z k &.{ -.&.y.B.7.j.s.I.M.n.^./.-Xb.b.s.$XY.9.J.W E.W 2.z v P a > O ",
":.5 5 d ;.7.&.4.3.f.8.M.^.f.*Xj.7.Y.[.G.G.J.S R.x t.l i.p.b z j %.[ -.-.y.M.g.8.s. Xd.M./.|.-Xb.c.s.#XQ.9.U.U R.W q.b I Y a :   ",
"t 5 7 j ;.8.&.8.7.^.s.}.^.d.*Xj.7.Y.$XG.L.~ U S.v L.l q.i.m s j *.{ 5.-.7.C.,.8.b. Xs.}.|.|.-Xb.N.8.'.Q.U p.A ( F 9.M Y Y 6 % X ",
":.1 7 j ;.7.-.4.u.|.4.XX^.n.&Xb.8.I.].U.w.p.P ) x t.b q.p.D h j %.[ &.-.x._.-.8.n.|.f.XX|.XX&Xn.N.8.'.Y.U ~ A ( S 9.M Y 3.u : O ",
"Z.1 8 ' 7.7.-.8.s.#X6.^.}.n.3Xv.8.I.].Y.d.G.S R.x t.m q.a.1.b k &.[ -.-.7..X-.b.n. X^..X}.XX&Xn.V.r.'.K.2.J.U ) W 2.M 2.Y a : O ",
"y 1 7 [ *.3.*.8.u.&X4.^.|.B.3Xj.b.L.].'.L.U.W P.x d.o.p.a.I m k %.[ 7.5.7.C.-.m.n.&X^..X^.XX3XC.b.s.'.U.q.G.Q D.W U 1.Y U g , O ",
"r 2 8 ' *.6.3.8.u.=X6.^.|.M.3Xj.b.I.].'.L.G.! H.D r.n p.a.D b k %.{ -.h.h.M.7.m.b.-X^.n.|.XX3XC.V.s.Y.K.q.L.! H.9.2.@.Y T a > + ",
"t 5 e [ 7.6.1.r.8.=X8.^./.M.*Xb.b.I.'.'.L.L.Q H.1.r.M p.a.M M m { [ g.5.;.m.3.n.b.-XM.M.|.XX3XC.b.d.Y.Y.q.d.Q H.W 2.1.U T a > % ",
"r 2 8 [ 7.3.1.r.8.3X6.^./.M.-Xb.b.I.'.K.L.I.~ H.1.r.D G.a.M b X.X.| h.5.7.b.3.n.b.=Xd.(.Y.|.-Xb.b.f.'.'.r.I.W ( W 2.1.P T g > @ ",
"r 7 0 { 7.8.1.q.8.-X4.^.|.M.-Xn.b.I.'.K.^.f.! G.4.r.M J.I.M h m %.[ 5.g.7.b.3.t.r.*X^.(.^.XX3X8.b.f.'.].r.~.W ~ 9.6.D U T u : @ ",
"w 9 8 { 3.4.I q.6.&X4.^.|.M.-Xb.j.I.'.K.^.L.w.S.2.t.M G.J.M M l =.X.g.h.7.b.6.q.e.#X^.^.^.XX3X8.j.f.'.].r.d.W Q w.2.M T P u > + ",
"w 7 7 ] 3.7.I 9.6.|.2.|.^.n.$Xr.b.U.'.K.^.I.U L.I r.b p.J.M I m X.{ g.g.7.s.4.w.2.|.^.|.^.XX*X8.5.f.'.].r.L.! ~ w.2.M T T a u @ ",
"t 5 8 { 7.3.D w.6.^.6.|.|.r.OX8.b.I.OXH.d.L.2.G.U e.h p.a.m U m O.{ g.g.u.8.6.p.4.^.^.}.}.}.OXr.7.f.T.{.r.L.W S.w.2.b U T a u @ ",
"t 1 8 [ 3.3.1.w.4.I.s.^.^.@.d.8.j.Y.OXK.d.r.q.w.2.6.h a.p.m M M =.X.-.7.c.u.2.p.q.^.^.^.}.n.r.r.5.i.T.{.8.r.U w.W M b v P a , & ",
"r 5 7 { 7.7.&.w.4.d.u.d.|.8.OX8.j.Y.'.K.d.8.U H.U 6.b p.p.m m K %.{ -.h.8.b.3.L.4.d.^.M.^.^./.r.h.i.Y.{.6.1.q.G.W o.M I I , > @ ",
"y 4 8 [ 7.3.3.w.3.s.c.M.I.s.$Xr.j.Y.'.K.s.q.U P.U 1.M a.a.M M m | X.-.l.7.b.3.L.2.s.d.n.d.|.$Xs.h.i.Y.{.4.r.! G.W o.M U P , u @ ",
"y 4 0 [ 3.3.3.q.6.b.4.d.^.d.$Xb.v.Y.'.K.r.d.U H.D 5.M J.a.o.b X.=.X.-.l.7.b.3.d.6.n.M.s.L./.-Xn.h.i.K.].6.w.U Q ! ..n U P a : + "
};
