/* XPM */
static char *_e3dbde5dfc44ab4cc6388cc26342f14PX3Vm31dQhiIzz6r[] = {
/* columns rows colors chars-per-pixel */
"64 64 118 2 ",
"   c #573D27",
".  c #5A3C27",
"X  c #573D2A",
"o  c #593D29",
"O  c #603F2A",
"+  c #5E412B",
"@  c #624027",
"#  c #63442D",
"$  c #69472F",
"%  c #66482F",
"&  c #69492F",
"*  c #654631",
"=  c #654832",
"-  c #6C4C33",
";  c #704E35",
":  c #6E523A",
">  c #735036",
",  c #7B5537",
"<  c #7F5837",
"1  c #76553B",
"2  c #79563A",
"3  c #7D593C",
"4  c #65574F",
"5  c #6B5949",
"6  c #755742",
"7  c #755943",
"8  c #7D5C43",
"9  c #745E52",
"0  c #7C614D",
"q  c #726157",
"w  c #7D6452",
"e  c #71655B",
"r  c #79675B",
"t  c #6D6764",
"y  c #6C6C6D",
"u  c #706660",
"i  c #736C66",
"p  c #7F6B61",
"a  c #7F726D",
"s  c #825C3E",
"d  c #87603E",
"f  c #845E41",
"g  c #895F41",
"h  c #856143",
"j  c #8B6344",
"k  c #8E6846",
"l  c #83624B",
"z  c #8E6749",
"x  c #8E694A",
"c  c #916746",
"v  c #926946",
"b  c #9A6B46",
"n  c #916748",
"m  c #966C4A",
"M  c #986C4A",
"N  c #9D714E",
"B  c #866A56",
"V  c #936E50",
"C  c #8C735F",
"Z  c #9C7251",
"A  c #92735C",
"S  c #9A785E",
"D  c #A1734E",
"F  c #A07350",
"G  c #A37652",
"H  c #A47754",
"J  c #A87753",
"K  c #A57955",
"L  c #A77D55",
"P  c #A97B57",
"I  c #AC7B55",
"U  c #A87D57",
"Y  c #AF7E56",
"T  c #A67B58",
"R  c #AC7D59",
"E  c #AD7F5A",
"W  c #B07F57",
"Q  c #B27F58",
"!  c #816F62",
"~  c #827063",
"^  c #82756C",
"/  c #84786F",
"(  c #907464",
")  c #807871",
"_  c #8B7E77",
"`  c #867E7A",
"'  c #8C7E78",
"]  c #AD7F60",
"[  c #A8805D",
"{  c #AF805D",
"}  c #B48157",
"|  c #B0805A",
" . c #B2835E",
".. c #B4835C",
"X. c #B3845D",
"o. c #B7865F",
"O. c #BA8559",
"+. c #BB855A",
"@. c #B9855D",
"#. c #BB855D",
"$. c #87817A",
"%. c #85817F",
"&. c #88827E",
"*. c #8B847F",
"=. c #AC8060",
"-. c #B68660",
";. c #B98660",
":. c #878683",
">. c #878787",
",. c #898582",
"<. c #8B8683",
"1. c #898786",
"2. c #878886",
"3. c #898884",
"4. c #888689",
"5. c #868888",
"6. c #81898F",
"7. c #84888C",
/* pixels */
"@.@.@.@.N m m m m m m m f 2 2 2 2 2 2 2 v +.o.@.| m m m m m m m m 2 2 2 2 2 2 2 2 # o o o - 2 2 2 2 2 2 2 v +.o.@.I 1 , 1 s o.@.",
"@.@.@.@.N m m m m m m m f 2 2 2 2 2 2 2 v +.o.@.| m m m m m m m m 2 2 2 2 2 2 2 2 # o o o - 2 2 2 2 2 2 2 v +.o.@.I 1 , 1 s o.@.",
"o.o.o.;.N m m m m m m m f 2 2 2 2 2 2 2 m o.@.@.Q m m M V b m m m 2 2 2 2 , 2 2 2 # . . o - 2 2 2 2 2 2 2 m @.@.@.Y 2 2 1 s @.@.",
"s s s s m b b m > # # # ; 2 2 2 2 2 2 2 h M M M A ,.:.*.` + # # # 2 2 2 2 [  ...X.N v v x f 2 2 2 N  . . .P M M M k + . o + = = ",
"1 1 1 2 v M M m - X o   - 2 2 2 2 2 2 2 f m m b A >.5.>.%.o o o o 2 2 2 , | +.+.+.D b M m f 2 2 2 N @.@.+.Y m m m j   o o o X o ",
", , , 2 v m m m - . o   ; 2 2 2 2 2 2 2 f M m m A 1.,.2.%.. o o . 2 2 2 ,  .+.@.o.F m b m h 2 2 2 Z -.-.o.P m m m j   . o . o o ",
"1 1 1 2 v m m m - . o o - 2 2 2 2 1 1 2 f m m m A 6.1.5.$.X o o . 2 1 1 2 { @.o.-.F m M m f 2 2 2 N @.@.@.Y M M m j X o o     o ",
"Y Y Y E g s 3 3 2 > > > = # # # k Y Y Y Z s 3 3 8 0 l w 0 > > > > W Y Y E c j j j s s s 3 2 2 2 2 2 > > > > - - - 8 L P I H > > ",
"@.@.@.@.s 2 2 2 2 , 2 2 = o o o v @.@.@.G 2 2 2 1 2 2 2 2 2 2 2 , @.@.@.@.s 2 2 2 2 2 2 2 2 2 2 2 = o o o o o . . 3 +.-.+. .2 2 ",
"@.@.@.@.f , 1 2 2 2 2 2 = o o o m @.@.@.G 2 2 2 2 2 1 2 2 1 2 2 2 @.@.@.o.f 2 2 2 2 2 2 2 2 2 2 2 = o o . .   . o 2 @.@.@.{ 2 2 ",
"@.@.@.+.f , 2 2 2 2 2 2 % o o o m @.@.@.G 2 2 1 2 2 2 2 2 2 2 2 2 @.@.@.@.s 2 2 3 2 2 2 2 2 2 2 2 = o o . . o o X 2 +.@.@. ., 2 ",
"D D D D r u t e S Y P P j > > > k D F D z * # # = 2 2 1 s E E E E F F D F v v c n s 2 2 2 h v n c s > > > h K K J G D F F N 2 2 ",
"m m m m i y y y ] @.@.@.m 2 2 2 j m m m f o o o # 2 2 1 s o.@.@.@.m m m m m m m m s 2 2 2 k b b b j 2 2 2 v +.@.@.| m m m v 2 2 ",
"m m m m i y y y ] @.@.@.m 2 2 2 j m m m f o o o # 2 2 1 s o.@.@.@.m m m m m m m m s 2 2 2 k b b b j 2 2 2 v +.o.@.| m m m v 2 2 ",
"m m m m i y y y E @.@.@.m 2 2 2 j m m m f o o o # 2 2 1 s @.@.@.@.m m m m m m m m s 2 2 2 k b b b j 2 2 2 v +.o.@.| m m m v 2 2 ",
"m m m m 0 9 9 9 Z G G G G G G G c > > > 3 s f f s 2 2 2 3 m m m m m m M m 2 > > > 2 2 2 2 w p p p w 2 2 2 j G F G M > > 2 > 2 2 ",
"m m m m 3 2 2 2 z m m m Y @.@.@.m o o o 2 M m m z 2 2 2 2 2 2 2 2 m m m m # o . . > 2 1 2 e y y y q 2 2 2 f m m m j o .   + 2 2 ",
"m m m m 3 2 2 2 z m m m Y @.@.@.v o o o > b m m z 2 2 2 2 2 2 2 2 m m m m # o o o > 2 2 2 e y y y q 2 2 2 f m m m j o . o + 2 2 ",
"M M M m 3 2 2 2 k m m M E @.@.@.m o o o > m m m k 2 2 2 2 2 2 2 2 m m m m # o . . > 2 2 2 e y y y q 2 2 2 f m m m j o .   + 2 2 ",
"j j j j ; = = - k m b b G P J J k - - - 8 m m m k - = = = = = = = 3 3 3 3 - - = - > 2 2 , 5 4 4 4 7 2 2 2 s j j j f = = - > Z Z ",
"2 2 2 2 + o o X j m b b b m m m j 2 2 2 f M m m j X   o o o o o o o o o o 1 2 2 2 2 2 2 , $ o o o = 2 2 2 2 2 2 2 2 2 2 2 s o.@.",
"2 2 2 2 + o . o j M b b b m m m j 2 2 2 h m m m j o   o o o o o o . . . . > 2 2 2 2 2 2 2 = o o o = 2 2 2 2 2 2 2 2 2 2 2 s -.o.",
"2 2 2 2 + o o . j b m m m m m m j 2 2 2 s M m b j . o o o o o o o o o o o 2 2 2 2 2 2 2 2 = o o o = 2 2 2 2 2 2 2 2 2 2 2 s @.@.",
"M M M N ; - = = f j j j j j j j B ! ~ ~ B j j j f & = - - z z x z z z z z 3 2 2 2 n Z M N n z z z f 2 2 2 3 h j h f 2 2 2 s P P ",
"+.+.+.o.s 2 2 2 2 2 2 2 2 2 2 2 ^ >.>.>./ 2 1 2 2 2 2 2 s o.@.@.@.@.@.@.@.s 2 2 2 E @.@.+.@.@.@.@.N 2 2 2 f m b M v 2 2 2 3 m m ",
"-.-.-.o.s 2 , 2 2 2 2 2 2 2 2 2 ^ ,.3.>./ , 2 2 2 2 , 2 s @.-.-.-.@.@.@.@.s 2 2 2 Y @.@.@.@.@.@.@.N 2 2 2 f m m m z 2 , 2 3 b m ",
"@.@.@.@.s 2 2 2 2 1 1 1 1 2 2 2 a 7.7.7.) 2 2 2 2 2 2 2 s @.@.@.@.+.+.+.@.s 2 , 2 I +.+.+.+.+.@.+.N 2 2 2 g b M M k 2 2 1 3 m m ",
"K K K T s 2 2 2 k v v v v v v v ( ' ' _ C s f s s 2 2 2 s K K K K E E Y E 2 : ; : F E Y Y Y Y Y E m 2 2 2 f c z k j f s f h m m ",
"2 2 2 2 2 2 2 2 P @.@.@.@.@.@.@.P b b m m M m M n 2 2 2 2 2 2 2 2 m m m m #   .   j m m m m m m m j 2 2 2 2 2 2 2 s m M m m M m ",
"2 2 2 2 2 2 2 1 I @.@.@.@.@.@.@.P m m m m m m m z 2 2 2 2 2 2 2 2 m m m m # o . o j m m m m m m m j 2 2 2 2 2 2 2 s m m m m m m ",
"2 2 2 2 2 2 2 1 Y @.@.@.@.@.@.@.P m m m m m m m z 2 2 2 2 2 2 2 2 M m m m # o . X j m m m m m m m j 2 2 2 2 2 2 2 s m m m m m m ",
"s s s s 2 2 2 2 F Y Y Y Q Q Q | F c c c v m m m z 2 2 2 2 > > > > v c c k > - - - k m m m v c c c f 2 2 2 2 2 2 2 3 j j j k c c ",
"m m m m 3 2 2 2 2 2 2 2 k m m m j 2 2 2 f m m m z 2 2 2 > o o o . 2 2 2 2 m m m m m m m m f 2 2 2 2 2 2 2 2 2 2 2 > . o   + 2 2 ",
"m m m m 3 2 2 2 2 2 2 2 k m m m j 2 2 2 f m m m z 2 2 2 > o o o o 2 2 2 2 v m m m m m m m f 2 2 2 2 2 2 2 2 2 2 2 > o o   + 2 2 ",
"m m m m 3 2 2 2 2 2 2 2 k m m m j 2 2 2 f m m m z 2 2 2 > o o o o 2 2 2 2 v m m m m m m m f 2 2 2 2 2 2 2 2 2 2 2 > o o o + 2 2 ",
"m m m v s 3 s 3 2 > > > j m m m h 2 2 2 s k k k h > > > > + + + + 2 2 2 , v v v m m m v v s 2 2 2 3 h h h h h h h 3 + # + # 3 3 ",
"2 2 2 2 n m M m - o o o - 2 2 2 2 2 2 2 - . . . . o o o @ 2 2 2 2 2 2 2 2 2 2 2 2 2 2 2 2 2 2 2 2 N @.@.o.o.o.o.-.P 2 2 2 3 M m ",
"2 2 2 2 v b M m - o o o ; 2 2 2 2 2 2 2 - X o o o o o o + 2 2 2 2 2 2 2 2 2 2 2 2 2 2 2 2 2 2 2 2 N @.@.@.@.@.@.+.I 2 2 2 3 M m ",
"2 2 2 2 v M m m - . . o - 2 2 2 2 2 2 2 - o o . . o o o + 2 2 2 2 2 2 2 2 2 2 2 2 2 2 2 2 2 2 2 2 N @.@.@.@.@.@.@.Y 2 2 2 3 m m ",
"2 2 2 2 v m m m - . . . ; 3 3 3 3 3 3 3 > . o o + # # # # 2 2 2 2 2 2 2 2 3 3 3 3 3 3 3 3 2 2 2 2 N o.o.o.o.o.o.+.I 7 7 3 8 m m ",
"2 2 2 2 v m m m s 2 2 2 K @.@.@.@.@.@.@.K 2 2 2 j o.@.@.o.M m m m . . . . =.@.@.@.@.@.o.-.h . . . 3 m m m m m m m A 1.1.,.&.1 2 ",
"2 2 2 2 v M m m s 2 2 2 G @.@.@.@.@.@.@.G 2 2 2 k o.@.@...M m m M . o o . { +.+.@.@.@.@.+.h o o o 3 m m m m m M m A >.>.1.,.2 2 ",
"2 2 2 2 v M M M s 2 2 2 G @.+.+.+.+.+.@.G 2 2 1 k @.@.+...M m m M o o o . Q @.+.+.+.+.@.+.h o o o 3 b M b M m m b A 4.7.1.&., 2 ",
"2 2 2 2 n m m m s 2 2 2 G @.@.@.@.@.@.@.G , 2 2 k -.@.o.-.m m m m o o o   E -.-.@.@.@.@.;.h . . . 3 M m m m m m m A 3.1.,.%.1 2 ",
"M M M m 3 2 , 2 2 2 2 2 j b m m m m m M G o.-.@.E 2 2 , < M m m m y y y y V b b m m m m b d 2 2 2 = . . . > m M M c 1 2 2 : . . ",
"m m m m 3 2 2 2 2 2 2 2 k m m m m m m M G @.@.@.I 1 , 2 3 b b b b y y y y V m b m m m m m f 2 2 2 = o o o > m m m z 2 2 2 > o o ",
"m m m m 3 2 2 2 2 2 2 2 k M m m m m m m G @.@.@.I 1 , 2 3 b b b b y y y y V m b m m m m m f 2 2 2 = o o o > m m m z 2 2 2 2 o o ",
"m m m m 3 2 2 2 2 2 2 2 k M m m m m m m J @.@.@.Y 1 , 2 3 m b b M y y y y V m b m m m m m f 2 2 2 = o o o 2 m m m x 2 2 2 > . o ",
"3 3 3 3 # + O + j v v m h 3 3 3 j m m m M M M M D | | } E 3 3 3 3 7 7 7 7 3 3 3 3 3 3 3 3 2 2 2 2 2 > > > 2 3 3 3 k } | | | Q Q ",
"2 2 2 2 + o .   j m m M f 2 2 2 j m m m m m m m N @.@.@. .2 2 2 2 2 2 2 2 2 2 2 2 2 2 2 2 2 2 2 2 2 2 2 2 2 2 2 2 j +.@.@.@.@.@.",
"2 2 2 2 + o . o j m m m f 2 2 2 j m m m m m m m D @.@.@. .2 2 2 2 2 2 2 2 2 2 2 2 2 2 2 2 2 2 2 2 2 2 2 2 2 2 2 2 j +.@.@.@.@.@.",
"2 2 2 2 + o . o j b m m j 2 2 2 j m m m m M m m D @.o.@.-.2 2 2 2 2 2 2 2 2 2 2 2 2 2 2 2 2 2 2 2 2 2 2 2 2 2 2 2 k @.@.@.@.@.@.",
"2 2 2 2 l j j l f s f f 3 2 2 2 8 8 8 8 8 s s s j F D D Z v v v v 2 2 2 2 = # # * Z E I E h # # # - 2 2 2 z U E E K F D D D D D ",
"2 2 2 2 m M M m s 2 2 2 2 2 2 2 6 7 7 7 6 2 1 2 f m M m m m m m m 2 2 2 2 + o o o K @.+.+.h o o o = 2 2 2 v @.+.+.Q m m m m m m ",
"2 2 2 2 v b m m s 2 2 2 2 2 2 2 1 7 7 7 6 2 2 2 s m b m m M m m m 2 2 2 2 + o . o K @.@.+.h o o o = 2 2 2 m +.@.+.| b m m m m m ",
"2 2 2 2 m m m m s 2 2 2 2 2 1 1 6 6 6 7 6 2 2 2 s m m m M M b b M 2 1 1 1 + X o   J +.@.+.h X X X = 2 2 2 v +.o.o.{ m m m m m m ",
"k k k k f s s f - # # # n P P P m 2 2 2 > # # # - s s s s ; > > ; P P P J H G F G m x v c j j j j s 2 2 2 f c c c v m m m m m m ",
"m m m m 3 2 2 2 # . o o Z @.@.@.N 2 2 2 - o o . # 2 2 2 1 o o o o @.@.@.+.@.@.o.+.z 2 2 2 j m m m j 2 2 2 2 2 2 2 s m M m m m m ",
"m m m m 3 2 2 2 # o .   N @.@.@.N 2 2 2 - o o o # 2 2 , > X o o   @.@.@.@.@.@.@.+.j 2 2 2 k m m m j 2 2 2 2 2 2 2 s m m m m M m ",
"m m m m 3 2 2 2 # o o   Z @.@.@.N 2 2 2 - o o o # 2 , , > .   o   @.@.@.@.@.@.@.@.k 2 2 2 j M M M j 2 2 2 2 2 2 2 s m M M M m m ",
"m m m m 3 2 2 2 v M M V G G G J M j k k s - ; - 7 / ^ ^ ~ - - - - J G G G G G K J h 2 2 2 s h h f j j k k k j j k j f h h f 2 2 ",
"m m m m 3 2 2 2 P @.+.@.G M m m m m m m j 2 2 , w 1.7.7.,.1 2 2 2 m m m m m m m m s 2 2 2 2 2 2 2 j m m m m m m m k 2 2 2 > o o ",
"m m m m 3 2 2 1 I @.@.@.G M m m m m m m k 2 2 , w 1.1.>.,.2 2 2 2 m m m m m m m m s 2 2 2 2 2 2 2 j m m m m m m m z 2 2 2 > o o ",
"m m m m 3 2 2 1 I @.@.@.G M m m m m m m k 2 2 , w 1.1.>.,.2 2 2 2 m m m m m m m m s 2 2 2 2 2 2 2 j m m m m m m m z 2 2 2 > o o "
};
