/* XPM */
static char *d8f1d257c9514fa0aa44311dc44e15d5u2bdgsSQw1ORQgWf[] = {
/* columns rows colors chars-per-pixel */
"64 64 49 1 ",
"  c #010001",
". c #06030A",
"X c #08050E",
"o c #0A0612",
"O c #0C0916",
"+ c #0E0B19",
"@ c #100C1B",
"# c #140E20",
"$ c #180E26",
"% c #161124",
"& c #191427",
"* c #171228",
"= c #181328",
"- c #1B142B",
"; c #1B162F",
": c #1D142C",
"> c #1F172F",
", c #1E182F",
"< c #1D1631",
"1 c #1E1930",
"2 c #20152F",
"3 c #221733",
"4 c #201734",
"5 c #201833",
"6 c #241833",
"7 c #221B35",
"8 c #251937",
"9 c #231C36",
"0 c #231C38",
"q c #251C39",
"w c #261D3B",
"e c #261E3C",
"r c #2A1B3D",
"t c #2B1D3D",
"y c #2B1D40",
"u c #2C1D40",
"i c #2D1F43",
"p c #2B2042",
"a c #2C2043",
"s c #2F2145",
"d c #302246",
"f c #33234A",
"g c #34234B",
"h c #33244B",
"j c #36254E",
"k c #372650",
"l c #382651",
"z c #3A2754",
"x c #3A2854",
/* pixels */
"    .......@eeew........weeeO...        ............o@@@+.......",
"   .ooooooo%dddp........><<<o...    .XXXooooX.......@8883...Xooo",
"   X@@@@@@@>zzzj....    ............O@@@@@@@O.......>zzzg...X@@@",
"   X@@@@@@@>zzzj....    ............O@@@@@@@O.......>zzzg...X@@@",
"   X@@@@@@@>zzzj....    ............O@@@@@@@O.......>zzzg...X@@@",
"   X+++@%%%>kkkf....  ..........XXXXO++++++++@@@@$$$6gggs@@@@@@@",
".......#eeeeeee0...X@@@@        O@@@o.......=eeedzzzf@@@%eeew@@@",
".......@eeeeeeew....@@@+        O@@@o.......=eeedzzzd@@@%eeew@@@",
".......@eeeeeeew....@@@+        O@@@o.......=eeedzzzd@@@%eeew@@@",
"XXXX...@eeewwww9X..X++++        O@@@o.......=eeesllls@@@%eww0+@@",
"eee<.......X@@@@@@@+........+@@@.       ....=eee7@@@@@@@O       ",
"eee<.......X@@@@@@@+........+@@@.       ....=eee5@@@@@@@O       ",
"eee<.......X@@@@@@@+........+@@@.       ....=eee5@@@@@@@O       ",
"eee<.......X@@@@@@@+........+@@@.       ....=eee5@@@@@@@O       ",
"OOOo....   Owww7@@@+        .XXXO+++.   ....XOOOo   .XXXX...X+++",
"........   +eeew@@@+        ....+@@@.   .........    .......X@@@",
"........   +eeew@@@+        ....+@@@X   .........    .......X@@@",
"........   +teew@@@@        ....+@@@X   .........    .......X@@@",
".......XOOO+###@oooo....OOOO<445%@@@OOOOX   XOOOo...........X@@@",
".......o@@@+............@@@@weee%@@@@@@@X   o@@+O...........X@@@",
".......o@@@+............+@@@weee%@@@@@@@X   o@@@O...........X@@@",
".......o@@@O............+@@+0eee%@@@@@@@X   o@@@O...........X@@@",
"OOO#>>>><<<;....OOOOOOOOtuuuffff&ooo+@@@%---#ooXX...#rrrrrrrw@@@",
"@@@>eeeeeee7...X@@@@@@@@lzzzzzzz&...O@@@<eee;    ...>zzzzzzzk@@@",
"@@@>eeeeeee7...X@@@@@@@@lzzzzzzz&...O@@@<eee;    ...>zllzzzzk@@@",
"@@@;ttteeee7...X@@@@@@@@lzzzzzzz&...O@@@<ttt>    ...>zllzxzzk@@@",
"OOO#>>>>;;;=....OOOO@@@@fffhuyyu@...O@@@%>>>&%%%@...#ytytuuutOOO",
"........        ....@@@@weeeO.......O@@@o...=eee<    ...X@@@+...",
"........        ....@@@@weeeO.......O@@@o...=eee<    ...X@@@+...",
"........        ....@@@@weeeO.......O@@@o...=eee<    ...X@@@+...",
"............    ....++++5777o.......oOOOo...%777=    ...X@@@+...",
".......o@@@+....................        ....o@@@o    ...X@@@+   ",
".......o@@@+....................        ....o@@@o    ...X@@@+   ",
".......o@@@+....................        ....o@@@o    ...X@@@+   ",
"oooXXXXo@@@@OOOOoooo............        .oooO@@@O    ...X+++O   ",
"tte1@@@=tttaxxxlettw....        ....O@@@1ttt<@@@@@@@O........   ",
"eee5@@@=eeeazzzleeew....        ....O@@@<eee<@@@@@@@O........   ",
"eee5@@@&eteazzzleeew....        ....O@@@<eee<@@@@@@@O........   ",
"eew5@@@&tttalllleeewX...        ....+@@@<tte<@@@@@@@O........   ",
"...o@@@5lllg###@oooX....    O++@X...ulllllllfwww3@@@O   Owww7...",
"   X@@@5zllj@@@+........    +@@@X...uxxxzzlxfeee5@@@O   Oeeew...",
"   X@@@5zzzj@@@+........    +@@@X...uzzzzzzlftee5@@@O   Oeeew...",
"   X@@@5zxxj@@@+........    +@@@X...uxxxzxxzfeee5@@@O   +eetw...",
"   .XXX@>>>=XXXX........5777OXXXO+++&>>>waap3OOOo.......X@@@@+++",
"    ...o@@@+............weeeO...+@@@@@@@<tee-        .......X@@@",
"    ...o@@@+............weeeO...+@@@@@@@<eee;        .......X@@@",
"    ...o@@@+............weetO...+@@@@@@@<eee;        .......X@@@",
"oooo....XXX.   .OOOOOOOOweeeo   -335%@@@#&&&+    ...XOOOO....ooo",
"@@@O....        @@@@@@@@weeeo   5eee-@@@o...     ...o@@@+.......",
"@@@O....        @@@@@@@@weeeo   5eee-@@@o...     ...X@@@+.......",
"@@@O....        @@@@@@@@weeeo   5eee-@@@o....    ...X@@@+.......",
"OOOo....       X>>>>wttt<<<,=***-;;;@ooooooooooo@===>ttt8oooo...",
"...............Oeeetzzzl#@@@weee@...    o@@@@@@@;eeeszzzg@@@+...",
"...............Oeeetxzxl#@@@weee@...    o@@@@@@@;eeeszzzg@@@+...",
"...............Oeeetxzxl#@@@weee@...    o@@@@@@@;eeeszzzg@@@+...",
"oooX....oooX...o5557jjjj@@@@>111O.......oOOOOOOO>sssdjjjf333>...",
"@@@o   .@@@O    ...oeeee@@@@.       O@@@o.......6xxzjeeepzzzj   ",
"@@@o   .@@@O    ...oeeew@@@@        o@@@o.......4zzzjeeepzzzj   ",
"@@@o   .@@@O    ...oeeew@@@@        o@@@o.......4zzzjeeepzzzj   ",
"+++++++@@@@+oooo...o7007@+++.       +%#%O.......2jjjfw00ejjjf   ",
"   3zxzf+@@%ettw........    +@@@@@@@7eet=.......o@@@O...X@@@+...",
"   3zzzd@@@%eeew........    +@@@@@@@5tee-.......o@@@O...X@@@+...",
"   3zzzd@@@%eeew........    +@@@@@@@5tee-.......o@@@O...X@@@+...",
"   3zzzd@@@%eeew........    +@@@@@@@5tee-.......o@@@O...X@@@+..."
};
