/* XPM */
static char *_3c1f8c051474a98d630071cf1b983c2R46PkEl47y51pg6C[] = {
/* columns rows colors chars-per-pixel */
"64 64 12 1 ",
"  c #6F6F6F",
". c gray44",
"X c #777777",
"o c #797979",
"O c gray50",
"+ c #808080",
"@ c gray53",
"# c gray54",
"$ c gray56",
"% c #929292",
"& c gray59",
"* c gray60",
/* pixels */
"........oooooooX............oooo....oooo++++ooooooooO+++++++oooo",
"........oooooooX............oooo....oooo++++ooooooooO+++++++oooo",
"........oooooooX............oooo....oooo++++ooooooooO+++++++oooo",
"ooooOOOO++++++++ooooXXXXXXXXoooo....oooo@@@@OOOOooooO++++@@@++++",
"###$***********&####++++O+++++++oooo++++########++++++++####&***",
"###$***********&####++++O+++++++oooo++++########++++++++####&***",
"###$***********&####++++++++++++oooo++++########++++++++####&***",
"@@@#%%%%%%%%&&&%####++++OOOOOOOOXXXXOOOO@@@@@@@@++++++++@@@@$%%%",
"oooooooo+OO+############oooo........oooo....ooooO+++++++oooooooo",
"oooooooo+O++############oooo........oooo....ooooO+++++++oooooooo",
"oooooooo++++############oooo........oooo....ooooO+++++++oooooooo",
"ooooOOOO+++@$$$$$$$$####++++oooooooo++++XXXXO+++@@@@++++ooooOOOO",
"+++@#######$*******&###$****************####********++++++++####",
"+++@#######$*******&###$****************####********++++++++####",
"+++@#######$*******&###$****************####********++++++++####",
"OOO+########&&&&&&&&###$&&&&&&&&****&&&&####&&&&%%%%+OOO++++@###",
"....oooooooO####################****########++++ooooooooO+++++++",
"....oooooooO####################****########++++ooooooooO+++++++",
"....oXoooooO#############$####$#****########++++ooooooooO+++++++",
"....oXoooooO####################%&&&########+OOOoXXXXXXoOOOOOOOO",
"....oooO$#######++++########++++oooooooooooooooo................",
"....oooO########++++########++++oooooooooooooooo................",
"....oooO########++++########++++oooooooooooooooo.............. .",
"....oooO########++++########++++ooooooooXXXXXXXX................",
"........oooooooo++++++++++++++++++++oooo........O+++#$$$$$$$OooX",
"........oooooooo++++++++++++++++++++oooo........O+++########Oooo",
"........oooooooo++++++++++++++++++++oooo........O+++########Oooo",
".......Xoooooooo++++++++++++OOO+++++oooo........++++#$$$####Oooo",
"***************&###$***&+++Ooooo$###****$$$#************$####$$$",
"***************&###$***&++++oooo$###****####************$#######",
"***************&###$***&++++oooo$###****####************$#######",
"***************&###$***&++++oooo$###****####&***********$#######",
"########+++OXXXXooooXooo$###$$$$###############$oooo... O+++++++",
"########+++Ooooooooooooo$######################$oooo....O+++++++",
"########+++Ooooooooooooo$######################$oooo....O+++++++",
"####$$$#+++Ooooooooooooo$###################$$$$oooo....O+++++++",
"....oooo+++Ooooo++++########++++++++++++oooo.  .................",
"....oooo+++Ooooo++++########++++++++++++oooo....................",
"....oooo+++Ooooo++++########++++++++++++oooo....................",
"   .oooo+++Ooooo++++########++++++++++++oooo....        ........",
"###$&**************&###$***&###########$++++oooX########ooooO+++",
"###$***************&###$****############++++oooo########ooooO+++",
"###$***************&###$****############++++oooo########ooooO+++",
"###$***************&###$****#########$$$++++oooo#$$####$ooooO+++",
"+++@$$$$$$$#++++oooO####$$$$####++++oooo........ooooO+++++++++++",
"+++@########+++Ooooo############++++oooo........ooooO+++++++++++",
"+++@########+++Ooooo############++++oooo........ooooO+++++++++++",
"+++@$$$#####+++Ooooo$$$$$$$$$$$#++++oooo....... XoooO+++++++++++",
"oooooooO#######@........oooooooo++++OOOOXXXXXXXXOOOO++++++++oooo",
"oooooooO#######@........oooooooo++++++++ooooooooO+++++++++++oooo",
"oooooooO#######@........oooooooo++++++++ooooooooO+++++++++++oooo",
"oooooooO$######@........oooooooo++++++++oooooooXO+++++++++++oooo",
"OOOOOOOOoooooooo............oooo################################",
"++++++OOoooooooX............oooo################################",
"++++++OOoooooooX............oooo################################",
"+++++++OoooooooX............oooo################################",
"&&&&&&&%###@ooooXXXXXXXXOOOO####&&&&###$####&&&&&&&&&&&&$###&&&&",
"*******&###@oooXoooooooo++++####****########************$###&***",
"*******&###@oooooooooooo++++####****########************$###&***",
"*******&####oooooooooooo++++####****########************$###&***",
"***&$$$#OOOOOOOOooooOOOO########$$$$####@+++@@@@+OOOOOOO####$$$$",
"***&###@oooo++OOoooo++++################++++++++oooooooo########",
"***&###@oooo+++Ooooo++++################++++++++oooooooo########",
"***&###@oooo+++Ooooo++++################++++++++oooooooo########"
};
