/* XPM */
static char *e4059ada28cf4f8fceb6e8f10f3fb28d31AplnCmKWWIcmid[] = {
/* columns rows colors chars-per-pixel */
"64 64 67 1 ",
"  c #674E2B",
". c #684F2C",
"X c #67502C",
"o c #69502C",
"O c #715730",
"+ c #735A32",
"@ c #785E34",
"# c #7D6237",
"$ c #7C6138",
"% c #826639",
"& c #87693B",
"* c #8C6D3D",
"= c #906F3F",
"- c #92703F",
"; c #826740",
": c #836942",
"> c #8C6E42",
", c #8E7043",
"< c #967341",
"1 c #997744",
"2 c #9C7946",
"3 c #937549",
"4 c #97794B",
"5 c #9E7C4B",
"6 c #9E7F50",
"7 c #A37E47",
"8 c #A27E4A",
"9 c #A7824D",
"0 c #AA844E",
"q c #AE884E",
"w c #B58D4F",
"e c #A48453",
"r c #AB8652",
"t c #AC8956",
"y c #A6875B",
"u c #AE8C5A",
"i c #B58D50",
"p c #B48F53",
"a c #B08B56",
"s c #B08C57",
"d c #B48E54",
"f c #B58F57",
"g c #B08C58",
"h c #B48F59",
"j c #B38F5D",
"k c #B79057",
"l c #B89257",
"z c #B4905B",
"x c #B7925B",
"c c #B3905F",
"v c #B7935C",
"b c #B7945E",
"n c #B89158",
"m c #B8935C",
"M c #B8945E",
"N c #BC975F",
"B c #B79460",
"V c #B89561",
"C c #BC9761",
"Z c #BB9863",
"A c #BB9965",
"S c #BC9A67",
"D c #BE9C67",
"F c #BC9A68",
"G c #BF9C68",
"H c #C19F6B",
"J c #C19F6C",
/* pixels */
"wwwwwwwxMMMMMMMMMMMZHHHHHHHHHHHHMMMMHHHHHHHHZMMMMMMMMMMMMMMMv<<<",
"wwwwwwwxMMMMMMMMMMMZHHHHHHHHHHHHMMMMHHHHHHHHZMMMMMMMMMMMMMMMv<<<",
"wwwwwwwxMMMMMMMMMMMZHHHHHHHHHHHHMMMMHHHHHHHHZMMMMMMMMMMMMMMMx<<<",
"MMMMMMMpwwwwwww9<<<29990ppppMMMMMMMMMMMMfpppppppkMMMMMMMx9999999",
"MMMMMMMpwwwwwww9<<<29990wwwpMMMMMMMMMMMMpwwwwwwwkMMMMMMMx9999999",
"MMMMMMMpwwwwwww9<<<29990wwwpMMMMMMMMMMMMpwwwwwwwkMMMMMMMx9999999",
"MMMMMMMpwwwwwww9<<<29990wwwpMMMMMMMMMMMMpwwwwwwwkMMMMMMMx9999999",
"MMMMMMMvxxxxxxxhsgggxxxxxxxxppppppppppppCSSSSSSSSGGGGGGGSAAAB<11",
"MMMMMMMMMMMMMMMMMMMMMMMMMMMmwwwwwwwwwwwwSHHHHHHHHHHHHHHHHHHHS<<<",
"MMMMMMMMMMMMMMMMMMMMMMMMMMMmwwwwwwwwwwwwSHHHHHHHHHHHHHHHHHHHS<<<",
"MMMMMMMMMMMMMMMMMMMMMMMMMMMmwwwwwwwwwwwwSHHHHHHHHHHHHHHHHHHHS<<<",
"55555553,,,155555552,,,>%%%%####********::::,333>:::::::::::;+++",
"<<<<<<<%###*<<<<<<<*###@XXXXXXXX########oXXX@###+XXXXXXXXXXXXXXX",
"<<<<<<<%###*<<<<<<<*###@XXXXXXXX########oXXX+###+XXXXXXXXXXXXXXX",
"<<<<<<<%###*<<<<<<<*###@XXXXXXXX########oXXX+###+XXXXXXXXXXXXXXX",
"tttjccc8111tcccccccjyyyyyyye&&&&eeeeeeeee666eeee822222221<<<<222",
"MMMHJJJt999VHJJJJJJJJJJJJJJS<<<<MMMMMMMMMMMMMMMMkppwppppw9999ppp",
"MMMHHHHt999VHHHHHHHHHHHHHHHS<<<<MMMMMMMMMMMMMMMMkwwwwwwww9999www",
"MMMHHHHt999VHHHHHHHHHHHHHHHS<<<<MMMMMMMMMMMMMMMMkwwwwwwww9999www",
"MMMSSSSgaaaxNNNMvvvbMMMMvvvg<<<<sssskkkkkkkknMMMxkkkkkkkfaaaskkk",
"MMMMMMMMMMMfwwwq999qwwww9999<<<<9999wwwwwwwwxMMMMMMMMMMMMMMMMMMM",
"MMMMMMMMMMMfwwwq999qwwww9999<<<<9999wwwwwwwwxMMMMMMMMMMMMMMMMMMM",
"MMMMMMMMMMMfwwwq999qwwww9999<<<<9999wwwwwwwwxMMMMMMMMMMMMMMMMMMM",
"MMMMMMMxkkkkkkksaaaskkkfsaat<<<<asaakkkkkkkkkkkkkkkkfaaagMMMMMMM",
"MMMMMMMpwwwnMMMMMMMMMMMMMMMx<<<<MMMMMMMMMMMMkwwwwwwww999rMMMMMMM",
"MMMMMMMpwwwxMMMMMMMMMMMMMMMx<<<<MMMMMMMMMMMMfwwwwwwww999rMMMMMMM",
"MMMMMMMpwwwxMMMMMMMMMMMMMMMx<<<<MMMMMMMMMMMMfwwwwwwww999rMMMMMMM",
"eeeeeee9999eeeeettttttttttte>===ggggggggggggr999999998889gggtttt",
"ooooooo@###+ooo+################<<<<<<<<<<<<&#######&<<<<<<<<###",
"XXXXXXX@###OXXX+################<<<<<<<<<<<<&#######&<<<<<<<<###",
"XXXXXXX@###+XXX+################<<<<<<<<<<<<&#######&<<<<<<<<###",
"%%%#$$$&***%%%%&*******,333333338555555555553,,,,,,,355555552%%%",
"ppp09999999wppppppppppplJJJJJJJJbMMMMMMMMMMMMMMMMMMMMMMMMMMMx<<<",
"www09999999wwwwwwwwwwwwlHHHHHHHHMMMMMMMMMMMMMMMMMMMMMMMMMMMMx<<<",
"www09999999wwwwwwwwwwwwlHHHHHHHHMMMMMMMMMMMMMMMMMMMMMMMMMMMMx<<<",
"ppprrrrrrrrfppppppppppplDDDSAAAAxxxxxxxxxxxxxxxxxxxxxxxxxxxxg<<<",
"MMMMMMMMMMMMMMMMMMMMMMMxwwww99999999wwwwwwwwq999qwwww99999999<<<",
"MMMMMMMMMMMMMMMMMMMMMMMxwwww99999999wwwwwwwwq999qwwww99999999<<<",
"MMMMMMMMMMMMMMMMMMMMMMMxwwww99999999wwwwwwwwq999qwwww99999999<<<",
"MMMMMMMMMMMMMMMMMMMMMMMxwwww99999999wwwwwwwwq999qwwww99999999<<<",
"HHHVMMMGHHHHHHHHHHHHHHHHHHHHMMMMMMMMMMMMMMMMMMMMMMMMMMMMMMMMv999",
"HHHVMMMGHHHHHHHHHHHHHHHHHHHHMMMMMMMMMMMMMMMMMMMMMMMMMMMMMMMMv999",
"HHHVMMMGHHHHHHHHHHHHHHHHHHHHMMMMMMMMMMMMMMMMMMMMMMMMMMMMMMMMv999",
"HHHMbbbDHHHHHHHHHHHHHHHHHHHGMMMMMMMMMMMMMMMMMMMMMMMMMMMMMbbbv999",
"                   o###@   o########-<<<<<<<<<<<&#######@.. .   ",
"XXXXXXXXXXXXXXXXXXXO###@XXXo########<<<<<<<<<<<<*#######@XXXXXXX",
"XXXXXXXXXXXXXXXXXXXO###@XXXo########<<<<<<<<<<<<*#######@XXXXXXX",
"oooXXXXXoooooooooooO###@oooo########<<<<<<<<<<<<*#######@ooooooo",
"uuu8888tuuuuuuuuuuuggggggggt<<<<FFFFFFFFfwww7<<<8qqqfjjjjuuuuuuu",
"MMM0999xMMMMMMMMMMMMMMMMMMbx<<<<JHHHHHHHlwww7<<<9wwwfMMMMMMMMMMM",
"MMM0999xMMMMMMMMMMMMMMMMMMMx<<<<JHHHHHHHlwww7<<<9wwwfMMMMMMMMMMM",
"MMM0999xMMMMMMMMMMMMMMMMMMMx<<<<JHHHHHHHlwww7<<<9wwwfMMMMMMMMMMM",
"pppwwwwxMMMMMMMgrrrrrrrrpppp<<<<utttVVVVmxxxggsshxxxsrrrrrrrrppp",
"wwwwwwwxMMMMMMMa99999990wwww<<<<9999vMMMMMMMMMMMMMMMg99999999www",
"wwwwwwwxMMMMMMMa99999990wwww<<<<9999vMMMMMMMMMMMMMMMg99999999www",
"wwwwwwwxMMMMMMMa99999990wwww<<<<9999vMMMMMMMMMMMMMMMg99999999www",
"xxxxxxxMMMMMMMMvxxxxxxxxxxxx8888SSSSGGGGVMMMMMMMMMMMvxxxxxxxxxxx",
"MMMMMMMMMMMMMMMMMMMMMMMMMMMv9999HHHHHHHHVMMMMMMMMMMMMMMMMMMMMMMM",
"MMMMMMMMMMMMMMMMMMMMMMMMMMMv9999HHHHHHHHVMMMMMMMMMMMMMMMbMMMMMMM",
"MMMMMMMMMMMMMMMMMMMMMMMMMMMv9999HHHHHHHHVMMMMMMMMMMMMMMMbbbbMMMM",
"333333333333333455555555rrre2222tttteeee555555554333455543333333",
"ooooooooooooooo+#######%<<<<<<<<<<<<%###########+XXXO###@XXXXXXX",
"XXXXXXXXXXXXXXX+#######%<<<<<<<<<<<<%###########+XXXO###@XXXXXXX",
"XXXXXXXXXXXXXXX+#######%<<<<<<<<<<<<%###########+XXXO###@XXXXXXX"
};
