/* XPM */
static char *ad0bd8bc83d94402ac39f66eb0a36553dDUQQjHhe7lCJZ2V[] = {
/* columns rows colors chars-per-pixel */
"64 64 256 2 ",
"   c #040403",
".  c #0A0604",
"X  c #070905",
"o  c #0B0906",
"O  c #0B0709",
"+  c #0D0B09",
"@  c #130603",
"#  c #1B0503",
"$  c #130A05",
"%  c #1B0C05",
"&  c #110709",
"*  c #130C09",
"=  c #1A0D09",
"-  c #0E120A",
";  c #1E1106",
":  c #14120C",
">  c #1B130C",
",  c #1A170C",
"<  c #1D1611",
"1  c #1D1B13",
"2  c #1A1C14",
"3  c #230403",
"4  c #2B0303",
"5  c #240D05",
"6  c #2B0D06",
"7  c #21040A",
"8  c #230D09",
"9  c #2C0E09",
"0  c #340302",
"q  c #3A0502",
"w  c #340C06",
"e  c #3C0B02",
"r  c #360D09",
"t  c #241206",
"y  c #2C1206",
"u  c #2B1807",
"i  c #24130A",
"p  c #2C130A",
"a  c #24190E",
"s  c #2C190D",
"d  c #331306",
"f  c #3C1406",
"g  c #361A06",
"h  c #3A1B06",
"j  c #33150A",
"k  c #3C140A",
"l  c #341B0C",
"z  c #3B1B0B",
"x  c #231B13",
"c  c #251814",
"v  c #2C1C12",
"b  c #331D12",
"n  c #3C1D12",
"m  c #1C2114",
"M  c #39220A",
"N  c #3C220E",
"B  c #292316",
"V  c #26221A",
"C  c #2B231A",
"Z  c #342214",
"A  c #3C2313",
"S  c #32251B",
"D  c #36281B",
"F  c #3B2B1C",
"G  c #2D2A24",
"H  c #372D24",
"J  c #3B3329",
"K  c #440A03",
"L  c #430C01",
"P  c #431403",
"I  c #4C1303",
"U  c #441C06",
"Y  c #4C1C05",
"T  c #43140B",
"R  c #4C150C",
"E  c #431D0B",
"W  c #4B1D0B",
"Q  c #581605",
"!  c #531C06",
"~  c #53150A",
"^  c #531C0A",
"/  c #5B1B0B",
"(  c #4A1912",
")  c #551A12",
"_  c #641B07",
"`  c #621B0B",
"'  c #6B1E0C",
"]  c #721C0C",
"[  c #651D14",
"{  c #721E10",
"}  c #44220C",
"|  c #482308",
" . c #4C230C",
".. c #4C2A0C",
"X. c #542406",
"o. c #53230B",
"O. c #5B250C",
"+. c #55290D",
"@. c #5B2B0C",
"#. c #57330B",
"$. c #442513",
"%. c #4B2613",
"&. c #452913",
"*. c #4A2B15",
"=. c #532512",
"-. c #542B12",
";. c #5B2C12",
":. c #552A18",
">. c #4C371A",
",. c #5C3214",
"<. c #593218",
"1. c #662306",
"2. c #64240C",
"3. c #6B240C",
"4. c #632C0E",
"5. c #6C2B0D",
"6. c #772709",
"7. c #742B0C",
"8. c #63350A",
"9. c #6C330C",
"0. c #78360C",
"q. c #6B2313",
"w. c #642B12",
"e. c #6B2C13",
"r. c #682817",
"t. c #732C14",
"y. c #782817",
"u. c #7B2D14",
"i. c #673715",
"p. c #6B3312",
"a. c #743214",
"s. c #7B3214",
"d. c #743A14",
"f. c #7A3818",
"g. c #493928",
"h. c #573A23",
"j. c #653B25",
"k. c #743B23",
"l. c #564117",
"z. c #7D420D",
"x. c #69441A",
"c. c #774316",
"v. c #57432A",
"b. c #4E4332",
"n. c #5B4937",
"m. c #664828",
"M. c #724E2B",
"N. c #755937",
"B. c #6A5943",
"V. c #7A6548",
"C. c #811E06",
"Z. c #88270C",
"A. c #842B0C",
"S. c #952B0D",
"D. c #87370C",
"F. c #853C0E",
"G. c #943C0D",
"H. c #882A15",
"J. c #982913",
"K. c #843315",
"L. c #823B12",
"P. c #8A3B13",
"I. c #83321B",
"U. c #8A3819",
"Y. c #973917",
"T. c #A33211",
"R. c #A83918",
"E. c #B73C19",
"W. c #953923",
"Q. c #A43D23",
"!. c #B23922",
"~. c #C43D1A",
"^. c #C33A20",
"/. c #88420D",
"(. c #98450D",
"). c #844314",
"_. c #8A4716",
"`. c #964716",
"'. c #8E5115",
"]. c #965417",
"[. c #AB4F0D",
"{. c #A84618",
"}. c #B8431A",
"|. c #A3571A",
" X c #B85617",
".X c #98631F",
"XX c #A6661A",
"oX c #BD6213",
"OX c #92542B",
"+X c #9A5B28",
"@X c #A74623",
"#X c #B74A24",
"$X c #B65625",
"%X c #A95736",
"&X c #9B6328",
"*X c #8C6630",
"=X c #A3632A",
"-X c #B96928",
";X c #A56933",
":X c #B37236",
">X c #C85F0D",
",X c #C4491D",
"<X c #D7471D",
"1X c #C9541D",
"2X c #D7541D",
"3X c #E25A1E",
"4X c #C76916",
"5X c #CD6A18",
"6X c #D47915",
"7X c #E5681F",
"8X c #EE731F",
"9X c #D24B25",
"0X c #C85828",
"qX c #D35A26",
"wX c #E45821",
"eX c #EC5228",
"rX c #CF6E2D",
"tX c #DA6623",
"yX c #EA6623",
"uX c #F27725",
"iX c #8A724A",
"pX c #B17748",
"aX c #C87B46",
"sX c #D4724C",
"dX c #EC7143",
"fX c #D68318",
"gX c #E98D18",
"hX c #F38A1E",
"jX c #F5941D",
"kX c #CE8D30",
"lX c #EF902D",
"zX c #E4A72A",
"xX c #F4AE30",
"cX c #FAC528",
"vX c #B48E4E",
"bX c #B98A4B",
"nX c #9F8772",
"mX c #AB8D65",
"MX c #CB8F52",
"NX c #F08949",
"BX c #F0B04E",
"VX c #D19569",
"CX c #ED8E67",
"ZX c #D5AF77",
"AX c #E7AB66",
"SX c #FACA57",
"DX c #FACF72",
"FX c #BAB193",
"GX c #DEBD97",
"HX c #EFB78D",
"JX c #DAC799",
"KX c #F2CD8C",
"LX c #F5C898",
"PX c #F4D9AC",
"IX c #E8DAB8",
"UX c #F9F0D3",
/* pixels */
"        . .                                                             + @ % % $ @ + O . . + * @ . + . .   . . @ + .           ",
"      . . .                                                             . % = t = = $ + . + $ ; % $ + . . + . . > @ + . X       ",
"    . @ . . . * > *                                     X             . . t ; y y t ; : + + $ i t % + + + * @ + i > + + + .     ",
"    @ # . @ . > a >                 . .             . . . . . . . . X . . t t u l l p > : * : l h i > * * * * * t > $ * : +     ",
"    . 5 % $ . x C x . .     X     . . . . . X X   . . . . . . + + + + . % t h l h h l s x > * h ..M a : * = * * s t > * * + .   ",
"    . 6 5 @ * V H C + . . . . . . . . + . . . .   . . . + + + + . . . + % = z l } &.} z Z x < N -.N s < : > = = &.y a * * * .   ",
"    . y % * B S J H x + . . . . . + + + . . . . . . + + + + + + + + + @ @ @ z  .E | -. .l B 1 $.,.&.p x < > i > ..z v > : + +   ",
"    . 5 $ C D S g.J J < . . O . + + + + + + . .   . + + + + + + + @ @ @ + = k O.z o.o. .l Z x ..8.A v 1 1 $ a a -.N a < : * +   ",
"  . @ 5 % S S D v.S J V & + . + + + + + + . . . . @ + + + + + + + @ @ + + + p @.;.+.o.-.} l s &.;.l l < x > v a } k v < : : +   ",
". . % i c v 1 b.n.g.D H v c + + + + + + + + + + . * * + + + + + + @ @ + + + = @.4.X.=.o. .*.A ..,.&.s 1 G x v b E z v < : * +   ",
". . t D g.g.>.v.n.m.N.iXM.g.+ + * + + * + + + + . + + + + $ * * + * = = * + =  .p.X.4.;.-.+.&.,.i.} b 1 H > b a z l B > : : +   ",
"@ @ j H g.b.v.n.n.n.V.iXB.g.+ * x + + : * + + + . + * * + % i % + @ * 9 $ * * l 0.4.9.;.4.@.$.i.,.} b 1 C C F s l s S > : : + @ ",
"@ 3 p D H g.g.n.n.B.iXV.n.g.+ * 1 * @ * + + + . . + + * + @ j k r $ = w 5 * + * p.5.a.5.d. .+.;.&.>.b x G H Z D j v S > > : * 8 ",
"# 5 = B F F v g.n.N.B.B.n.g.> * = % + + + + + . . + + + + + j f ~ 9 8 R w > $ * w.`.0.f.;.@.;.i.&.&.b x G H s D &.b x x x * + % ",
"@ % % 5 % v a D n.v.iXg.= % c > A i.* + + + . . . + + + + @ p T ~ T d k R f j 5 X.F.F.a.o.p.:.p.} n b B V J c D b s x > x : + $ ",
"@ @ % 6 % v v Z n.N.N.Z = = 8 > p i.&.= = + . . . O + + + @ > 8 d k ~ R ` R ( ) f G.L.0.4.E  .c.$.z A a V J v S Z v c > > : + % ",
"@ @ % 9 % i n g.n.M.h.% 5 ) ; p 9 l ..* $ . . + . + + + + @ > + p P ' / q.W f ) T P.f.(.w.E ;.d.} } A c 1 J S F v ,.v > * > + . ",
"@ % 6 6 6 6 n v.V.m.f 9 T k j r = l s $ * . + @ @ @ + . + + $ * = k I ( ` ] ~ [ ~ D.F.(.a.o.*Xc.:.z A v x x B D b d.o.x x : : @ ",
"@ 5 d j 6 f =.v.iXm.~ 6 6 E k 5 = <.A s A + % $ $ @ $ + + + $ $ ; t f ' 6.Z.6.` ` t.(.(.(.0._.).-.g A b V 1 V D l 0.;.x B : * % ",
"% d f 6 6 w j m.*Xm.R 5 8 p : v b * p N s $ = @ . % % $ i @ $ = t f 2.7.A.Z.6._ A.3.`.G.(.(._.f.<.} :.Z x 1 x A -.d. .c x , + $ ",
"@ 3 6 5 5 y p v.*Xm.6 8 p 8 a l p $ = s Z $ % . . % % % s * $ t y W 5.9.A.A.A.` ' 2.{.G. X`.).F.-. .+.Z 1 1 x N ).i.@.a x 1 * . ",
"@ % 5 6 6 d p m.*Xx.p 5 j 5 i j z i * l $ @ . . % % % = t $ % t p } 6.G.G.t.X._ / 6.F.P.|. X/.).+.o.E N > : x $.).9.} s a 1 : $ ",
"@ % 6 5 5 d p m.'.c.j 5 p 6 p p l l t s + + @ $ 5 $ $ 5 s $ % ; u } z.`.G.9.1.6.1.Z.A.D.[.oX4X/.X.;.E n a : c <.).w.z l Z , , % ",
"@ % 6 6 w T p m..Xc.p = 5 6 9 p = l = = t * ; @ % $ & = b l * ; l -.c.+X'.9.@.4.' _ A.P.(.4X6X(.o.O.%.p > x z c.f.4.j N M a ; ; ",
". = 5 t k T t x..X'. .y y p t 5 i = $.* } s p % . % $ % t > $ t z ,.*XpX=X_.9.s.1._ 6.(.L. XoX].E  .z j > >  .d.5.e.E z l Z a t ",
". % 5 d y d d x.XXz.O.E p j n > $ = t t &.5 % = @ = $ $ = 8 z =.o.c.iXZX;X].].0.u.3.` F.0.[. X`. .E k z i v +.'.7.1.W h N &.u t ",
"@ = = y d d y x.XXc.o.f y l p $ $ % = p Z = j t p t.U.U.a.f.`.P.`.+XpXIXpX|.|._.0.6.1.D.e.[.5X/.;. .E z > s ;.c.4.2.W } &.*.M t ",
"@ 5 = j d % t x.XXz.O. .k z a % $ $ = p s $ = s Y.Y.f.a.f.pXM.a.Y.`.;XZX:X&X;X].L.6.6.6.s.[. X0. .E j p i k +.c.X.W f | ..#.N u ",
"@ % = y p 9 p 8.XX0.G.d.z 5.f 5 i l b > s p a.L.U.I.I.s.i.$.^ I.I.I.K.`.:X:XGX;X/.A.A.6.D.F.[.d. .E j p s %.w.d.X.@. . .#.#...l ",
"@ % 5 y j k l @._.).(.W f f y f t i N i w.U.s.w.w.e.e.u.a.( ( [ y.I.s.I.`.;XPX;XF.9.7.6.{.F.(.).;.z l l l  .p.p. .| l +.8.8.#.M ",
"@ % t y k W z @.'.0.q.W E f d U i % u E L.t.t.t.u.t.t.r.[ j v =.I.a.e.p.I.pXZXbXz.D.D.6.(.D.G.'.O.j y p d  .w.4.h d U @.8.c.8.>.",
"@ $ % % j =.:.8.].'.f.2.W f d d i % z t.u.a.u.t.p.a.e.q.r.i 8 [ / +.+.O.4.OXSXMX0.D.F.G.G.(.F.].X.p p 5 j %. .W z s E +.8.8.8.v.",
"$ % % % d Y W i.'.].`.2.! P g d 5 % j K.u.t.4.O.o.O.t.f.q.( ( ` e.O.@.O.O.5.kX-X/./._.|.(.(.).).E p i 5 l %.} j.z y E o.8.8.#.>.",
"= % % 5 j  .o.8.'.[.`.7.5.o.Y z y g 2.I.e.4.a.4.+.e.e.O.2.q./ / O.t.7.O.X.O._.XX`.'.&X;X]././.d.d j 5 i j z j n l l ;. .d.X...l.",
"s % % 5 U ;.o.c.XXoX[.D.L.5.1.W y f u.t.O.9. XF.5.e.o.^ q.O.^ ^ @.`.,Xe.! X.e.=X].+XpXZX+X).F.4.l y n i x.l l p u j O. .8...| #.",
"; % = g p.0.-._.4X6X X[.P.7.7.Y P E u.O.o.P.yX1XY.w. .X.w.^ ^ ^ a.1XwXA.! W O.=XbX:XMXPX;Xd.z.O.l 5 d p n &.&.d l j o.} ..h M #.",
"% % l o.W  . .'.6XfX>X[.(.0.D.O.o.;.e.X.O.`.8XyX,X4.| O.2.X.! 2.}.yXyXY.! Y ^ 0.MXMXMXAX=X9.0.p.d p $.l l z O.z $.:. .| } } g | ",
"% t h y g W ;.].6XgX>X>X XY.P.OX{.U.2.W X.{.jXlXtXL.O.O.O. .o.K.wXhXuXR.! I Y 2.pX:X:XaX%X`.(.@.E j E c.z %.i.l l %.z W M g $.| ",
"$ t t 5 f W +.].fXgX4X XY.Y.U.j.U.K./ Y X.E.xXSXNX X5.2.X.o.6.,XlXxXhX{.! I I o.U.Y.U.).a.Y.Y.U.;.u :.=.E -.E E b l k W } | | g ",
"$ u g A k E ;.|.kXgX{.U.I.s.I.( q.y.W Y ! R.BXDXLXdXY.3.^ O.R.dXDXcXhXR./ I I W t.s.u.r.( u.K.Y.w.p f.d.z z 8  .l s z o.0. .h u ",
"@ $ l p k k <.|.4X4XI.s.s.U.I.( y.3.Y P I S.uXKXUXLXtXu.! 3.sXLXDXxXyXP.~ I I Y t.t.t.) W I.e.t.I. .o.).E k p } N A z i.f.o.E p ",
"$ %  ...p z i.$X X{.e.p.{.1XR.R.J.` P P I ' <XwXdXCXlXH.O.5.CXCXeXeXE.5.! I P P 2.K.w.q.y.{.{.5.0.f.y.`.r.W k k. .l l O. .+.| t ",
". * t y l :.`.rX$Xu.;.G.7XhX2XuX4XQ P P P Q ^.R.}.}.E.S.7.7.E.E.E.J.A.7.1.I L P / Y.w.e.K.yXyX7.O.`.`.{.Y.q.=.z } b l %. .W j % ",
"$ % t j ..w.@XtX#X3.5.2XxXxXyXBXkX~ e K K ] ~.6.2.3.6.E.#XY.3.' ] [ Z.R.Y.Q L L Q `.K.t. XxXhXH.! s.-X#X#X`.w.<.%.d s  .@. .d % ",
"% % y j @.d.`.yX{.X.7.lXDXDXyXKXbXK e e K J.<X7.! I ] 0XrX}.Q ~ ~ ' S.tX}.Q K e ~ pXR.u.MXDXjXY.! 3.XX$X-X X=.k t t > E ..N y % ",
"% $ i l E d.K.rX/.Y ] lXPXLXtXCXmXK 0 q K ~.wXE./ K ` sXsX0XQ L Q Z.E.tX~.Q K e P mX$X0.GXDXuX{.` / k.+X-X$X*.j t x i B A s p @ ",
"@ % 5 j  .,.c._.3.I 6.<X9X<X,X}.S.K 0 0 K 1XhX2X6.Q ] R.R.T.I I Z.J.uXqXE.~ e 0 r J.E.P.,X<X<X1X] I i.&X$XOX&.j l B B t B a i @ ",
"% % 5 u =.=.`.g./ I J.E.G.T.qXS.Q q 4 4 q 5XlXwXqX] J.y.3.6.` / E.#XjXrXJ.I 0 0 r ] R.0XH.E.<XwX] I =.&X;Xk.F v <.D S = x a > % ",
"i t = p E %.a.v I K 1XE.T.T.qXT.~ q 3 4 q {.8XhX8XE.0XJ.3.J.3.J.$XrXhX0XZ.e 4 4 9 C.#X0XZ.E.8XyX{ K %.OX=Xj.F v B x V > V , * $ ",
"t i = p ( -._.l K q E.8XhXrXE.R.q.0 # 3 4 y.}.jXzXlXtXsXW.sX{.lX0XgX8XW.] 4 3 3 9 $XQ.@X#X5XjXtX` e k h.-Xh.D , B 1 2 1 2 , + @ ",
"a % % p d +.=Xv 4 4 Q 9X6XVXHXzX'.e # # 3 r 6.8XkXSXAXHXZXVXaXxXfXrX3XT q # % @ l vXnXVXAXkXjX1XR 4 i M.-XH B 1 m 1 2 : 2 > @ + ",
"t @ $ z v j p.i % # 3 R !.OXaXrXy.w @ @ @ @ K Q. XzXAXJXGXZXbXlX4XY.!.9 % % @ $ >.iXFXIXKXzXjXQ.r # > &XM.C 1 1 1 m : : 2 * . . ",
"$ @ @ y t t l > @ @ . # q 9 R ~ 6 # @ . @ + 3 0 I.@XaXrXpX$X$X,X@Xw e = % 3 . . &.n.nXJXZXrXqX0 5 . + =Xh.1 > , : m * : : * + . ",
". . + = % i b : o     + # $ 5 3 @ . + . .   @ # R e !.K.I.H.r.~ R 3 * * + %   . % i.h.aX+XQ./ % .   + ].A : , : : : $ * * + . . ",
". . + % @ > t : X . X   . + @ @ .   X +   X   + $ # W 8 d p i 4 % @ * + . @   . o : i t.q.6 7 +   . o i.a : : : - @ $ * + . . . ",
". . . $ * . : : X o X     X + .   .   +     + . . + . + = * * @ . + o + .   . X X : * * @ . .     X - > : - - : + @ $ + . .     ",
"  . . . $ + + + . o .       +         +     .         . . . + .   + . o .   . X   X X +   X     X + + - + + - + + + + . . .     ",
"  .   . $   + + X - o X     . X   X   .     X         + .   X     .   o . X X .   X   +     X   o o + + + . - . . . . . .       ",
"  .   + X X $ X X - + o         X . X .     .           X             o . o X + X   X .   X . . o . . . o . o . . . . . .       ",
"      . . $ % X + + + o     X X X . . .     .                         . X . X + X     X X . . . X X X . . . X         .   .     ",
"          $ =   X X . .       X X X .       X                             X   . X       . X     X X   .               . . .     ",
"        . . .     X                                                                                                             ",
"          .                                                                                                                     ",
"                                                                                                                                "
};
