/* XPM */
static char *f54496923f3d4f2ccb76fc3e5ed8254crpb5jkGEswcT37zf[] = {
/* columns rows colors chars-per-pixel */
"64 64 68 1 ",
"  c #000000",
". c #0B0401",
"X c #110701",
"o c #140A01",
"O c #1B0E01",
"+ c #1F1101",
"@ c #241401",
"# c #291701",
"$ c #2D1A01",
"% c #331E02",
"& c #372002",
"* c #3C2402",
"= c #412703",
"- c #442903",
"; c #4A2D04",
": c #4E3004",
"> c #543404",
", c #593705",
"< c #5D3A05",
"1 c #613D06",
"2 c #674107",
"3 c #6B4407",
"4 c #6E4608",
"5 c #704708",
"6 c #744908",
"7 c #7A4E09",
"8 c #7E500A",
"9 c #84540B",
"0 c #88570C",
"q c #8C5A0C",
"w c #925E0D",
"e c #96610E",
"r c #9C640F",
"t c #9E6610",
"y c #A0670F",
"u c #A06710",
"i c #A46A10",
"p c #AA6E11",
"a c #AE7112",
"s c #B37413",
"d c #B87714",
"f c #B87814",
"g c #BD7B15",
"h c #BF7C15",
"j c #C17D15",
"k c #C47F16",
"l c #C68016",
"z c #C88216",
"x c #CA8416",
"c c #CE8617",
"v c #CF8718",
"b c #D08717",
"n c #D08817",
"m c #D08718",
"M c #D38A18",
"N c #D58B18",
"B c #D78C19",
"V c #DB8F19",
"C c #DC8F1A",
"Z c #DF911A",
"A c #E1931A",
"S c #E3941B",
"D c #E6961B",
"F c #E8971B",
"G c #E9981B",
"H c #E8981C",
"J c #EB9A1C",
"K c #EC9A1C",
/* pixels */
"KKKKKKKKKKKKKKKKKKKKKk  XsKNes7   DKKKKKKKKKKKKKKKKKDAKKKKM.#JJJ",
"KKKKKKKKKKKKKZAKKKKKKe    <9      DKKKKKKKKzNKKKKKKKA VKKKKN gKJ",
"aDKKVKKKJMKKj:DKKKKKK0gs        glNKKKKsKDA#MKKKKKKKK5NKKKKK=;c8",
" aKs&DKKr-ge1VKKKAMKKJKK<p2   1<KKKKKKc e:4xKKKAjKKKKq,NKKKK7 < ",
"ow7  9JKAs .fKBww1FKKKKKSKz  ODDKKKKKKKZ2 rKK08oVKKKKc 88gKKB1 *",
"     7cKKKVpKKn  sKKKKKKKKZC98KKKKKKKKKKKgJKK> 7KKKKKDjsdsJKKp  ",
".%6VaJKKKKKKKKj  bKKKKKKKKKKAiKKKKKKKKKKKKKKD  aKKKKKKKKKKKKKzO7",
"DJVKKKKKKKKKKK0OsJKKKKKKKKKKKMKKKKKKKKKKKKKKs pDKKKKVKKKKFZKKVVK",
"KKKKKKKKKKKBZM 0KKKKDsaJKKJpsJKKKKKKKDKKDJaS;@JKKKx6 iKKK7 0BKKK",
"KKKKKKl9DKs*r1 aKKKz>  sDDa  >gKKKKKA=jKB%-0 3KKKDi  .jig   qDKK",
"KKKKKD< <xz;*  aKKKKy  =<q*  .GKKKKK8  wc;$ +rKKKKM@  o %  ;jKKK",
"KKKKD7        zJKKKJd7      5sDKKKJe        pKKKKKFJ%     ;JDKKK",
"KKKKZM5-4    *KKDKKKKz4    <sKKKKKJKj-e-    MKSDKKKKj9. *5lKKKKK",
"KKKKKKZDK077O8KKlrcmKDMp  rcDKKKKKKKKSKM0a6 DKK7piKKKDi,aZKKKKKK",
"KKKKKKKKKDKKAsKKK2 aKKJShsJJKKKKKKKKKKKKJKKlKKKf *JKKKJcJKKKKKKK",
"KKKKKKKKKKKKKKKKKp 9KKKKDJKKKKKKKKKKKKKKKGJKKKKM  SKKKKAKKKKKKKK",
"KKKKKKKKKKKcwKKKKC9@DKKKKKKKKKKKKKKKKKKKKK>BKKKKl sKKKKKKKKKKKKK",
"KKKKKKKKKKKBOKKKKKN pBMJKKSKKKKKKKKKKKKKKK9bKKKKK5-AiVKKBKKKKKKK",
"AFKKKKKKKKKK1sDKKKK ow%cJr9KKKKKKKKKKKKKKKp6MKKKK8 5+tKs.VKKKKKK",
"#VKKKKKKKKKKr#ljSKKw  %p4  gKKKKKKKKKKKKKKV qsjKKl1 $q4  4DKKKKK",
"cKKKDBKKKKKKl7>,rKKK2      5VKKKKKKKKKKKKKKw9r9DKKf      9zKKKKK",
"KAri<AKKKKKKKKJJKKKKi   wlpKKKKKKKKKKKKKKKKKKKKKKKM #>4ZgFKKKKKK",
"KV  rKKKKKKKKKKKKKKKssSMDKKKKKKKKKKKKKKKKKKKKKKKKKVaDKZKKKKKKKKK",
"Kz  cKKKKKKKKKKKKKKKKKKKKKKKKKKKDp*rKKKsorDKKKKKKKKKKKKKKKKKKKKK",
"Ke pDKKKKKKKKKKKKKKKKKKKKKKKKKKDu   lfC#  >CKKKKKKKKKKKKKKKKKKKK",
"Zo6KKKKAe2ZKKG99NKKKKKKKKKKKKKKKDO  $ 1   pKKKKKKKKKKDKKKKKKKKKK",
"6 iKKKN;  9VVa   pGKKKKKKKKKKKKKCV1      BZKKKKKKDGKKr5JKKKKKKKK",
"  aKKKKs   <2%   DKKKKKKKKJKKKKKKKf6O  %pKKKKKKKD2eas5VKKKADKKKK",
" fGKKKKcp      7MAKKKKKFKKg0SKKKKKKVi-9NKKKKKKKKKl5#=zKzauqKKKKK",
".JKJKKKKNe    7jKKKKKJwrcz4cKKKJDKKKDlDKKKKKKKKKKKAafKKa  MKKKKK",
"4KKmibmKKFv-.sMKKKKKKKk2=.sKVzj9DKKKKDKKKKKKKKKKKKKKJKKw OKKKKKK",
"pKKK5 eKKKKVlAKKKKKKKKKZieKKj  fKKKKKKKKKKKKKKKKKKKKKKF-=gKKKKKK",
"KKKKa 7KKKKKVKKKKKKKKKKKKDKKp  SKKKKKKKKKKKKKKKKKKKKVKs dKKKKKKK",
"KKKKV8OSKKKKKKKKKKKKKKKKKKKK4 wKKKKKKKKKKKKKKKKpzKKa:j& MKKKKKKK",
"KKKKKZ iANJKKDKKKKKKKKKKKVKM rKKKKKKKKKKKKKKKKV* pDq >  BKKKKKKB",
"dDKKKK  q*cKf9KKKKKKzMKKf2j2 jKKKKKKKKKKACDKKD1   %<. &BDKKKKKD6",
"OlxAKK0  -d0  gKKKKD<OsKr 2  cKKKKKKDNKKf<DKKNs       wKKJKKKKKZ",
"4;,eKKK5      2VKKKw   <5o  fAKKKKKK01pw4CKKKKKlDB%5. aKKpxBDKKK",
"KFDKKKKp   7jrJKKKMiX      4KKKKKKKKZp *zKKKKKKKKKVKFsjKKM  bKKK",
"KKKKKKKsiBcAKKKKKKKKgmM&   yKKfVJDKKKGNaKKKKKKKKKKKKKKKKKK> kKKK",
"KKKKKKKFKKKKKKKKKKKKKKKcJAasKKV  jKKKKKKKKKKKKKKKKKKflKKKKf*eKKK",
"KKKKKKKKKKKKKKKKKKKKKKKKKKKFKKK5 sKKKKKKKKKKKKKKKKKKuqKKKKKi#ZcK",
"KKKKKKKKKKKKKKKKKKKKKKKKKzNKKKJs#0KKKKKKKKKKKKKKKKKKN9NKKKKj 87>",
"KKKKKKKKKKKKKDKKKKKKKKKKKs8KKKKKs VCKKKKKKKKKKKKKKKKD-7JMKKN> %5",
"KKKKKKKKKZKKF*fKKKKKKKKKKD6ZKKKKb 709AKfjKKKKKKKKKKKK9;#$VKKV   ",
"KKKKKKKKz*MieiKKKKBKKKKKKD>>KZKKb# *<Ce :DKKKKKKKKKKKADDVZKKK&  ",
"KKKKKKKKJp$ 3KKia9lKKKKKKKi - VKKZ       6DKKKKKKKKKKKKKKKKKK0av",
"KKKKKKKKKKN8DKKO 2KKKKKKKKCDVcVKKK4   7w9JJKKKKKKKKKKKKKKKKKKDKK",
"KKKKKKKKKKKJKKD  iKKKKKKKKKKJKKKKK8qfrDKKKKKKKKKKKKKKKKKKKKKKKKK",
"KKKKKKKKKKKKKKj 7NKKKKKKKKKKKKKKKKCKKKKKKKKKKKZBDKKKKKKKKKKKKKKK",
"KKKKKKKKKKKKBJ2OFKKKDp*iKKKs%iDKKKKKKKKKKKVZKKe0KKKKKKKKKKKKKKKK",
"KKKKKKJqDKMw<a 5KKKJe   lgZ@  <AKKKKKKKKKD35ew9AKKKcSKKKKKKKKKKK",
"KKKKKKp <cZ.>  8KKKKDX  & 1   pKKKKKKKKKKKZe 1MKsq5wKKKKKKKKKKKK",
"KKKKKj    >;  0ZKKKKZV<      NVKKKKKKKKKKKKKMlKKa  VKKKKKKKKKKKK",
"KKKKDc9       cKJKKKKKf2X  =rKKKKKKKKKKKKKKKKKKKq .KKKKKKKKKKKKK",
"KKKKVBDlKi-<  DKZpVNKKKMr-0NKKKKKKKKKKKKKKKKKKKD$<MKKKKZAKKKKNJK",
"MFJK7iKKKJZKV0KKKe 7KKKKJjDKKKKKKKKKKKKKJKKKJlFp gKKJVe.;SKKf >g",
";w9wrDKKKKKKKKKKKx %KKKKKJKKKKKKKKKKKKKKerJKw i  bKKKc;  rec=  ;",
"B7 6CKKKKKKJiAKKKS9 mKKKKKKKKKKKKKKKKKKc. 7cpo* $bKKKD3    *  *9",
"KJhMKKKKKKKJ=bKKKKK-9KMKKKJKKKKKKKKKKKN*       ;DKKKKDKi      zK",
"KKKKKKKKKKKKiaDKKKK8 t%gKN5JKKKKKKKKKKDN-2<    wKKDKKKKMp<  ;zVK",
"KKKKKKKKKKKKd fSVKKr ##pa# pKKKKKKKKKKKKAKD3e8 aKKapgZKKSl77AKKK",
"KKKKKKKKKKKKD***9KKKr      *cKKKKKKKKKKKKKKFKKVzKKA. cKKKKmKKKKK",
"KKKKKKKKKKKKKDADVDKKz   -s7CKKKKKKKKKKKKKKKKKJKKKKK5 sKKKKJKKKKK"
};
