/* XPM */
static char *_c95fede588e4813ef5690a91f66fe135OKPvlzwEi8g9bBZ[] = {
/* columns rows colors chars-per-pixel */
"64 64 226 2 ",
"   c #030102",
".  c #0B0303",
"X  c #050902",
"o  c #0A0906",
"O  c #050409",
"+  c #0A0708",
"@  c #0C0A08",
"#  c #130303",
"$  c #1A0504",
"%  c #140A06",
"&  c #1D0904",
"*  c #130609",
"=  c #1C0609",
"-  c #130B0A",
";  c #1C0A0B",
":  c #1C1106",
">  c #1C120C",
",  c #1F0E11",
"<  c #1E1211",
"1  c #230702",
"2  c #240904",
"3  c #2C0C03",
"4  c #20070A",
"5  c #220C0C",
"6  c #2A0C0A",
"7  c #330D04",
"8  c #390E05",
"9  c #2B1206",
"0  c #23120D",
"q  c #2C130E",
"w  c #371607",
"e  c #3D150A",
"r  c #250E11",
"t  c #280F12",
"y  c #251213",
"u  c #2A1314",
"i  c #2C1916",
"p  c #2D1619",
"a  c #2D1A1A",
"s  c #331914",
"d  c #3B1B14",
"f  c #311719",
"g  c #341B1C",
"h  c #3B1E1B",
"j  c #3D2108",
"k  c #35221E",
"l  c #3C221B",
"z  c #361D20",
"x  c #391F21",
"c  c #2A2423",
"v  c #3C2324",
"b  c #3B2524",
"n  c #3E2528",
"m  c #3F2929",
"M  c #411908",
"N  c #431E18",
"B  c #4C2F04",
"V  c #42230B",
"C  c #562B0A",
"Z  c #49320A",
"A  c #442215",
"S  c #462519",
"D  c #4B231B",
"F  c #4B2A1E",
"G  c #562916",
"H  c #543411",
"J  c #593414",
"K  c #6B370D",
"L  c #75360A",
"P  c #70320E",
"I  c #693B15",
"U  c #422624",
"Y  c #4B2622",
"T  c #452B23",
"R  c #4C2B24",
"E  c #432628",
"W  c #442B2C",
"Q  c #4B2D2B",
"!  c #532C23",
"~  c #5B2D23",
"^  c #542C28",
"/  c #4F3027",
"(  c #4B312E",
")  c #543126",
"_  c #53322A",
"`  c #5D332B",
"'  c #4A2E31",
"]  c #453733",
"[  c #4C3233",
"{  c #513435",
"}  c #5A3936",
"|  c #533639",
" . c #55393C",
".. c #633225",
"X. c #693524",
"o. c #64352B",
"O. c #6A362C",
"+. c #63392C",
"@. c #6B3B2D",
"#. c #703529",
"$. c #743B2D",
"%. c #7B3D2E",
"&. c #643B33",
"*. c #6B3C31",
"=. c #733D32",
"-. c #7A3D30",
";. c #783F38",
":. c #67460D",
">. c #77460C",
",. c #6C4516",
"<. c #744C14",
"1. c #764719",
"2. c #7C5412",
"3. c #5B4039",
"4. c #764235",
"5. c #714536",
"6. c #7B4233",
"7. c #794739",
"8. c #5B3E42",
"9. c #5D4142",
"0. c #604544",
"q. c #624646",
"w. c #644748",
"e. c #66494A",
"r. c #694D4D",
"t. c #774942",
"y. c #6D5151",
"u. c #85390B",
"i. c #803E30",
"p. c #97490D",
"a. c #874B15",
"s. c #924A12",
"d. c #85591A",
"f. c #955614",
"g. c #A85A19",
"h. c #B65A14",
"j. c #916618",
"k. c #AA6618",
"l. c #B96519",
"z. c #AB7618",
"x. c #BB791B",
"c. c #8D5C23",
"v. c #844434",
"b. c #894535",
"n. c #8D4737",
"m. c #834936",
"M. c #82453A",
"N. c #844B3A",
"B. c #8C4A3A",
"V. c #904835",
"C. c #944C3B",
"Z. c #9B4F3C",
"A. c #88513D",
"S. c #95553D",
"D. c #9C533E",
"F. c #A3533D",
"G. c #A9533E",
"H. c #B67E24",
"J. c #D05C0A",
"K. c #C45B16",
"L. c #DF6D14",
"P. c #CC781A",
"I. c #D87816",
"U. c #E86F11",
"Y. c #E57719",
"T. c #864C43",
"R. c #8C5748",
"E. c #975647",
"W. c #9B5342",
"Q. c #9C5A44",
"!. c #9C5F52",
"~. c #A55543",
"^. c #A55943",
"/. c #AC5B45",
"(. c #A25D4B",
"). c #AA5B48",
"_. c #B35D44",
"`. c #B35E4A",
"'. c #9D6151",
"]. c #AE624B",
"[. c #AB664A",
"{. c #B46145",
"}. c #B4624C",
"|. c #BC654B",
" X c #BA684B",
".X c #A96655",
"XX c #B26552",
"oX c #BB6552",
"OX c #BD6B52",
"+X c #B46C59",
"@X c #BA7159",
"#X c #BA7762",
"$X c #C1674C",
"%X c #C36B4E",
"&X c #C36D52",
"*X c #C96E56",
"=X c #C47255",
"-X c #CC7354",
";X c #C6735A",
":X c #CB745A",
">X c #CC795B",
",X c #D37556",
"<X c #D27559",
"1X c #D37B5C",
"2X c #D97B5B",
"3X c #CA7A66",
"4X c #D27B61",
"5X c #DE7F60",
"6X c #D47E69",
"7X c #B89720",
"8X c #C98618",
"9X c #D6891B",
"0X c #D59815",
"qX c #EB961A",
"wX c #DDA317",
"eX c #F4A61B",
"rX c #D49022",
"tX c #E29323",
"yX c #CAA328",
"uX c #DC845F",
"iX c #CC8066",
"pX c #D6826A",
"aX c #D78872",
"sX c #E38666",
"dX c #E3937C",
"fX c #EB9D84",
/* pixels */
".     . . .       . # = 5 = 4 t = #                 % l T k u $ y v ; .     . . .     #       . . # 4 g n [ 8.w.e.0.w.0.0.e.0.0.",
".     .           . # # = $ $ = $ #               g _ ` ` s . % _ Y k       - # # . . $     . # # $ t g E [ 9.r.r.e.r.w.0.0. .9.",
"                  . # # $ # # $ $ #           . R *.*.*.*.9 l F &.q g .     a ; = . # = . . . # $ u f z W [ 8.r.y.r.r.0.9. .{  .",
"                  . # ; ; # # $ # .         . ! @.=.4.4.F = +.5.4.) U .   . k ; % . # 5 # # . # 5 f x v W ' | 9.r.w.0. .| | {  .",
"                  . # $ $ $ $ $ # .         ) $.v.v.M.=.# D N.N.4.+.R     - U y   . . $ # . . # = p g z n W m  .0.|  .' Q { { { ",
"                  . # ; 5 $ 5 ; # .       Y @.v.C.v.2 ; . v.v.m.*.l s     < T %   y - . . . . # $ 5 u g v g a  .8.| ' U E W { Q ",
"                  . # = t 4 t 5 = . . . ; @.C.W.~.C.& l o.].D.v.0 . .       0   > a < - . . . # # & y p f g y [  .| E g v E ' E ",
"                  . # # ; t u u ; . . . =.n.Z.).XX}.C.W.}.W.v.d s F . .         k k i < - . . # # $ 5 u 5 g - n ' [ v g g h x g ",
"        .       . . # # = t p u = . # g ~.F.F.`.&X3X&XOX}./.b.# N.6.. O   ;   ; T v g u ; # . # # $ = ; ; $ . 0 g W v g f g u u ",
"      .       . . . . = 5 5 u t $ . q C./.`.`.oX;X6X4XXXXX/.h o.S.7..     >   u / T h s u ; # # . # # = ; $ . m v f n x g f 6 5 ",
"          . . . . . . # = 5 5 $ #   o.C.~.`.oXOX3XpX3X4.` E.s C.S.+..     i   & R E g h s y $ $ . # # t % . < m p g v v f u = $ ",
"          . . . . .   # # $ # = # 5 F C.}.OX&X;X6XaXdXXXXXD D T.O.s     % #   i R - 2 Y h u u 5 = . * = # # . $ y b g u t 4 # # ",
"          . # .       . # # # # . ~ O.C.`.oX&X&XpXdXfXaXOX@._ q   .     . -   = k = Y o.Y s g u = ; ; , < u . - $ y p = # . .   ",
"            .         . . .       $.C.` /. X}.;X3X6XaX4X&XQ.# . # .           . ` ! O.&.! S n v ; y < p ; i . < = $ ; #         ",
"                    . . . . . . s Y v.B.E.).&X;X6X6XdX;X;XG ! ! m.$           . ~ 6.^ ` &.R Q U 0 . # = ; y   y p 5 $ .         ",
"                    . .   . . . 9 D.b.b.B./.OX|.;XaXaXN.T.d  X/.|.R       #     d =.i t.t.^ Q E p = 5 . ; . . p u 5 #           ",
"          .       . .         . . C._.$.! }.|. X*XpX3X@.0 (.}.|.D.i       #   @ ; l 4.T.t.^ R k p 5 5 ;     r z u & #           ",
".         .                   s N *.|.D.o.B.*X4X4X>XpXN.7.$X%X&XZ.u         . . y @.M.*.o.` Q g f r 5 .   ; 5 p t $ .           ",
"                              ~ %.@ 6.$.$.|.$X1X1X1X1XOXXX&X%X_.V..         R u - M.N.*.o.` ^ g f t $   . y = ; ; # .           ",
"            O             .   %.F.. . 6.G b.*.-X1X:X-X|.,XG.$X%X/.. .     ; D.S g ;.6.6.Y h Y s y ;     ; 5 $ $ # #             ",
"                            . D.~.Y s ^.|.].OX-X-X|.G.|.|.~.;X&XF.        g v.$.+...m.=.s g R u ; %     = 5 = = # .             ",
"                            $ b.`.M.  m.,X-X-X2X|.{.|.|.{.&X>X}.D.        g h m.*.5 =.` ` ` Y ; .       # ; $ $ # .             ",
"    .                       y v.`.oX  ; 1X5X-X<X-X|.,X<X:XsX>X|.b..     2 B.s v.! ; ` T.o.&.g           # $ = # .               ",
"    .                       0 ..O.Q.  - D.sX^.-X/.%X4X<X<X&X|._...      $.^.b.V.M.~ *.E.7.g h ; #       . $ 1 # .               ",
"  . .                       X.C..X&.  ( (.` ! *.R <X<X*X:X|.{./.$       =.}.Z.Z.C.6.4.T.=.h Y f #       . # # # .               ",
"  . .                 .   . B.oX+X'.d   F Q.:XsX^.-XsX-X4X{.{.m.        -.`.~.D.v.B.v.6.$.` D u         . . . # .               ",
"  . .                 .   . B.:X4.pX*.  6.].&X>X=X,XXXuX,X|.=XA         $./.F.C.C.C.B.$...~ S       *   . . # # .               ",
"                      .     B.Q.*.N.    # ;X&X=X>X1X1XuX|._.].. .       v./.n.C.b.n.v.#.o.O.5     . = . . # # # # .             ",
"                    . .     g ` Q i k -   T.&X=X[.-XsX<X{.%XS.. .       R.`.`.C.W.b.v.#.~ F       ; ; # = $ = $ # #             ",
"                    . . .   l } 3XT.7.7.  % oX&X-X-X&X X*XuXT . .       E.`.oXC.n.-.v.-.@.Y     = p a $ = $ = = $ # .           ",
"                    # # .     #X#X.X#XiX.   m.>X>XOX/.=X$X[..           (.&X}.C.C.b.i.$.7.y     u g g y # $ $ = $ # .           ",
"                . . # $ #     t._ .XR.aX) . 0 @X1XQ.(.=X&Xv.            #XOX}.~.C.n.$.X.=..   < v n n f y . $ t 5 ; # #         ",
"            # # $ # # = . .   . T 5 % T 5.. . R.[.E.:X=X>XA             #X}.}.^.v.%.d M 3 #   n Q Q [ b y . $ u u 5 4 = .       ",
"          . = 4 $ $ $ = # p = # # . # # $ . . ) [.OX&X>X:X.   O         +X}./.D.$.A . k.h.7   { { W [ z 4 # = u y r y $ .   .   ",
"          # 4 u r t u 5 y g i $ $ # K V & . . . S.%X=X=XA.              3X;XXX`.d S   w k.<.I S _ E W g 4 $ = t u u u = . . . . ",
".         $ t f g g x p p 0 = = & :.9Xf.2 . .   6.&X=X=XT               iX6X}.D.$ & . H.Z d.k.g._ W n u t 4 = t 5 u u = # # # . ",
";         4 u x n E n p f 3 s.1.2 0Xz.w . #     l  X=X^.              c iX;X).-.9 :.% z.yX:.. # Q E v u u u t u 5 u p = # # # . ",
"4         r u E [ [ u U e e Y.tX<.d.1 C . 3.#     [.@XS.              ] @X!.~ ! $ X # 9 j.eX9X1.E U n u p p $ 5 5 % 5 ; $ # # . ",
"5         , g [ | | 2 L u.7 M e 2.2 d.8X# 5.M     Q.[.N.. .           0.!.q $ # % X . 2 6 <.f.A Q E v p y # $ 2 5 X $ ; $ # # # ",
"q         - n ( { s J x.C 2 G H H z.qX<.# +.D           . .             # # $ # o X . # # # $ u ( E x p ; # & 7 d # $ = $ # # # ",
"q .       . m ( X.g.,.B k.2 K.qXqXqX,.& # # .           .               $ $ $ # . . = # . . # m Q U g u # # 2 f.k.1 $ $ $ $ # # ",
"5 .         m Q a.s.V yXz.2 7 L f.>.2 # # # .                         . $ 1 1 $ . . # # # . 0 ( U v p u # $ $ >.9X>.2 # 5 = $ # ",
"$ .         b W & >.wX7X6 & 2 3 3 2 $ # $ #                           # 1 2 2 $ $ $ # # # . i v v g u u $ $ J j ,.x.3 . 5 $ $ # ",
". .         a v K P.j.Z & & 6 2 2 1 # $ # .         .                 # 2 3 V 2 2 1 $ # . . . . y i u u & & <.8XH C ,.l.q ; ; $ ",
"            ; g 9 6 & $ $ = 2 2 2 2 $ # . .         .               . $ 3 7 P.3 2 1 $ # $ .       . 5 5 & 2 3 H.x.9 c.h.q 5 5 ; ",
"            . p 5 # # # $ $ $ $ = $ # . . .     O   .               . 2 3 J eXd.V 2 & $ u.# # . .     $ $ & 2 C 9Xz.$ $ 5 u 0 ; ",
"              p p . . . . # # # # # .             O .             . # 3 7 e k.eXrX2 a.I.J.1 2 # . .     . # 2 3 1.eXP.L 5 u 0 5 ",
"              y , .   . . . . . . . . O O         O .             . # 2 3 e e K x.w x.I.P 3 7 2 # . .     # $ & 6 f.h.u.; 5 ; ; ",
"                      . . . . . . . . O   O O +   O   .         . . # 1 3 g.C e M g.,.3 2 8 7 2 $ # . .   . # # $ 2 2 2 ; = $ $ ",
"  .                     . . . . . > . O O O O @ O O   .         . . # $ 3 s.K.u.8 I = 2 u.8 3 2 = # . .     . . # $ $ 5 4 $ # # ",
"  # .             O O O   O . : 0 0 % O O . . o o O . .           . . $ 3 7 h.qXg.G a.K.L 7 2 2 = $ # .       . . $ $ & 4 $ # # ",
"  5 $           O O O O O   . : 0 : > . O @ o o O o O . O         . . $ 3 3 7 I L.U.Y.h.7 7 2 $ $ # . .           $ $ $ = # . # ",
". g y           O O O O O . % 0 : & % o O o . . . o o . O O O O   . . $ 2 3 7 7 p.h.8 3 7 7 2 $ # . . . .         . # # $ # .   ",
"* z .           O O O O O o : & > % o o . o @ o o . o . O O O O   . # $ $ 3 7 3 3 2 3 3 3 3 1 # . . . .           . . . # .     ",
"- +           O O O O . . @ > % % % o @ . o o o . o . . O O O O O . . # $ 2 2 6 8 7 7 7 2 2 & $ . . .                   . .     ",
"              O O + O o o @ - o % % - @ o o o o o . . . O O O O O . . . # 5 ; 2 6 3 3 3 2 & $ $ # . .                     .     ",
"            O O o . o . o o o o o @ @ @ o o o o o . O O O O O O . . . . * = = ; 6 2 2 2 ; $ $ # . .                             ",
"        O   O o o o @ o o o o o o o o o o o o o . O O O O O O . . . . . * * $ = 5 2 5 ; $ $ $ # . .                             ",
"            O o o @ o o o o o o o o o o o o o . . . O O O O O O . . . . * * * $ ; = = = = $ # . . + .                           ",
"          O O o . o o o @ o - o o . o . o o o . . . O O O O O . . . . . * # # $ $ $ $ $ $ # # . . + .               O   .       ",
"    O O O O O . o o o o o @ @ o . . o o o o o . o . O O O O O . . . . . . . . # $ # $ # # # . . + +                 O O . .     ",
"    O O O O o . o o o o o @ . o o o o o o o o . o . O O + + . . . . . . . . . . # # $ # # # . . + +             O     O . .     ",
"O O O O O + o o @ o . @ o @ o o o @ o o @ o o . o . . O + . . . O . . + . . . + # . # . . . . . . O     O O   O O   O O . X .   ",
"O O O O O + + o @ o . @ o @ o o o o o o o o o . . . o o o o . O + O O + . . . + . . . . . . . O O O O O O O O .     O O . o .   "
};
