/* XPM */
static char *_381a01515f04066a0654b14ff41b9f0DaH8etxZQglyff3K[] = {
/* columns rows colors chars-per-pixel */
"64 64 253 2 ",
"   c #030203",
".  c #0C0204",
"X  c #0C0807",
"o  c #05010B",
"O  c #0A020D",
"+  c #0B0A0B",
"@  c #130204",
"#  c #1C0203",
"$  c #13020C",
"%  c #1B020B",
"&  c #150A09",
"*  c #1B0B0C",
"=  c #1D100F",
"-  c #070111",
";  c #0B0113",
":  c #0E0A12",
">  c #0E011A",
",  c #130214",
"<  c #1B0313",
"1  c #130B14",
"2  c #1A0A11",
"3  c #12021C",
"4  c #1B031D",
"5  c #140B1A",
"6  c #1C0B1B",
"7  c #191219",
"8  c #230103",
"9  c #2C0204",
"0  c #240A05",
"q  c #2A0A04",
"w  c #23030B",
"e  c #2C040A",
"r  c #230B0B",
"t  c #2C0D0C",
"y  c #320204",
"u  c #3C0605",
"i  c #350A06",
"p  c #320409",
"a  c #320C0C",
"s  c #3B0C0A",
"d  c #24110B",
"f  c #2C130B",
"g  c #2E180B",
"h  c #32130C",
"j  c #3B130C",
"k  c #371809",
"l  c #230313",
"z  c #2D0412",
"x  c #230C13",
"c  c #2A0D14",
"v  c #22041B",
"b  c #240A1C",
"n  c #2A0C1C",
"m  c #360D13",
"M  c #241412",
"N  c #2C1315",
"B  c #2B1616",
"V  c #2C121C",
"C  c #331414",
"Z  c #3D1513",
"A  c #351B13",
"S  c #3D1C12",
"D  c #33131D",
"F  c #331A1A",
"G  c #3C1C1B",
"H  c #3C230B",
"J  c #3C2314",
"K  c #3C2518",
"L  c #0F0220",
"P  c #130124",
"I  c #1A0324",
"U  c #170A22",
"Y  c #1A0B24",
"T  c #16012A",
"R  c #19022C",
"E  c #1C0A2B",
"W  c #170131",
"Q  c #1B0133",
"!  c #1E013A",
"~  c #260C22",
"^  c #2B0B25",
"/  c #240729",
"(  c #281125",
")  c #341523",
"_  c #3A1423",
"`  c #381727",
"'  c #3C1B21",
"]  c #210334",
"[  c #280A35",
"{  c #21013D",
"}  c #361035",
"|  c #3C2726",
" . c #460A06",
".. c #420B0B",
"X. c #540C09",
"o. c #47160A",
"O. c #42150C",
"+. c #4C1C0C",
"@. c #54160D",
"#. c #520F17",
"$. c #461A17",
"%. c #4B1A13",
"&. c #551C14",
"*. c #591C15",
"=. c #670E0D",
"-. c #651609",
";. c #7F150E",
":. c #641C13",
">. c #6A1812",
",. c #771B15",
"<. c #48260A",
"1. c #562E0D",
"2. c #432315",
"3. c #4C2214",
"4. c #4A2B15",
"5. c #45241A",
"6. c #4A231A",
"7. c #4C2A1B",
"8. c #532315",
"9. c #582616",
"0. c #52251A",
"q. c #552C1C",
"w. c #5C2B1C",
"e. c #58371B",
"r. c #5E331C",
"t. c #672518",
"y. c #642D1C",
"u. c #7B251B",
"i. c #782919",
"p. c #64341B",
"a. c #6A391B",
"s. c #72341E",
"d. c #79371B",
"f. c #451D24",
"g. c #472A23",
"h. c #4D2C23",
"j. c #542B23",
"k. c #5D2D23",
"l. c #592C27",
"z. c #5B3424",
"x. c #573825",
"c. c #642C23",
"v. c #792B23",
"b. c #643223",
"n. c #6A3627",
"m. c #633924",
"M. c #763522",
"N. c #733B23",
"B. c #7B3B25",
"V. c #7D3D29",
"C. c #653731",
"Z. c #684519",
"A. c #76461D",
"S. c #7B531A",
"D. c #6A4423",
"F. c #784727",
"G. c #7B442A",
"H. c #795225",
"J. c #684830",
"K. c #210040",
"L. c #88160E",
"P. c #881B13",
"I. c #921A17",
"U. c #B61913",
"Y. c #872716",
"T. c #842F1D",
"R. c #932513",
"E. c #9A2716",
"W. c #942C1C",
"Q. c #87351C",
"!. c #99371D",
"~. c #A52918",
"^. c #BC2C15",
"/. c #A5391C",
"(. c #B7361A",
"). c #BB3A1B",
"_. c #952E23",
"`. c #843C23",
"'. c #873826",
"]. c #973623",
"[. c #B72E20",
"{. c #A73524",
"}. c #B63C22",
"|. c #EA1E0D",
" X c #E81F12",
".X c #C82A1B",
"XX c #DA2E16",
"oX c #CB351A",
"OX c #D8371A",
"+X c #EC200E",
"@X c #E72B14",
"#X c #E53216",
"$X c #EA3817",
"%X c #ED3B14",
"&X c #E5361A",
"*X c #C93921",
"=X c #D93C21",
"-X c #87471E",
";X c #98481D",
":X c #8A591C",
">X c #98511D",
",X c #A7431C",
"<X c #B0501C",
"1X c #926419",
"2X c #A9751B",
"3X c #8B4526",
"4X c #864828",
"5X c #8C4C2C",
"6X c #964629",
"7X c #9C4B2B",
"8X c #885529",
"9X c #955326",
"0X c #9B522D",
"qX c #924C31",
"wX c #A74726",
"eX c #B34324",
"rX c #B84825",
"tX c #A75327",
"yX c #AB552B",
"uX c #B85627",
"iX c #A65431",
"pX c #B55630",
"aX c #996520",
"sX c #A76A27",
"dX c #B86426",
"fX c #AD7923",
"gX c #BC7924",
"hX c #C7451C",
"jX c #DD431D",
"kX c #D9541D",
"lX c #E9461B",
"zX c #E8571C",
"xX c #F45A1A",
"cX c #CC711C",
"vX c #E46B1A",
"bX c #E6771D",
"nX c #F1731D",
"mX c #C94B28",
"MX c #D34723",
"NX c #C85627",
"BX c #D45524",
"VX c #C15C32",
"CX c #E24326",
"ZX c #E55221",
"AX c #C56826",
"SX c #D86729",
"DX c #CA7328",
"FX c #D97526",
"GX c #C36732",
"HX c #E76A23",
"JX c #E97A23",
"KX c #D58028",
"LX c #E98C26",
/* pixels */
"    a y y 9 8 .           . .     * S X q.o     @ p.    r # . @ O.q . o o   .                   . @ S.BXy. .y.,XDX@             ",
"    3.y 9 8 8 #   J 4.  . C j.          r..     o o o   2.2.j @ . 0   o     2.. o 7.2.            . 0 NXCX&X$XoX9X.     @ .     ",
"    9 8X9 8 i 8X. & d . 9 8 b.d                 o o o     . p.K O G.* o o   .     f d   o o         @ 3.OX|. X{.d       7.k     ",
"    9 SX-.9 ~.dX.     m.d.&.5X@ J g   M       o o o o o o o O o o C   o o o   o   o           o     . .  .;.=.# .               ",
"    G 3X,.*.T.a..     8Xt.9.9X. A *   .         o   o o o o o O o O o o o o O o o o   .       o       . . @ @ @                 ",
"    x.e.# `.# F..     0XMXmX<X. o M *     :   t : o o o o o o o o o o o o o o o o o 2.9 A       @ @       f               q.    ",
"    # pXs.-.'.tX.     O.~.[.:.o o o       o   h O o o o o O O O % % O o o o o o o o N.%.m.    9 9 q h.@   M               f     ",
"    @ y.XX@X).2.      . @ # 5.        o o o o o o o O o o A M % w.8 @ o O : o o o o Q.{.M.O   4X%.5Xt A                         ",
"      .  .=.9 .   .         @ o   O   o o o o o O o o O o % O c d.w.h O O O o o o o h O.. O . 9XN.7X6.8 # @ .   X f             ",
"        . .     @ 8 #     .       .   o o : < : O O O o O - - A NXrX7XO O O O - : o m.& o o O !.OX(.w.9 j 2.8 # . &             ",
"              . 0.9 S k # # .   @ . . O o o F O % # O - O 5 - O Y.~.%.> - - O O o o O o o o O # *.p tX@.Y.F.O.8   +             ",
"X       . .   * 9X:.T.n.9 8 8 # 9 # @ # $ O - w 9 8 # - - F F O O O O - - - - - O o o ; o : 1 5.2.# F.c.o.F.c.q..     +   2..   ",
"        # # . . r.q.9 F.t.8 y y y 9 8 8 8 @ O 4XX.9 5X; : , , 5 , - - 5 - - - O - o o O o O $ * f $ yXeXrX7XrXGX  . .     2.:   ",
"      @ p.8 r.. p.[._.F.].a y y 8.9 8 8 8 # O N.u.:.`.< V ; ; ; ; > ; - < , , O o - - - O O 3.* o h @.E.Y.u..XQ.    . X         ",
"      t iXs 6X# @ X.u # 8 c.9 <.HXo.8 y 8 # O G.O.0.4XO 5 - ; ; ; - ; e 9 e s 8 $ - - - O O 7.M o G.q.. . 0 9 . # 8 # * @       ",
"      F.O.8 a.m.A 9 5X0.u.Y.9 1.HXX.&.VX# # F 9.).oXM.: ; ; ; , ; ; ; 4X%.3X'.M.G - > - - - - O o % O o   o . @ y 9 8 8 @     + ",
"    @ r.eX].rX0 . G.s.3Xd.I.D.h 3.8 s ;Xk J x $.p ..$ ; ; ; ; > ; 5 , yXB.6Xb.+.g.- - - - - O O O - o o o o o % u yX9 j @     + ",
"X   d #  ._. .@ & d.OXMXS $ sXdXA.h f 4XFXe.; ; 5 ; , ; ; ; ; ; ; > , wX=X(.Y./.x - - - - - 2 t O O o o o o o # a `.&.B.d     + ",
"        . . . * 6.O O.i O O 9XxXkXNXNXzXnX4.; 3 ; 5 > ; > > > > ; ; ; $ t.8 q $ ; ; , $ ; - N N.o - ; : O o o @ D.0 @ +.J.      ",
"        o . 1   O O O O O O D.lX%X%X%X%XHX% ; ; ; > > ; 3 > > > ; > > ; k.&.B.x < $ a 3.C > 5 $ o O O x 2 o o 1 rX}.].MXq.      ",
"        .   o     o O ; O $ $ rXXX@X@X*X6X; > ; > > > > > > > 3 > > > > C.9.V.f Z i 9 h.C ; , > % $ M $ O o o O %._.~.i.@       ",
"    +     r $ O o o O : $ B O 8 q.u.'.6.. ; ; > > > > 3 > > ; 5 > > > 3 D T.t.i b.c.w.z.6 ; 7 ; 7.K - O O O o o o @ @ q 6.      ",
". h.o     C = o O o o - - - - @ @ @ . @ X ; ; l > > > > > 6 , 5 > 3 3 C > V Z q.!.}.eXp.; ; ; N O ; - O - O ; o : o @ b.k.. +   ",
". K           o O o o - - - : ; O , O O , 3 , ) 3 3 3 3 4 e % % > > 3 n > l 6XY.`.0.a ; ; ; ; F - - - - O o o o o o O v.v.      ",
"# 0 # .   o o O : O 5 - - - > - 5 > ; < 8 < 3 > > > > > ' B.%.0 P 3 x 6 > 5 o.:.W.p.> > > ; ; ; ; 7 - - O O o o * r o = .       ",
"9 8 8 #   O k h O O O - - - > ; 5 5 , a.8 b.3 3 3 > > 3 F A.w.4X3 < k.G 3 3 < w #., 3 > > 5 ; ; ; ; ; - - O O O M B o = X     + ",
"y 8 8 8 . . 3.q.O O O - - ; ; ; ; ; 6 7X$.3XK > Y > > P b BXMX,X3 j.u.'.3 3 3 3 3 > > > 5 > ; ; N j ; < $ G A O o O o 6.r       ",
"@.t.y.8 o 4.N.O O O - > - 5 ; ; ; > 6 GX!.uXp.3 3 3 3 3 4 @.,.$.S b u.&.< , 3 > > > 3 > > > 3 ; N q.> c x $ $ 1 1 o o O o       ",
"9 T.F.f O g 3.t C O O ; O - ; 5 , 3 r /.OX).F 3 3 $., 4 ~ l w 0 Z P 3 l p 8 w , 3 > > > > 5 > > ; ; ; ; ; - - 7 o O o O     o : ",
"f 7.tXsXM O O c.c.N - % 9 # Z x h.c k.@ &.# < 3 v 8.8 3 P z d.9 w P P 5.`.u 4X% < 3 3 3 , , > > U > ; ; - - - 5 O O o O o     o ",
"NXBXzX>X* % $ M.{.B ; 3.9 5.b.n 3 3 < $ , 3 P 3 V N.V.3 P C 4Xb.j I P x.s.c.F.9 8 c w...8 % 3 U > 5 ; ; ; - - ; O O o O o   o   ",
"%X$X$X-X# $.8 j p - O 0Xo.wX7., 3 < Z 8 < 3 P P 5.eXeXb ~ 5XwX6XpX3 3 e.eX{.wX9 s.5X3.G.j.t n > > > C ; > ; 5 - O O O o o o     ",
".X(.'.@ S 6X@.qXO > < a $.i 7.Z 3 c d.j.l P P P D < , I x w.OXXX!.4 j 8 t.Y.%.$.u.p.t VX,X6XV > V V 7.c w ; - - 5 $ F $ o o   o ",
"r # @ . z.o.j.m.O ; C y.n.6X9.`.V h.NXrXN.P P P P P P I k.z.a s < / '.t.l.x.d.O.8.dX< Y.~.$.3 > V b ; b.V., - - $ 9 8 # O o     ",
"6X@ .   5.7X{.Q.- $ h.s.B.*.T.0X3 3 W.R.' P E P P P T m.i.5XP I P I iX!.7XT.BX*X=XeX3 , < 3 > > > > 5 Z u.5 ; < 9 9 9 8 @   + O ",
"BXO O o O Z :.# 5 $ < T.t.].XXT., 4 < 2 3 P P P P b I 6.!.i.P I / ~ W.^.+.i ..{.i.a P ( Y 3 3 U P > 3 ; ; > , w $.9 9 8 A . O : ",
"'.X O O O O O O , O ; ; , % ..< 3 V 0.P v P P R ~ k.P T 4 3 / I f.z.s.y.V < $ $ O 3 P 3 > P P 3 > 3 U ; 3 l e 3.yX8 8 8 dX@     ",
". O O : o $ < w w @ $ $ < , > 3 P 3 4 P j.I P P I b P P f.$./ 3 T h.0.8.| P ) P P v 4 P P P P P > 3 3 ; ; l 7.F.kX;.9 ~.FX@ o   ",
". O 7 O O w s y 8 8 # # # < > 3 P L P P I P P P P P T R ^ ^ $.w l t _._.4 R ^ P T G ) P P P Y 3 3 3 3 > > x 5.4.-X-.t.i.s.| @ X ",
"  o O 7 5 y y y 9 9 8 8 8 # 3 3 b b Y I T P P T P P T T T I y 8 8 b.l 4 T R P T T 4 P P P P 3 P U 3 U > > C yX8Xh 8 6X@ H.g 9 7.",
"  o O O w y p.y 9 8 8 8 x.8 V 3 G V P ^ P R P T R T T R T ` 0X9 0Xw.( T R E T T T P P P P P P P P 3 U > > < mXZ.rXt.X.i.SX0 j.b.",
". O o $ b.y DX .9 8 8 *.gX8 0.4 P 4 4 R P R P , P E T T R h.t.Z y.x.I T R T T T E P P P R P P P P 3 3 3 > 6 s # ].#X#XCXN.9._.a.",
"# # O O y.u bX~.9 8 8 ~.JX# < 3 P I I P P P R $ P T T R R F.`.9.tXC R R R R R R T T P P P P P P P P 3 > > F , $ A I.U.Y.. $ s . ",
"8 p.$ O e y DXOXP.8 I.jXDX# % P P P P P P R T < T T R R Q D W.*XW.I Q R R R R R T T / ^ P P P P P P > g., 3 > : O . @ . O O O + ",
"..uX@ O % H.k 9.y wXu 9.<.Z.x P E P P P R P T , T R Q R R ( # s , R Q R R R R R T T I P P R P P U P P 3 > , < @ $ , ; O - - o o ",
"c.p.J - % aX<X8 # iX# 0 AX1X, P P P P P R 4 % @ < T R R Q R T T R Q Q R Q R R R Q T l.I T R P ( I P P 3 3 w 9 9 8 0 O - O - o o ",
"n.yXf - < :XcXF.1.q.4Xo.vX8X3 P P P P P n p y 9 # % I Q Q Q Q Q Q Q Q W Q Q Q R R T ^ I T P P I P P 3 3 l 9 y 9 8 8 $ 1 O - o o ",
"oX!.O - ; 4.HXlX(.mXhXjXHXH 3 I R P P v y y y 9 8 8 % T Q [ [ ] Q Q Q Q Q R Q R R R T T R E P _ n 3 P 3 9 %.9 8 8 S 8 , - r O o ",
"%.@ ; - ; @ eXXXXX@X#XXXrX@ 3 I P T I e y y 9 8 8 8 8 4 R [ ^ ] R R Q Q Q Q Q Q R R R R T T R ' j.P P < :XAX9 8 8 dXaX@ ; z.$ : ",
"O $ - - - $ 8 :.yX|.tX>.p $ P P P P l +.A.9 9 8 8 h S.% ^ [ Q / z w R Q Q Q R Q R R R R T T n P P 3 3 w sXhXp.8 w.hXdX@ - O o o ",
"o : - - - $ @ @ S =.2.@ @ , I P P E e fXFXy 8 8 8 ;XLXq n [ Q ] s.j./ Q Q ] ) Q W R R [ T I 5Xn P w.$.$.o.R.W.8 Y.R.O.A O O O O ",
"o O - - ; O $ @ @ . @ . $ ~ I P P I 9 cXzX+.8 8 k /.nXZ.< Q Q ] pXeXC.Q Q Q R Q W R R E R T v I P n.7.e.S.# 8 # 8 # a.H.O O O O ",
"1 - 5 ; - ; ; $ $ $ O 0 3 P I P P v 9 >XoXBXy # !.MXrX4.% Q ! Q Y.R.} Q Q Q Q Q Q Q R R R R P P I 3 3 <.KXq # # @ f FXA.; - - o ",
"o O B x - ; > , 3 3 > G 3 P ' ' P l D.9 y L.#.8 ,.X.# e.J Q ! ! R R ! Q Q Q Q Q Q Q R R R R T I P P I 9 FX-XQ.s.9Xi.HXJ O - : o ",
"o O ; ; , ; > n 7.3 3 P U P I I P w fX<.# # # # # # # gXk Q ! ! ! ! ! ! Q Q Q Q Q Q Q T R T ) w.P T P % yX&XoXOXOX&XNX@ O - - o ",
"o O - - ; ; ; , b > 3 P 3 I T T T w 2XdX# # # # @ @ 3XLX0 Q ! ! ! ! { ! Q ! ] [ Q Q f.j.I T / j.P P P < 9 P.;X|.).P.@.8 $ - O o ",
"O O O - ; ; ; > > > > P E P P T T l 1XvX8 8X0 q F.k hXbX@ Q { ! { ! ! ! { ! ! Q Q Q N.$.j.T T P P P b 6 @ @ e.L.p.@ n.+.z.- ; : ",
"O - - ; ; ; > > > > 3 P I ~ P P T < 1.bX).kX'.,X(.rXlXDX@ Q ! { { { { ! ! ! ! Q Q Q f.R ^ T T T P P I P , @ @ @ . . c.v.j.- O - ",
"O O > - ; j.) 5 3 U P P P P P P T 4 # rX#XXX#X@X#X#X$X-X< { { K.{ { { ] ! ! ! Q Q Q W Q R T R v P P P P 3 , @ $ O O m >.$ - o O ",
"O $ , ; ; < 6 > > > 3 P P 3 P P P I # 9 E.u ZX+XeX,.R.. 3 { K.K.K.K.{ ` { ! [ { Q Q Q Q R R R ' P T R P P l 8 % ; ; ; ; ; - O O ",
"O N $ - ; ; ; > > > P P 4 < I P P T $ @ # @ uXU.:X@ @ . m [ { K.K.K.{ { ! [ ] Q Q Q Q Q R R R P P P P P 4 G.9 N.C , ; ; $ O O O ",
"8 # $ ; ; ; , , > 3 P 3 0.9 5.P P T 3 @ @ @ @ @ h A @ , ` [ K.K.K.K.K.{ ! ! ! Q Q Q Q R R R R T T P P P l wXu ].7.F ; < 9 0 O - ",
"y 9 8 # ; 5 F m < > P 3 V.*.N.P P l w # @ @ @ . j.n.< Q { K.K.K.{ K.K.[ ! ! ! Q Q Q Q R R R R T / b P P F r.w.O.x.; ; 6.B.`.C - ",
"y 9 8 8 N < 9.9 7.; P P 7XW.3XP l y 9 8 8 % < , l _ Q ! { K.K.} _ K.K.K.! ! ! Q Q Q R R R R R T ) 0.P ) C uX).mXq.; ; h.3.8.K O "
};
