/* XPM */
static char *_eca480dd3b74572b2cd996c8aaabbedoPyS33TnuvNYwrF3[] = {
/* columns rows colors chars-per-pixel */
"64 64 252 2 ",
"   c #1D0303",
".  c #190506",
"X  c #1D0A06",
"o  c #1D0508",
"O  c #1B0C14",
"+  c #240303",
"@  c #2B0403",
"#  c #240906",
"$  c #2B0A05",
"%  c #230409",
"&  c #2B0509",
"*  c #250C0A",
"=  c #2C0B0A",
"-  c #320502",
";  c #340C05",
":  c #3B0C04",
">  c #320D0A",
",  c #380808",
"<  c #291109",
"1  c #2D120D",
"2  c #341206",
"3  c #3B1103",
"4  c #34130C",
"5  c #3B130B",
"6  c #3A190E",
"7  c #200711",
"8  c #271412",
"9  c #331511",
"0  c #371716",
"q  c #341A14",
"w  c #3C1C14",
"e  c #3F231B",
"r  c #440E03",
"t  c #490B03",
"y  c #560E03",
"u  c #431305",
"i  c #4B1404",
"p  c #491706",
"a  c #43150A",
"s  c #451A0B",
"d  c #4B1B0C",
"f  c #541403",
"g  c #561605",
"h  c #531A05",
"j  c #5D1D05",
"k  c #541C09",
"l  c #5A1D0A",
"z  c #421B12",
"x  c #4C1D11",
"c  c #411F1A",
"v  c #501D13",
"b  c #671B03",
"n  c #661D04",
"m  c #761C03",
"M  c #4F220D",
"N  c #56210A",
"B  c #5C230D",
"V  c #452214",
"C  c #4C2315",
"Z  c #4D2A17",
"A  c #442219",
"S  c #4B241A",
"D  c #4D2A1C",
"F  c #542313",
"G  c #592715",
"H  c #522D1D",
"J  c #5D2A1B",
"K  c #5C311C",
"L  c #632106",
"P  c #6B2304",
"I  c #63230C",
"U  c #6B250B",
"Y  c #682908",
"T  c #6D2C0D",
"R  c #772707",
"E  c #7C2D0B",
"W  c #7B320B",
"Q  c #652C15",
"!  c #6B2C13",
"~  c #682A17",
"^  c #612E1A",
"/  c #752D15",
"(  c #69331A",
")  c #6B321C",
"_  c #7D3514",
"`  c #73341B",
"'  c #743518",
"]  c #7B341B",
"[  c #5B2F21",
"{  c #5B3427",
"}  c #613423",
"|  c #683926",
" . c #65352A",
".. c #753823",
"X. c #7B3B22",
"o. c #584137",
"O. c #7B4429",
"+. c #704736",
"@. c #794A35",
"#. c #852B07",
"$. c #952B05",
"%. c #82320B",
"&. c #8B3609",
"*. c #8B340D",
"=. c #93350C",
"-. c #993A0A",
";. c #823414",
":. c #8B3512",
">. c #8C3A15",
",. c #843718",
"<. c #833B1C",
"1. c #8B3D1B",
"2. c #943B13",
"3. c #963B17",
"4. c #9A3C13",
"5. c #A02E01",
"6. c #A63A08",
"7. c #B83C00",
"8. c #A33D11",
"9. c #863D22",
"0. c #89421A",
"q. c #954313",
"w. c #9D4114",
"e. c #95431D",
"r. c #9C441C",
"t. c #AC4209",
"y. c #B64408",
"u. c #BB410B",
"i. c #BB490D",
"p. c #A44314",
"a. c #AB4516",
"s. c #A4451C",
"d. c #AA4A18",
"f. c #AC4B1C",
"g. c #B54612",
"h. c #B44A13",
"j. c #BD4C13",
"k. c #B34719",
"l. c #B34C1B",
"z. c #BB4E1B",
"x. c #AF5019",
"c. c #B3561C",
"v. c #BC531C",
"b. c #854124",
"n. c #8C4424",
"m. c #83412A",
"M. c #8B452B",
"N. c #864929",
"B. c #984726",
"V. c #9B4B23",
"C. c #944B2A",
"Z. c #8E502E",
"A. c #9A532B",
"S. c #874933",
"D. c #924C32",
"F. c #8A5337",
"G. c #975636",
"H. c #A44D23",
"J. c #A74A27",
"K. c #AC4D23",
"L. c #B24E21",
"P. c #B94E22",
"I. c #A95127",
"U. c #AD532B",
"Y. c #B45223",
"T. c #BB5324",
"R. c #B3542A",
"E. c #BC5929",
"W. c #A65A37",
"Q. c #B55B33",
"!. c #BD5A35",
"~. c #B26232",
"^. c #B86236",
"/. c #C34B0D",
"(. c #C94B0C",
"). c #D24C04",
"_. c #D94F05",
"`. c #CB510D",
"'. c #D4530D",
"]. c #DA540C",
"[. c #DC5A0A",
"{. c #C54A14",
"}. c #C34C14",
"|. c #C14D1B",
" X c #C55213",
".X c #CC5315",
"XX c #C3531C",
"oX c #CA551C",
"OX c #CB581A",
"+X c #CC5A1C",
"@X c #D45514",
"#X c #DC5612",
"$X c #D55A15",
"%X c #DC5A14",
"&X c #D3561C",
"*X c #DD5618",
"=X c #D45A1B",
"-X c #DD5D1B",
";X c #EC5C05",
":X c #E4570A",
">X c #E45A0D",
",X c #EB5C0C",
"<X c #F55E05",
"1X c #FD5F03",
"2X c #F35E0B",
"3X c #FC5F0A",
"4X c #E55712",
"5X c #E45C13",
"6X c #EA5D12",
"7X c #E25E1B",
"8X c #EA5E1A",
"9X c #F45E12",
"0X c #F95F13",
"qX c #DD600E",
"wX c #D7611C",
"eX c #EC600D",
"rX c #F56106",
"tX c #FD6103",
"yX c #F5620C",
"uX c #FB610A",
"iX c #ED6314",
"pX c #E46418",
"aX c #E4611D",
"sX c #ED631C",
"dX c #F46213",
"fX c #F96312",
"gX c #F3631A",
"hX c #F8641A",
"jX c #C35523",
"kX c #C55923",
"lX c #CC5B23",
"zX c #C45629",
"xX c #C25B2B",
"cX c #CB5C29",
"vX c #D55C23",
"bX c #DA5D23",
"nX c #D45D2B",
"mX c #C35D31",
"MX c #E25E23",
"NX c #C7622D",
"BX c #DC6324",
"VX c #D4622D",
"CX c #D86429",
"ZX c #C76537",
"AX c #D96533",
"SX c #E36223",
"DX c #EA6322",
"FX c #E86927",
"GX c #E2652C",
"HX c #EA662A",
"JX c #8C5946",
"KX c #D36B42",
/* pixels */
"'.uXuXtXtXtXtXtXtXtXuXsXT.W , = B w.jX1.' NX^.O.@ + + + +   I.9XuXtXuXuXtX<XyXyX5X$X>X<X1X1XtXtXtXtXtXtXfXbXR.s.K.xXBXiXyXiX5X%X",
">XuXuXuXtXtXtXtXtXtXtXuXdX+XW o . * 1 = 2 G w * + + +   = o.8XuXtXtXtXuXuXtXtXtX;X,XrXtX1X1X1XtXtXtXtXtXtXuXuXuXuX3X3X3X,XE 4 * ",
"<XtXtXtXuXuXuXeXyXtXtXtXuXdXoX_ p $ # # + + @ + + + + $ } wXyXuX%X,X1XuXtXtXtXuXyX>X$Xv.XX#X,X3XuXtXtXtXtXtXtXtXtXrXdXlXN   $ $ ",
"uXuX;X5X8XkXvX7X6XtXtXtXtXuXuX,X/.T p @ + + + + % & x ] pXrXtXbXT b #X3XuXuXfXaXK.~ r ; : p <.E.aXyXtXtXtXtXtXtXtX9XcXY # + 2 < ",
"uXuX,X$Xh.%.9.jX5X<X<XtXtXtXtXuXiX$Xd.` z #   # C ] l.AXyXtXtXjXF $ `.<XtXfX@X=.t # % % % % @ L a.-XtXtXtXtXtXtXtX6X-.+ + $ O.H ",
"uXtX>X.X2.k | R.5X<XtXtXtXtXtXuXuXtXsXCXv.t.t.t.v.CXgX1XtXtXtXvXG X &..XaX.X%.; + + a 6 + + + # p r.SXtXtXtXtXtXyXkXf # + ; ^.B.",
"tXtXeX$Xj.t.P.oX>X1XtXtXtXtXtXtXtXtXtXtXtXrX<XtXtXtXuXtXtXtXtXfXs.s $ ` 1.T 2 + + + _ 1.B + + + + V V.FXtXtXtXtX>X0.+ + # u CX@X",
"tXtXyX>X#X6XdX5X,XtXtXtXtXtXtXtXtXtXtXtXtXtXtXtXtXtXtXtXtXtXuXuXbX} * # $ + + + +   ,.T.f.! $ + + $ Q T.uXtXtXuXwXN # + + : p.cX",
"tXtXtX<X2XuXuXrXrXtXtXtXuXtXtXtXrXrXuXtXuXtXuXuX1X1XtXtXtXtXtXuXgX] = + + + + + + + ` &XsXR.} + @ @ ; 2.9XtXtXfXNX: # + # # u Q ",
"tXtXtX1X1XtXtXtXtXtXtXtXuXuXuX3X9XXXM.N.jXfX9XXX6XtXtXtXtXtXrX=XX.9 + + + + + + + + J oX2XjX} + + + + ^ xXtXtXgXG.@ + + +   + # ",
"tXtXtXtXuXtXtXtXyXCXE.).<XtXhXbX1.$ 9 5 w @.JXL ).uXtXtX1XsXX.2 = + + + + + + + + + K oXGXG.; + # = % 0 3.tXuXgXG.$ + # 3 U # + ",
"tXtXtXtXtXtXtX2X}.;.t.,XuXuX7X8.$ V 1.8.e @ h z.gXtXtXuX6X#., # + + + + + + + + + + ) T.l.k # 5 ^ Q @ . #.;X1XgXW.- + # M W.# # ",
"tXtXtXtXtXtXtX(.U F |.uXtXdXz.k q K ^.SX@.4 F 5.:XuXuXuX$., + + + + + + + + + 9 z ; ` e.T + + ` Q.Q.j . E 5X3XdXNXp + # : ! * F ",
"tXtXtXtXtXtX%X;.# C j.tXtX5X4.W >.e D.cXn.p.K.B %.SXuX4Xu @ + ; + + + + + @ s e.e.B V z + + B a.%X[.-.o T =X3XuX5X%.+ + + c 3.XX",
"tX1X1XuXfX6Xp.6 + 6 g.<XtX[.-.a.jXw  .S.] #XsXD.u zXyX).4 + + D 9.U ; # + + ^ T.Y.Q     @ r 2.&X,X].-.o T =X1XuXyXjXj + # 5 T.sX",
"uXuX1XtX:X6.h + 4 0.=XtXtX[.=.1.xX0.6 H ( l.8XA.u |.dX7.4 + @ V +XxXZ.F $   w ( ! s +   p n.mX7X5Xt.j + T $X1XuXuXsXU.@ # + I z.",
"tXrX$Xp.R r + + ' OXdXtXtX8XH.G I.=X}.| C O.A.F p cXyX7.4 + + # /.sXsX%X Xp.I # @ # = } 1.XXsX6XXX/ + + W 5X1XtXtXuXaXv.( # X h ",
"1X3XbX;.@ @ @ + w.6XuXuXtXuX,X6.z 9.ZXaX`.T 4 = m DXuX_.5 + + + ] 5XdXCXQ.( > % + = F j.,XrXuX4Xp.$ + w r.tXtXtXtXtXtXrX;Xy.p O ",
"uX3XGX<.@ + + . 4.,XtX1XtX1X0X*X$.- n 4.mX!.. d (.hXuX;Xu + + + a R.a.R t @ $ : x E z.7X;XsXbXT.9.  + Q kXtXtXtXtXtXtXtXtXyXwXR ",
"yX,XnX<.+ + = k t.,XtX1X1X1X1X0XbX;.d 1 f -.C 2.HXuXtXdXI @ + + + + + # # $ s I.H.XXiX<X2XBXH.: + # 5 q.iXtXtXtXtXtXtXtXtXtXtXaX",
"XX:.n.^ + + ^ XX<X1X1X1X1X1XtXtXtX2XXX>.E *.z.dXuXtXtXfXu.r + + + + + @ J ! r.wXiXyXdXgX XV.9., # a 1.bXtXtXtX2XtXtXtXtXtX1X1XtX",
";.4 * # +   V.aXtX1X1X1X1X1XtXtXtXtXuXrX;XrXtXtXtXtXtXtX2XR @ + + + p f R.XX4XyXdXsXjXY.4.. % & h 3.&X3XtXtXyX$X].6XuXtXtXtXtX1X",
"G 1 + + + # V.aXtX1X1X1X1X1XtXtXtXuXuXtXtXtXtXtXtXtXtXtX1Xj.p + + + :.f.vXaX@X6X}.f.;.j k + % B s.-XhXuXtXuXuX%X9.a.sXuXtXtXtX1X",
"+ + + + + { kXfXtX1X1X1X1X1XtX;X/.z.$XtXtXtXtXtXtXtXtXtXtXdX1.2 + + T T.XXL.:.a.;.p : + # # l s.7XfXtXtXtXuXuX8X .k i.dX1XtXtXtX",
"+ + + + # @.CXuXtXtX1X1X1X1XtX].R V :.,XtXtXtXtXtXtXtXtXtXuX5X/ > + + B I x 4 z 5 @ @ + = R /.6XuXtXtXtXtXuXuX&XA $ U CX3XtX1XtX",
"@ + # + : r.7XuXtXtX1X1X1X1XuX@Xm 9 1.yXtXtXtXtXtXtXtXtXtXtXuXvX/ ; # + + + + % + % $ b 6.*XdXuXuXtXtXtXtXuX2Xd.@ + p l.hXtX1XtX",
"C.D.^ h X.lXyXuXtXtXuXfXfXuXfX.Xy 1 :.hXuXuXuXtXtXtXtXtXtXtXuX0XKXX.: $ $ + + + $ u b.cXhXuXuXuXuXtXtXtXtXuXgXQ.B $ @ m -XuX1X1X",
"tXyX5XwX-X,X<XtXyXiX.XB.9.e.d.>.+ + C B.{.{.(.>X2XuXtXtXrXtXtXtXtXiXmXM.) k v J m.jX2XtXtXtXtXtXtXtXtXtXtXtXtXdXNXp @ ; / -XdX1X",
"tXtXtXtXtXtXtXuXpXV.q         + + + +       . 2 9.nXgXtXtXtXtXtXtXtXtXtXrX;XrXtXtXtXuXuXtXtXtXtXtXtXtXtXtXtXtXuXwXL + + + 6 F.eX",
"<XtXtXtXtXtX1X2Xh.x + +   + + + + + + + + # # + = U !.dXuXtXtX<XyXtXtXtXrXrXrXrXtXtX7X5X1XtXtXtXtXtXtXtXtXtXtXuXBXg + + + $ | yX",
"tXtXtXtXtXtX3X@XE + $ $ # + + + + + + + + + + + q % n nXuXtXtX<X@X>XrXrXrXtXtXtXtXtXi.u.<XtXtXtXtXtXtXtXtXtXtXuXBX^ + + + ; W.yX",
"tXtXtXtXtXtXuXh.a + r ! ^ $ + + + + + + + + @ s O.# & X.iXtXtX>XK.:./.;XrXuXtXtXtXuXz.s.%XaXCXlXlXwXdXuXtXtXtXuXsXjXP # + ; ZX5X",
"tXtXtXtXtX1X;X-.$ + f r.K.j # + + + + + # $ k g.W.@ @ : ZXuXtX:XR.;.y.[.rXuXuXuXdXSXI.| >.0.` K ^ <.Y.GXtXtXtXtXuXeXs.+ + = W.2.",
"tXtXtXtXtXtX].%.+ + p d.VXJ.k + + + + + @ h p.7XQ.@ + > W.yXtX<XBXwX[.eXrXuXfX:Xu.*.G 1 2 2 $ $ - ; F s.9XtXtXtXuXyXf.$ + + S 5 ",
"1X1XtXtXtXtX(.U + + ; <.Y.z.e.: + + $ = J c.%X6Xs.+ + > N.<XtXtXuXdX<X1X1X9Xg.U u ; + + + + ; ..W.b.# J z.tXuXuXuX6XH.+ @ @ @   ",
"aXuXtXtX1XtX(.B + + +         . C n.q.# > v 6 @.Z + + - | <XtXtXuXuXuXuXuX'.E D ..) z + + @ =.4XyX'.m X %.,XtXuXuXfXSXm % % + # ",
"P XXiXuX1XtX/.l + + + + + + # # H F.Z.q + + + + + + + - | <XtXtXtXuXtX1XDX8.p R.DX8X|.T 5 p s.sXiXOXP . Q kXuXuXuXfXVXb 7 + + + ",
"+ n }.dX3X1X(.I + + + 4 q + + + + @ @ + + + + + + + + $ @.3XtXtXtXtXtX1XSX,.: T.gXuXsXP.V.B.l.-X(.2.@   Z L.uXuXuXyX7X:.% + %   ",
"+ + R oX9XtX'.%.+ + + J ..s + + + # + + + $ s w + + + @ W.uXtXtXtXtXtX1XSX;.- V.vX7X-XzXE.x.q.d.P * # # V H.uX1XuXtXrX&X%.k ;.&.",
"# # # <.vXfX,X-.$ + # B ' F d _ &.R n P E q.A.Z + + # r CXuXtXtXtXtXtXtXSX:.@ w X.9.' } ..' 4 * $ p l , Z K.1X1XuXtX<X;X4X/.5X,X",
"( > % p Y.sXyXj.F + + @ ; x n.cX%X$XOXXXx.d.A.; + + @ <.dXtXtXtXtXuXuXuXsX8.t + / ] ! l p g ` b.n.C.n.k Q XX1X1XuXtX<XtXuXyXgXdX",
"!.) $ - B.7X1X5X3.o + + @ l s.aXyXyXdX5X' B M + + @ h NXuXuX1XuXuXuXuXuXdX/.I c k.$XOXXXv.v.=X=Xv.1.~ 0 <.6XuX1XuXtXtXtXtX).s.}.",
"DX4.u # X.*XtXtX&X] + + + - h ' C.W.I.b.9 $ @ @ $ p P.hXtXtXtXtXtXuXuXtXuX5X%.A .X5X7X7X*XXXH.0.I ; # ( lXrXuXuXuXtXtXuXyX$.6 p ",
"AX1.: + ! '.1X1XuX5X-.# X * X # $ 2 2 $ + # X # y (.hXuXyXpXpXyXtXAXz.7XfXdXu.b S.M.m.m.U p 5 $ * $ W $XfXtXtXuXuXtXtXtXyX5.8 V ",
"L.B + + ` @X<XtXtXuXGXR.=.#.P n h 2 2 6 6 k R 6.vXgXuX6Xy.R #.|.aX3.#.%XyXyXdXg.l $ @ # # * 1 d E K.VXdXuXtXyXyXyXtXuXuXyXu.8  .",
"s + + # X.$X<X1XtXtXtXyXsXDXBXVXE.B.C.W.~.NXDXdXuXtXiX$.> q 8 = =.p }.eXyXuXtXiXT.,.P P P E n.Q.AXgX3X3X2X5X(.y.u.).:XyXyX7.8 } ",
"+ + + - V.aXtXtXtXtXtX1X1X1XuXuXtXtXtXtXtXuXuXtXtXdXh.$ + B.G > % + 4. XaXfXuXtXtX<X:X>X;X1XuXuXtXtXyX$Xr.H +   + ; ! H.v.p # q ",
"+ + + f XXiXtXtXtXtXfXfXuXtXuXuXuX1XuXtXtXtXuXuXuXCXg # 9 CX) > % + $ h V.bXuXtXtXtXtXuXuXtXtXtXtXyX.X' $ + # # # + @ - 3 + #   ",
"+ + + ] $XuXtXtXtX<X@X.XrXtXtXtXtXtXtXtXtXtXtXuXyX X@ * q T.O.9 o + * 1 p p.,XtXtXtXtXtXtXtX1X1XyX'.E $ + + + # #   + + + + +   ",
"+ + u L.sXuXtXtXtXyXa.:.[.yXrXrXtXtXtXtXtXtXtXuXyXt.: N.) G [ ` { 4 G O.Z P $XuXtXtXtXtXtXtXtXdX=X%.$ +   5 ;.i./.h.` + + + + + ",
"+ $ -.4XuX1XtXtXtXtXlXO.9.Q.U.2.3.U.GXfXuXuXuXuXyXt.; F.+X6.d C V 0.cXQ.^ g +XdXuXtXtXtXtXtXtX5Xw.2 + + 2 2.6XrXtXyX7X$.# + + + ",
"& #.&XdXuXtXtXtXfXDXZX@.; z 6 = $ d 3.MXuXuXuXuXyXXX@ x mXBXp.n ; l #._ s n $XuXtXtXtXtXtXtXdXOXP + + + Q kXuXuXtXtXyXjX@ + +   ",
"p lXdXuXtXtXtXtX_.#., $ + $ $ $ # + 2 &.tXuXuXtXyXCXP 8 > '.iXNXS.w X + + ;.#XuXtXtXtXtXtXtX6Xp.- + + + W 5XuXuXuXtXyXAX- + @ $ ",
"%XuXuXtXuXtXuXXXQ , l N 2 p 1.E.l.j # M l.uXuXtX2XyX-X%.4 S K.%XaX&XNX_ h R.sXtXtXtXtXtXtXtX'.E + + + + %.iXuXuXdXyXdXCXt ; D.6X",
"uXuXuXuXtXuX:X=.1 =.'.$X2.%.@XdX4Xg.# 8 X.yXuXuX$XaXhXfX=.L F A @.O.+.J p.5XuXtXtXtXtXtXtXsXv.L + + + + ! +XuXgX~.Y.BXkX$ Q 2X<X",
"uXuXuXuXuXuX(.U D v.gXsXoX4..X6Xj.<.# # L _.uXuXcX=.T.hXsX.Xd.| V z ! k.MXdXuXuXuXuXuXtXtXDXH.: + + + + s r.5X%Xf h s.*.4 D.uX3X",
";X<XtXuXuXuXg.s H XXdX@Xp.,.r.L.] + 4 D h u.uXfXAXP j cXyXyXsXnX|.|.&XsXuXtXtXuX2X<XuXtXtXSXC.@ + + + + + k w.K.w $ F { 2 Z.uXuX",
"#X5X6X2XtXuXg.s 6 e.VXU.G | +.S A z 1.l.u 8.uXfXZXy $ ) pXtXuX1X3X3X1X1X1XtXtXfX5X#X,X<XtXbXm.@ + + + @ , # 4 S 9 u 4.E.y ^ FXdX",
"v..X>X,XtXuXi.d + s ` ` a C D - r ,.cX Xp g.uXyXJ.- + : E.yXtXtXtXuXuXuXtXtXyX`.t.l.@X<XtXbXm.@ u n b >.I.I , 2 # u w.xX<.2 s.AX",
"k i.,XrXuXuX}.I + 2 S +.+. .JXG.^.VX$X:.L '.tXuXAX<.@ - M sXyXrXtXtXtXuXtX<X,Xy.P _ j.;XtXbXM.u n.ZXCXCXaXNXW.@.% = p N h + 3 I ",
"X h v.dXuXuX6X2.$ Q XXdXdX6XgXgX7X|./ 0 <.<X1XuX3XcX@ # + { XX,XuXtXuXuXuXuX>X XM.jX6XtXtXSXC.5 ..U.-XfXtXuX6XN.* e + $ + + + + ",
"4.#XuXuXuXuXuX}.K A.^.G.F.G.G.@.o.* = E ].uXuXuX3XVX@ #   = X `.uXtXtXtXtXuX<X:X#X,XuXtXtXdXj.g * + A D.VXdXrX<X[.qX=.u $ + + + ",
"$X#X2XtXuXuX1X5XB.F t @ @ @ @ $ 4 G 3.$XuXuXuXuX1XlX; +   + D >XtXtXtXtXtXtXtX1X2X<XtXtXtXuX'.E + + + - T l.aX3XyXyX%X X*.u $ $ ",
"gXdX;X1XtXtX1XuXnXC.J z V Z J ' r.xXGXuXtXtXtXuXuX-X2., + & | pXyXtXtXtXtXtXtXtX1XuXtXtXtXtX7Xr.: + + + % p =.#XyXrXrXdXSXd.&.%."
};
