/* XPM */
static char *_bedea21cb544318a7ae37ccf1e11046i0nXCbJc3S5STMP2[] = {
/* columns rows colors chars-per-pixel */
"64 64 153 2 ",
"   c #020101",
".  c #0B0402",
"X  c #0A0708",
"o  c #0C0A0B",
"O  c #130501",
"+  c #1B0602",
"@  c #140902",
"#  c #1A0B02",
"$  c #110E0D",
"%  c #17100D",
"&  c #1B130F",
"*  c #110F10",
"=  c #151313",
"-  c #191616",
";  c #1A1718",
":  c #1D1A1B",
">  c #230602",
",  c #2B0703",
"<  c #230B02",
"1  c #2C0A02",
"2  c #340D03",
"3  c #3B0D03",
"4  c #241106",
"5  c #2C1202",
"6  c #231208",
"7  c #29170C",
"8  c #2B180B",
"9  c #341502",
"0  c #3C1202",
"q  c #3C1903",
"w  c #211711",
"e  c #231A16",
"r  c #2A1B15",
"t  c #221D1E",
"y  c #291E1A",
"u  c #26201F",
"i  c #2A211E",
"p  c #241F21",
"a  c #242021",
"s  c #2A2221",
"d  c #431303",
"f  c #4B1503",
"g  c #451D02",
"h  c #4B1B03",
"j  c #521603",
"k  c #531B03",
"l  c #5B1D03",
"z  c #472001",
"x  c #4D2102",
"c  c #522203",
"v  c #5C2303",
"b  c #5B2902",
"n  c #632403",
"m  c #6B2303",
"M  c #662D03",
"N  c #6E2C04",
"B  c #742B03",
"V  c #7B2D04",
"C  c #6D3303",
"Z  c #733304",
"A  c #7C3104",
"S  c #773804",
"D  c #7C3B03",
"F  c #832E03",
"G  c #843303",
"H  c #823404",
"J  c #893302",
"K  c #8C3604",
"L  c #853802",
"P  c #853E03",
"I  c #8B3804",
"U  c #903503",
"Y  c #923A03",
"T  c #973B04",
"R  c #9A3C03",
"E  c #983D06",
"W  c #A03E03",
"Q  c #844302",
"!  c #8B4006",
"~  c #864B05",
"^  c #944403",
"/  c #9A4303",
"(  c #9B4405",
")  c #954C04",
"_  c #9A5203",
"`  c #A34403",
"'  c #A34204",
"]  c #A44504",
"[  c #A94503",
"{  c #AA4604",
"}  c #AB4904",
"|  c #AC4A04",
" . c #AE4F04",
".. c #B14A03",
"X. c #B04C02",
"o. c #B54904",
"O. c #B94D04",
"+. c #AF5702",
"@. c #AE5903",
"#. c #B55105",
"$. c #BA5204",
"%. c #B15B03",
"&. c #BA5803",
"*. c #BD5A03",
"=. c #B45408",
"-. c #B36004",
";. c #BC6E01",
":. c #C45403",
">. c #C55503",
",. c #C35505",
"<. c #C15D03",
"1. c #C95903",
"2. c #CD5B04",
"3. c #CD5C04",
"4. c #D25F04",
"5. c #C56504",
"6. c #CA6206",
"7. c #CB6405",
"8. c #CF6404",
"9. c #CE6E04",
"0. c #D46002",
"q. c #D56304",
"w. c #D86102",
"e. c #DB6503",
"r. c #D76B03",
"t. c #D76C03",
"y. c #D66C05",
"u. c #DE6A01",
"i. c #DC6B03",
"p. c #CF7802",
"a. c #D07703",
"s. c #DC7403",
"d. c #D97404",
"f. c #D77E02",
"g. c #D97E05",
"h. c #E06702",
"j. c #E16B03",
"k. c #EA6F03",
"l. c #E07503",
"z. c #EA7103",
"x. c #EC7203",
"c. c #E37B02",
"v. c #F37302",
"b. c #F07503",
"n. c #F47703",
"m. c #F27903",
"M. c #DE8002",
"N. c #DB8008",
"B. c #EC8B03",
"V. c #F68F04",
"C. c #F09403",
"Z. c #F69402",
"A. c #F89603",
/* pixels */
"p p p p p p t o t p p p p p p p a s s s s s a a p p p p p p p p $ : p p p p p p a u i s s s s a p p p p p p p p p = : p p p p p ",
"p p p p p p o   : p p p p p p p p a a a a a a p p p p p p p p =   : p p p p p p a a t t a a a a p p p p p p p p -   - p p p p p ",
"p p p p p t   : a a p p p p p p p p p p p p p p p p p p p p a   : a p p p p p p p p p p p p p p p p p p p p p p o : p p p p p p ",
"p p p p = o     o - a p p p p p p p p p p p p p p p p p p - o     o - t p p p p p p p p p p p p p p p p p p ; $     o = p p p p ",
"p p : o             $ t p p p p p p p p p p p p p p p t o             o t p p p p p p p p p p p p p p p t $             o : p p ",
"p :             >       t p p p p p p p p p p p p p t             <     . t a p p p p p p p p p p p p p X           <       : a ",
"p *     N { + d 3.L     - a p p p p p p p p p p p p =     c ..2 1 >.(     = a p p p p p p p p p p p p ;     0 X.f   O. .    o a ",
"p       ,.z.f d u...  + o a p p p p p p p p p p p a o     } v.m < w.>.    O a p p p p p p p p p p p p $     T n.J   1.0.@   + p ",
"p   1   v F + . k 2   2 X a p p p p p p p p p p p p   ,   h J , . f 0   3   a p p p p p p p p p p p p o 1   0 J 0 . d d   , > t ",
"p   2 0 . @ < < # . 0 d o a p p p p p p p p p p p p o > 0 @ @ < < # . , f   a a p p p p p p p p p p p * + d > @ < < + O < j   p ",
"p *   v ] C C D P N k . = p p p p p p p p p p p p p =   h ' S C Q P B k + $ a a p p p p p p p p p p p ;   0 E D C ~ S C m < o p ",
"p :   . b r.M.V.<.A .   t p p p p p p p p p p p p p t   . x 7.N.Z.8.H .   : a a p p p p p p p p p p p p X . g *.d.A.t.L <   : p ",
"p p : & # q b c 5 @ $ : p p p p p p p p p p p p p p p t - # 9 b b 5 @ $ : p p p p p p p p p p p p p p p p - # 9 c b 9 # $ : p p ",
"p p a i i i r r t t t p p p p p p p p p : p p p p p p a s i i r r e t a p p p p p p p p p t p p p p p p a s i i r r t t a p p p ",
"p p p a a a s s a a a p p p p p p p p o $ p p p p p p a a a a s a a a p p p p p p p p p = o a p p p p p a a a i s s a a a p p p ",
"p p p p p a a a p p p p p p p p p p :   - a p p p p p p p p p a a p p p p p p p p p p t   = a p p p p p p p p p p p p p p p p p ",
"p p p p p p p p p p p p p p p p p t = o : p p p p p p p p p p p p p p p p p p p p p t = o : p p p p p p p p p p p p p p p p p p ",
"p p p p p p p p p p p p p p p p =           = a p p p p p p p p p p p p p p p p p -           = p p p p p p p p p p p p p p p p ",
"p p p p p p p p p p p p p p t                 o t p p p p p p p p p p p p p p t o               o t p p p p p p p p p p p p p p ",
"a p p p p p p p p p p p p p o     + <   f v     o a p p p p p p p p p p p p p $     . ,   0 n     X p p p p p p p p p p p p p p ",
"t p p p p p p p p p p p p :     2 q.[   [ x.k     : p p p p p p p p p p p p t     + 2.O.  K b.B     : p p p p p p p p p p p p p ",
": p p p p p p p p p p p p -     h e.]   V >.f   < ; p p p p p p p p p p p p :     3 4.O.. n >.v   1 - p p p p p p p p p p p p : ",
": p p p p p p p p p p p p - + 3   1 < . . .   2 2 - p p p p p p p p p p p p : O 0   < 2 O . .   , 3 = p p p p p p p p p p p p : ",
"t p p p p p p p p p p p p :   0 n # 5 9 5 # 9 j   : p p p p p p p p p p p p :   2 m @ 5 9 9 > 5 l   - p p p p p p p p p p p p t ",
"p p p p p p p p p p p p p p   . B #.%.;.-.=.A 1   t p p p p p p p p p p p p p o   n #.@.;.-.&.H 2   t p p p p p p p p p p p p p ",
"p p p p p p p p p p p p p p : . @ M %.p.5.b O   : p p p p p p p p p p p p p p : . O c +.a.5.M <   - p p p p p p p p p p p p p p ",
"p p p p p p p p p p p p p p a t e 6 9 9 5 # - t a p p p p p p p p p p p p p p t t e 6 9 q 5 # - t a a p p p p p p p p p p p p p ",
"p p p p p p p = t p p p p p p p i s i i i s a p p p p p p p p p - : p p p p p p p u i i y i s a p p p p p p p p p : : p p p p p ",
"p p p p p p =   : p p p p p p p p u u a a a p p p p p p p p p -   : p p p p p p p p p a a a p p p p p p p p p p :   - p p p p p ",
"p p p p p p   : t p p p p p p p p p p p p p p p p p p p p p a   ; t a a p p p p p p p p p p p p p p p p p p p a o - t p p p p p ",
"p p p p : =   o - : a p p p p p p p p p p p p p p p p p p : =   o = : a p p p p p p p p p p p p p p p p p p : -   X = : a p p p ",
"p p t =             - p p p p p p p p p p p p p p p p p -             = p p p p p p p p p p p p p p p p p -             * p p p ",
"p t                   o p p p p p p p p p p p p p p p o                 o p p p p p p p p p p p p p p p o                   t p ",
"p =     0 G . 2 | n     ; a p p p p p p p p p p p p -     1 G > > [ B     - a p p p p p p p p p p p p :     . J 2   R L     * p ",
"p       >.z.h f z.$.  . o a p p p p p p p p p p p p o     { b.m 2 j.3.    O p p p p p p p p p p p p p *     Y m.G . 0.u.+   . p ",
"p   +   G [ , . G l   2 X a p p p p p p p p p p p a   +   B | d   B m   , O a p p p p p p p p p p p p o +   v o.k   m B   + , t ",
"p   3 ,   O # # O . 2 d o a p p p p p p p p p p p p X , 1   O # # @ . < f   a p p p p p p p p p p p p o < 3   . @ # @ . > j   t ",
"p o   n L 9 x c g c k + = p p p p p p p p p p p p p =   k I x x c g h l , o a p p p p p p p p p p p p -   d H b g c g g n 2   a ",
"p :   @ I s.f.B.q.L .   : p p p p p p p p p p p p p :   . A y.g.B.y.E O   : a p p p p p p p p p p p p t   . B 6.d.C.t./ 9   - a ",
"p a - @ # c Q ) g @ . : a p p p p p p p p p p p p p a : @ + g D _ b # . - a p p p p p p p p p p p p p p : $ @ q Z _ M # . = a p ",
"p p a i t r 8 7 w e a a p p p p p p p p p p p p p p p a u t r 8 8 w e a a p p p p p p p p p p p p p p p p u y r 8 7 w - p p p p ",
"p p a a a i i s s a p p p p p p p p p - $ p p p p p p a u i s s i i a p p p p p p p p p ; o p p p p p p p a a s i s s a a p p p ",
"p p p p a u a a a p p p p p p p p p :   = a p p p p p p p a p a a a a p p p p p p p p t   o p p p p p p p p a a u a p p p p p p ",
"p p p p p p p p p p p p p p p p p p = = t a p p p p p p p p p p p p p p p p p p p p p - o t p p p p p p p p p p p p p p p p p p ",
"p p p p p p p p p p p p p p p p : o       o : p p p p p p p p p p p p p p p p p p : o       o ; p p p p p p p p p p p p p p p p ",
"p p p p p p p p p p p p p p p =               = p p p p p p p p p p p p p p p p =               = t p p p p p p p p p p p p p p ",
"p p p p p p p p p p p p p p $           , 1     = a p p p p p p p p p p p p p =           > 2     o a p p p p p p p p p p p p p ",
"p p p p p p p p p p p p p t     + #.K   R e.d     t p p p p p p p p p p p p p       } '   F j.v     : p p p p p p p p p p p p a ",
": p p p p p p p p p p p p -     l k.O.  Y e.l   + ; p p p p p p p p p p p p :     3 u.1.. V h.B   > - p p p p p p p p p p p p : ",
": p p p p p p p p p p p p - + , . n h . + 0   + 2 - p p p p p p p p p p p p : O , . v k . @ 9   @ 3 = p p p p p p p p p p p p : ",
": p p p p p p p p p p p p :   f d O < 5 < # . j @ ; p p p p p p p p p p p p :   d h O < 5 4 # . j > - p p p p p p p p p p p p t ",
"p p p p p p p p p p p p p t   O F ` Q _ Q ^ V 0   p p p p p p p p p p p p p p     V } P ) Q ) A d   t p p p p p p p p p p p p p ",
"p p p p p p p p p p p p p p -   < P 9.B.l.! 0   = p p p p p p p p p p p p p p :   O Z 9.B.c.^ h . = a p p p p p p p p p p p p p ",
"p p p p p p p p p p p p p p u : & < g g 9 # % : p a p p p p p p p p p p p p p a : - < q z 9 # $ - a a p p p p p p p p p p p p p ",
"p p p p p p p : p p p p p p p a s i i y t t u p p p p p p p p p : t p p p p p p a i i i r y t u a p p p p p p p p t t p p p p p ",
"p p p p p p -   t p p p p p p p a a s s u u p p p p p p p p p :   : p p p p p p p a i i s a a p p p p p p p p p :   - p p p p p ",
"p p p p p p   = t a p p p p p p p a a a a p p p p p p p p p p X * : a a p p p p p p p p a p p p p p p p p p p p * o : p p p p p ",
"p p p p t -   = : p a p p p p p p p p p p p p p p p p p p p :   = : p a p p p p p p p p p p p p p p p p p p p :   = : t p p p p ",
"p p p ;             : a p p p p p p p p p p p p p p p p :             : p p p p p p p p p p p p p p p p p :             ; p p p ",
"p p o                 - p p p p p p p p p p p p p p p =                 = p p p p p p p p p p p p p p p -                 $ p p ",
"p -       h   > G 9     : a p p p p p p p p p p p p :       h   O G d     ; a p p p p p p p p p p p p :       h +   V v     = p ",
"p o      .j.d j z.$.    $ a p p p p p p p p p p p p $     / x.l 2 j.3.    o a p p p p p p p p p p p p =     A x.V . w.u.O     p ",
"p   .   ' 2.3 < { V   2 X a p p p p p p p p p p p a   .   U 4.j . W K   > O a p p p p p p p p p p p a o .   V q.m   Y E . @ , t ",
"a   0 >   O O @ O . + f o p p p p p p p p p p p p p   2 >   O O @ O . O f   a p p p p p p p p p p p p o , 2   . O @ O .   f . t "
};
